<?xml version="1.0" encoding="UTF-8" standalone="no"?>
<!-- Created with Inkscape (http://www.inkscape.org/) -->

<svg
   xmlns:dc="http://purl.org/dc/elements/1.1/"
   xmlns:cc="http://creativecommons.org/ns#"
   xmlns:rdf="http://www.w3.org/1999/02/22-rdf-syntax-ns#"
   xmlns:svg="http://www.w3.org/2000/svg"
   xmlns="http://www.w3.org/2000/svg"
   xmlns:sodipodi="http://sodipodi.sourceforge.net/DTD/sodipodi-0.dtd"
   xmlns:inkscape="http://www.inkscape.org/namespaces/inkscape"
   version="1.1"
   width="681.13281"
   height="60.163372"
   id="svg4242"
   style="enable-background:new"
   inkscape:version="0.48+devel r9873 custom"
   sodipodi:docname="lakesoutline.svg">
  <metadata
     id="metadata1283">
    <rdf:RDF>
      <cc:Work
         rdf:about="">
        <dc:format>image/svg+xml</dc:format>
        <dc:type
           rdf:resource="http://purl.org/dc/dcmitype/StillImage" />
        <dc:title />
      </cc:Work>
    </rdf:RDF>
  </metadata>
  <sodipodi:namedview
     pagecolor="#ffffff"
     bordercolor="#666666"
     borderopacity="1"
     objecttolerance="10"
     gridtolerance="10"
     guidetolerance="10"
     inkscape:pageopacity="0"
     inkscape:pageshadow="2"
     inkscape:window-width="2560"
     inkscape:window-height="1300"
     id="namedview1281"
     showgrid="false"
     inkscape:zoom="56.35318"
     inkscape:cx="433.68182"
     inkscape:cy="33.508506"
     inkscape:window-x="0"
     inkscape:window-y="0"
     inkscape:window-maximized="0"
     inkscape:current-layer="Lakes_x2C__Outline_and_Fill" />
  <defs
     id="defs1282" />
  <g
     transform="matrix(0.05786179,0,0,0.05786381,-11.318451,-5.4914967)"
     id="Lakes">
    <g
       id="Lakes_x2C__Outline_and_Fill">
      <polygon
         style="fill:#bee5ed;stroke:#0296a0"
         points="1099.249,346.684 1097.806,346.777 1095.998,346.468 1093.398,345.784 1092.606,345.41 1091.488,345.227 1090.64,345.281 1089.113,345.381 1088.435,345.424 1087.15,345.336 1086.038,345.238 1084.568,344.907 1082.716,343.92 1080.746,342.428 1079.678,341.73 1078.462,341.384 1077.338,341.115 1075.486,340.129 1073.453,338.982 1072.506,337.51 1072.147,335.914 1072.998,334.582 1074.029,333.408 1075.67,332.45 1077.871,332.223 1080.465,332.822 1081.335,333.106 1082.566,333.708 1084.014,333.699 1085.365,333.527 1086.933,332.744 1088.613,332.38 1090.479,332.26 1092.102,332.324 1094.001,332.713 1096.064,333.006 1097.093,333.109 1098.488,333.615 1099.688,333.709 1100.545,333.822 1101.31,333.773 1102.486,333.527 1104.42,333.146 1106.949,332.728 1108.476,332.629 1109.759,332.716 1111.064,333.143 1112.629,333.638 1113.924,333.895 1115.319,334.4 1116.472,335.093 1117.131,336.072 1117.525,336.898 1118.196,338.048 1118.261,339.065 1117.903,340.111 1117.358,340.912 1116.945,341.109 1116.798,341.46 1116.412,342.082 1115.286,343.092 1114.469,343.654 1113.377,343.896 1112.275,343.967 1110.998,343.965 1109.375,343.898 1107.848,343.998 1106.067,344.113 1105.071,344.518 1103.944,345.527 1102.959,346.104 1101.877,346.514 1100.775,346.585 "
         id="polygon6" />
      <path
         inkscape:connector-curvature="0"
         style="fill:#bee5ed;stroke:#0296a0"
         d="m 1335.302,291.806 -0.784,-0.122 -1.248,-0.609 -1.477,-0.164 -2.299,0.494 -1.163,0.68 -0.438,1.237 -0.191,1.047 -0.083,1.387 0.416,1.095 1.006,0.884 1,0.798 1.317,0.347 1.093,0.878 1.195,1.132 1.189,1.045 1.437,0.856 1.568,0.244 1.3,0.088 1.032,-0.066 1.283,-0.17 0.654,-0.56 0.729,-0.737 0.261,-1.312 c 0,0 0.1,-1.129 0.083,-1.386 -0.016,-0.258 -0.18,-1.456 -0.18,-1.456 l -0.858,-1.239 -0.742,-0.814 -0.789,-0.208 -0.958,-0.11 -0.777,-0.036 -0.458,-0.402 -0.727,-0.557 -0.292,-0.499 -0.399,-0.837 -1.7,-0.928 z"
         id="path8" />
      <polygon
         style="fill:#bee5ed;stroke:#0296a0"
         points="1424.354,281.21 1426.291,281.085 1427.668,280.903 1429.107,280.254 1429.417,279.309 1429.31,277.65 1428.027,276.437 1426.849,275.401 1425.874,274.631 1424.518,273.701 1423.389,273.404 1422.136,272.652 1420.054,271.953 1417.73,271.826 1415.831,272.504 1414.064,273.822 1413.797,275.413 1414.009,277.25 1414.939,278.764 1416.585,279.861 1418.192,280.405 1419.588,280.5 1421.381,281.032 1423.053,281.109 "
         id="polygon10" />
      <path
         inkscape:connector-curvature="0"
         style="fill:#bee5ed;stroke:#0296a0"
         d="m 1496.158,232.684 -1.445,-0.123 -1.793,0.044 -1.479,0.455 -1.336,0.445 -1.149,0.002 -1.091,-0.217 -2.237,-0.143 -2.218,0.143 -1.383,0.808 -1.251,0.656 -1.502,0.097 -1.092,-0.217 -1.317,-0.346 -1.707,0.255 -1.907,0.482 -1.333,0.518 -0.885,0.775 -0.968,0.566 -1.323,0.66 -1.303,0.946 -0.778,0.194 -0.936,1.067 -0.722,1.052 -0.595,0.828 -0.182,0.515 0.042,0.644 0.36,1.126 1.291,1.066 1.037,0.508 0.454,0.331 1.307,0.202 1.067,-0.141 1.503,-0.097 0.987,-0.279 1.073,-0.069 1.278,-0.227 1.718,-0.111 1.214,-0.079 1.307,0.203 c 0,0 1.082,0.074 1.302,0.131 0.218,0.058 1.458,0.336 1.458,0.336 l 1.66,0.109 1.072,-0.07 1.189,-0.508 1.169,-0.794 1.947,-0.988 1.637,-0.25 0.857,-0.056 1.451,0.193 1.859,-0.12 1.859,-0.121 1.677,-0.754 1.098,-0.79 1.628,-1.471 0.625,-2.554 c 0,0 -0.037,-0.573 -0.137,-0.998 -0.099,-0.424 -0.574,-1.113 -0.66,-1.322 -0.085,-0.209 -1.241,-1.428 -1.241,-1.428 l -1.11,-0.503 -2.046,-0.581 z"
         id="path12" />
      <polygon
         style="fill:#bee5ed;stroke:#0296a0"
         points="1638.39,285.633 1637.431,286.202 1635.911,286.364 1634.529,286.386 1632.716,285.446 1631.048,284.919 1629.25,284.947 1627.736,285.386 1625.807,285.969 1623.312,285.594 1620.532,284.669 1618.71,283.176 1617.298,281.4 1616.296,279.203 1616.257,276.713 1616.639,274.632 1618.669,271.834 1620.445,270.423 1622.645,269.42 1623.746,269.126 1625.813,268.679 1627.61,268.651 1629.964,268.752 1632.607,269.679 1633.301,269.806 1634.404,269.651 1635.646,269.354 1636.608,269.063 1638.264,268.76 1639.923,268.734 1640.896,268.996 1641.598,269.676 1642.568,269.799 1643.946,269.501 1646.004,268.362 1648.489,268.046 1650.148,268.02 1651.807,267.994 1652.5,267.983 1654.43,267.676 1655.952,267.652 1657.336,267.769 1658.726,268.162 1659.71,269.114 1660.831,270.065 1662.782,271.003 1663.757,271.403 1665.154,272.349 1666.146,273.717 1666.173,275.515 1666.35,278.001 1664.447,280.106 1663.355,281.092 1661.722,282.777 1659.954,284.603 1659.125,284.754 1657.889,285.327 1656.092,285.355 1654.565,285.103 1653.182,284.986 1650.968,285.021 1649.596,285.734 1648.222,286.309 1646.424,286.337 1644.339,285.678 1642.668,285.013 1641.562,285.03 1640.317,285.05 "
         id="polygon14" />
      <polygon
         style="fill:#bee5ed;stroke:#0296a0"
         points="1780.422,388.346 1781.805,387.738 1782.893,387.061 1783.975,386.094 1784.907,384.76 1785.468,383.213 1785.877,381.303 1786.209,379.102 1786.172,376.758 1785.626,374.643 1784.206,372.834 1782.798,371.758 1781.178,371.197 1780.001,370.85 1778.903,370.867 1778.025,370.955 1776.79,371.486 1775.992,372.012 1774.906,372.834 1773.533,373.953 1772.676,375.359 1771.91,377.861 1771.502,379.846 1771.605,381.746 1772.75,384.73 1774.168,386.467 1775.729,387.834 1777.426,388.758 1778.746,388.811 "
         id="polygon16" />
      <polygon
         style="fill:#bee5ed;stroke:#0296a0"
         points="1728.127,251.442 1727.62,250.789 1725.796,250.486 1724.799,250.171 1724.137,250.182 1723.668,251.843 1723.376,254.328 1723.573,256.309 1724.25,257.291 1724.764,258.44 1725.596,258.758 1726.757,259.07 1728.073,258.554 1729.881,257.864 1730.356,256.533 1730.663,255.04 1730.639,253.552 1729.625,252.08 "
         id="polygon18" />
      <polygon
         style="fill:#bee5ed;stroke:#0296a0"
         points="2183.134,267.28 2185.122,267.58 2187.591,266.879 2188.744,266.53 2190.396,266.339 2191.727,266.98 2192.891,267.292 2194.538,266.936 2195.179,265.603 2195.151,263.784 2194.302,262.475 2192.636,261.674 2191.487,262.188 2190.67,262.862 2189.187,263.051 2188.189,262.736 2187.343,261.591 2185.511,260.794 2184.192,260.979 2182.549,261.667 2182.064,262.335 2181.077,262.682 2180.087,262.863 2179.261,262.876 2178.752,262.057 2178.408,261.236 2176.914,260.929 2175.598,261.28 2174.44,261.298 2173.457,261.81 2172.298,261.828 2171.465,261.345 2170.636,261.193 2169.147,261.216 2167.986,261.069 2167.153,260.586 2165.988,260.108 2165.156,259.791 2163.505,259.982 2162.842,259.992 2162.01,259.509 2160.197,259.868 2160.137,266.649 2162.793,267.269 2166.781,268.529 2169.096,268.493 2171.235,267.798 2172.565,268.272 2174.396,268.906 2175.712,268.554 2176.864,268.205 2178.83,267.017 2180.145,266.5 2181.962,266.472 "
         id="polygon20" />
      <polygon
         style="fill:#bee5ed;stroke:#0296a0"
         points="4073.991,330.507 4072.526,331.119 4070.339,330.995 4068.464,330.771 4066.588,330.755 4063.972,331.878 4061.655,334.464 4061.437,335.817 4060.909,336.542 4060.07,337.16 4059.955,338.41 4060.354,340.29 4061.386,341.55 4062.212,342.495 4063.045,342.503 4064.393,343.452 4065.533,344.087 4066.886,344.411 4068.03,344.63 4068.969,344.639 4070.014,344.335 4071.58,343.827 4072.935,343.839 4074.603,343.854 4076.06,344.179 4077.309,344.503 4078.975,344.622 4080.227,344.424 4081.378,344.121 4082.943,343.51 4083.892,342.685 4084.625,342.169 4085.983,341.765 4087.234,341.775 4089.212,342.001 4091.092,341.704 4093.285,341.099 4096.008,339.663 4097.58,338.635 4098.529,337.392 4099.691,335.526 4100.229,333.759 4100.239,332.508 4100.041,331.359 4099.312,331.145 4097.447,330.087 4095.992,329.448 4092.666,328.481 4090.791,328.36 4088.492,328.966 4086.297,329.468 4084.008,329.343 4082.862,329.125 4080.987,329.004 4078.589,328.983 4076.921,329.177 4074.934,329.993 "
         id="polygon22" />
      <path
         inkscape:connector-curvature="0"
         style="fill:#bee5ed;stroke:#0296a0"
         d="m 4066.66,476.409 0.61,-0.479 0.01,-0.97 -0.36,-0.367 -0.722,-0.613 -1.694,-0.499 c 0,0 -1.818,-0.016 -2.182,-0.02 -0.364,-0.003 -1.214,-0.01 -1.214,-0.01 l -1.578,0.35 c 0,0 -1.215,0.232 -1.578,0.229 -0.364,-0.003 -0.97,-0.008 -0.97,-0.008 l -1.211,-0.375 -1.085,-0.616 -0.481,-0.488 -1.454,-0.013 -1.702,0.591 -2.071,1.073 -1.822,0.47 c 0,0 -1.818,-0.138 -2.425,-0.144 -0.605,-0.005 -1.211,-0.253 -1.211,-0.253 l -1.934,-0.744 -1.691,-0.621 -1.569,-0.741 -1.453,-0.255 -1.335,-0.012 -1.817,-0.016 -1.579,0.35 -1.462,0.715 -1.463,0.958 -0.85,0.113 -1.092,-0.01 -0.848,-0.249 -0.479,-0.49 -0.726,-0.248 -0.726,-0.371 -0.966,-0.493 -1.087,-0.494 -1.209,-0.375 -1.576,-0.014 -3.395,-0.029 -1.583,0.835 -1.584,0.836 -1.096,0.475 -0.732,0.6 -1.091,-0.13 -0.847,-0.129 -0.604,-0.369 -0.482,-0.247 -0.845,-0.371 -1.208,-0.616 -1.45,-0.498 -1.82,-0.016 -1.093,0.232 -1.214,0.232 -0.853,0.477 -0.487,0.239 -0.607,0.237 -0.606,-0.006 -0.725,-0.248 -0.968,-0.494 -2.54,-0.629 -1.213,0.111 -0.728,-0.007 -0.972,0.112 -2.07,0.953 -0.979,1.082 -0.131,1.212 0.598,0.975 1.329,0.497 0.724,0.491 -0.255,1.332 -1.097,0.718 -0.852,0.234 c 0,0 -0.488,0.36 -0.612,0.723 -0.124,0.363 -0.134,1.454 -0.134,1.454 l 0.116,0.607 0.23,1.336 -0.01,0.849 -0.011,1.213 0.842,0.855 0.598,0.976 0.961,1.099 1.088,0.495 1.814,0.258 1.458,-0.229 1.219,-0.838 0.854,-0.478 0.97,0.008 1.334,0.012 1.567,0.862 1.575,0.257 1.332,0.133 1.578,-0.107 0.488,-0.359 1.824,-0.712 1.215,-0.231 1.94,-0.104 1.451,0.497 1.691,0.621 2.904,0.632 1.818,0.138 1.335,-0.109 1.337,-0.353 1.459,-0.473 0.73,-0.357 1.34,-0.594 1.334,0.012 1.689,0.863 2.906,0.632 2.058,0.139 1.938,0.381 2.185,-0.224 1.698,-0.228 1.701,-0.349 0.608,-0.116 0.609,-0.359 1.455,0.013 1.084,0.737 2.056,0.625 1.938,0.26 1.575,0.135 2.304,0.021 0.729,-0.237 1.338,-0.473 0.852,-0.356 0.606,0.005 1.091,0.01 1.33,0.376 0.723,0.49 1.091,0.253 1.458,-0.352 1.578,-0.229 1.102,-1.203 0.247,-0.482 0.01,-0.849 -0.358,-0.73 -0.235,-0.608 -0.481,-0.611 -0.354,-0.852 0.363,-0.239 0.608,0.006 0.365,-0.24 0.733,-0.6 0.132,-1.211 -0.117,-0.486 -0.239,-0.486 -0.963,-0.615 -1.326,-0.982 -0.724,-0.491 0.25,-0.846 0.486,0.004 0.728,-0.114 0.849,0.007 0.606,0.006 1.216,-0.354 1.217,-0.475 0.13,-0.611 z"
         id="path24" />
      <polyline
         style="fill:#bee5ed;stroke:#0296a0"
         points="4889.546,506.15 4885.534,504.922 4878.359,504.285 4871.388,504.552     4864.871,504.606 4857.443,505.086 4847.559,505.052 4839.7,504.846 4829.832,504.139 4819.51,503.644 4808.272,503.798     4800.419,503.368 4790.759,503.339 4781.553,503.099 4770.988,503.271 4761.563,502.8 4755.943,502.877 4749.421,503.156     4744.47,503.477 4738.153,504.435 4732.522,504.96 4728.629,507.779 4727.66,510.45 4726.467,513.115 4727.301,515.608     4729.257,518.131 4732.358,519.785 4740.89,520.009 4751.225,520.055 4765.146,520.419 4780.432,520.146 4792.331,520.458     4804.658,521.678 4816.57,521.541 4828.015,522.065 4835.412,522.708 4843.489,523.145 4856.288,523.479 4863.71,523.225     4876.731,523.565 4883.485,523.069 4888.218,522.519 4890.493,521.454   "
         id="polyline26" />
      <polyline
         style="fill:#bee5ed;stroke:#0296a0"
         points="4952.162,259.937 4950.826,259.67 4949.609,259.526 4947.906,259.375     4946.701,258.623 4944.642,257.855 4943.669,257.838 4942.203,257.935 4940.368,258.268 4938.401,259.209 4936.571,259.299     4934.378,259.261 4932.441,258.496 4931.122,257.254 4930.17,255.896 4929.836,254.062 4930.238,251.997 4931.363,250.432     4932.604,249.234 4934.21,247.922 4937.036,246.63 4938.868,246.418 4941.671,246.467 4944.229,246.634 4945.71,245.562     4947.072,244.246 4949.41,243.067 4951.742,242.133 4953.21,241.915 4954.669,242.062   "
         id="polyline28" />
      <path
         inkscape:connector-curvature="0"
         style="fill:#bee5ed;stroke:#0296a0"
         d="m 4963.795,256.971 c 0.365,0.007 1.568,0.881 1.568,0.881 l 1.704,0.151 1.827,0.032 1.358,-0.951 1.483,-1.193 0.859,-0.351 0.975,0.017 1.941,0.521 1.456,0.391 1.34,0.023 1.343,-0.099 1.596,-0.582 1.592,-0.459 1.34,0.023 1.217,0.144 1.322,1.12 2.307,0.527 0.98,-0.348 1.715,-0.458 0.754,-1.327 0.613,-0.111 1.217,0.021 1.334,0.389 1.805,1.372 1.454,0.513 1.697,0.517 0.973,0.139 1.219,0.021 1.464,-0.096 1.478,-0.828 c 0,0 0.496,-0.479 1.112,-0.833 0.615,-0.355 1.721,-0.823 1.721,-0.823 l 1.594,-0.582 2.198,-0.206 2.181,0.77 1.336,0.267 2.191,0.161 1.469,-0.34 1.719,-0.702 1.473,-0.583 1.706,0.03 2.191,0.16 1.204,0.874 1.464,-0.096 2.563,-0.2 1.483,-1.193 1.112,-0.834 1.351,-0.464 1.214,0.143 0.969,0.383 0.721,0.622 0.967,0.505 1.582,0.149 0.973,0.139 0.613,-0.233 1.225,-0.344 2.211,-0.937 2.571,-0.687 1.599,-0.826 0.863,-0.594 1.702,0.396 0.599,0.498 0.967,0.504 2.189,0.282 1.216,0.143 2.195,0.039 2.198,-0.328 1.725,-1.067 1.73,-1.31 1.592,-0.46 1.098,0.019 2.191,0.16 1.455,0.391 1.208,0.631 2.437,0.042 1.104,-0.347 1.352,-0.586 1.235,-0.954 1.218,0.021 0.609,0.011 0.969,0.382 0.964,0.749 1.333,0.511 0.966,0.382 1.951,0.034 2.687,-0.319 1.232,-0.832 1.717,-0.58 0.733,-0.109 0.609,0.011 1.571,0.759 1.09,0.385 2.317,0.041 1.954,-0.332 1.469,-0.34 0.865,-0.716 1.096,0.141 0.851,0.137 1.949,0.034 2.444,-0.323 3.553,-1.036 1.863,-2.04 0.654,-2.548 -0.812,-2.331 -1.314,-1.485 -2.893,-1.879 -2.303,-0.772 c 0,0 -3.408,-0.303 -3.899,-0.068 -0.491,0.235 -2.078,0.33 -2.078,0.33 l -2.08,0.451 -2.187,-0.404 -1.326,-0.876 -2.301,-0.894 -2.814,0.683 -1.717,0.579 -1.826,-0.154 -1.813,-0.641 -1.935,-1.13 -2.064,-0.402 -2.074,0.086 c 0,0 -3.059,0.677 -3.424,0.671 -0.366,-0.006 -1.348,0.342 -1.348,0.342 l -2.567,0.443 -1.943,-0.4 -1.589,0.216 -1.714,0.458 -1.841,0.7 -1.832,0.211 -1.582,-0.149 -2.062,-0.524 -2.19,-0.16 -2.323,0.325 -1.101,0.225 c 0,0 -2.204,0.571 -2.938,0.68 -0.733,0.109 -1.589,0.216 -1.589,0.216 l -0.604,-0.254 -1.206,-0.752 -1.693,-0.761 -2.193,-0.038 -1.953,0.209 -1.108,0.712 -2.462,1.298 -2.088,0.938 -1.59,0.216 -2.056,-0.889 -1.825,-0.153 -1.951,-0.034 -1.967,0.94 -2.809,0.317 -1.462,-0.026 -0.847,-0.38 -2.059,-0.767 -2.322,0.325 -1.708,0.092 -0.98,0.471 -2.329,0.569 -1.575,-0.515 -2.187,-0.404 -1.584,-0.028 -2.074,0.086 -1.6,0.825 -1.471,0.462 -2.071,-0.036 -1.58,-0.271 -1.942,-0.399 -1.454,-0.513 -1.944,-0.399 -3.537,0.182 -2.089,0.938 -1.729,1.433 -1.724,0.823 -1.949,-0.034 -2.547,-0.776 -1.454,-0.513 -2.554,-0.288 -2.56,-0.045 -1.958,0.453 -2.204,0.571 -1.608,1.313 -2.316,0.081"
         id="path30" />
      <path
         inkscape:connector-curvature="0"
         style="fill:#bee5ed;stroke:#0296a0"
         d="m 5170.93,243.009 -0.83,-0.486 -1.104,0.243 -1.266,0.397 -0.891,0.037 -1.203,-0.126 -0.782,-0.223 -0.942,-0.068 -0.738,0.354 -0.906,0.875 -0.588,0.618 -0.521,-0.061 c 0,0 -0.16,0.154 -0.268,0.309 -0.107,0.156 -0.96,0.927 -0.963,1.136 0,0.209 -0.711,1.716 -0.711,1.716 l -0.589,0.88 c 0,0 -0.382,0.623 -0.384,0.78 0,0.157 -0.594,1.038 -0.594,1.038 l -0.495,1.301 -0.069,0.942 -0.014,0.838 -0.018,0.942 0.52,0.324 1.041,0.332 0.788,-0.091 1.161,-0.503 0.786,0.014 c 0,0 0.527,-0.2 0.731,0.118 0.204,0.317 0.666,0.85 0.713,1.113 0.049,0.263 0.346,1.264 0.346,1.264 l 0.882,0.486 0.942,0.017 1.152,0.02 1.011,-0.716 1.262,-0.397 0.998,-0.14 0.981,0.855 0.876,0.801 1.038,0.542 0.732,0.013 0.74,-0.301 0.482,-0.62 0.628,0.011 0.887,0.277 0.933,0.592 1.143,0.492 0.68,0.116 c 0,0 0.523,0.062 0.683,-0.092 0.159,-0.155 1.166,-0.766 1.166,-0.766 l 0.583,-0.356 1.205,0.021 0.733,0.17 1.572,-0.234 c 0,0 0.683,-0.093 0.896,-0.246 0.211,-0.153 0.637,-0.513 0.85,-0.719 0.214,-0.206 0.754,-1.14 0.862,-1.347 0.111,-0.208 0.874,-2.08 0.874,-2.08 l 0.196,-2.145 c 0,0 0.073,-1.204 0.024,-1.414 -0.05,-0.21 -0.714,-1.166 -0.714,-1.166 l -0.463,-0.479 -1.085,-0.91 -0.781,-0.275 -1.199,-0.335 -1.256,-0.074 -0.359,-0.425 -0.568,-0.43 -0.938,-0.331 -0.411,-0.269 -0.841,-0.067 -1.047,-0.019 c 0,0 -0.316,0.099 -0.525,0.096 -0.21,-0.004 -0.992,-0.227 -0.992,-0.227 l -0.619,-0.534 c 0,0 -0.152,-0.265 -0.307,-0.425 -0.154,-0.16 -0.938,-0.331 -0.938,-0.331 l -0.731,0.04 -1.527,0.288 -1.093,-0.386 -0.827,-0.594 z"
         id="path32" />
      <path
         inkscape:connector-curvature="0"
         style="fill:#bee5ed;stroke:#0296a0"
         d="m 5325.565,227.205 -2.271,-0.284 -2.516,-0.125 -2.771,0.359 c 0,0 -1.478,0.949 -1.645,1.19 -0.168,0.241 -1.9,1.754 -1.9,1.754 l -0.92,1.446 -0.438,1.862 0.857,2.046 1.52,1.408 1.614,0.597 1.78,0.438 1.787,0.031 1.47,-0.381 1.466,-0.137 0.976,-0.064 0.975,0.017 0.961,0.83 1.435,1.569 1.278,1.241 1.453,0.594 1.299,0.104 1.059,-0.144 1.961,-0.616 1.226,-0.385 1.056,0.018 1.46,0.188 1.452,0.594 1.373,0.512 2.518,0.044 1.71,-0.214 1.481,-1.031 0.259,-0.889 0.991,-0.876 1.142,-0.224 2.031,0.035 1.876,-0.455 1.967,-0.94 1.897,-1.593 0.453,-2.673 -0.441,-2.689 -1.676,-1.736 -1.69,-0.923 -2.107,-0.28 -1.625,-0.028 -1.385,0.138 -1.39,0.545 -1.217,-0.103 -0.889,-0.34 -1.121,-0.995 -1.12,-0.914 -1.699,-0.436 -1.461,-0.107 -1.876,0.374 c 0,0 -0.662,0.639 -0.747,0.881 -0.085,0.242 -0.331,0.4 -0.331,0.4 l -1.219,-0.021 -0.558,-0.497 -0.802,-0.827 -0.805,-0.42 -1.54,-0.271 -0.979,0.308 -0.5,0.641 -0.493,0.317 -0.497,0.56 -0.901,0.472 -0.572,0.152 -1.143,0.305 -1.538,-0.352 z"
         id="path34" />
      <path
         inkscape:connector-curvature="0"
         style="fill:#bee5ed;stroke:#0296a0"
         d="m 5088.331,368.604 -0.808,-0.258 -0.955,-1.154 -1.782,-0.355 -2.106,-0.362 -1.88,0.618 -2.622,1.254 -1.404,1.275 -0.672,1.289 -0.121,2.272 0.367,2.2 0.946,1.724 1.349,1.812 1.84,1.657 1.697,0.517 1.624,0.11 2.192,0.12 0.818,-0.312 0.975,0.017 1.285,0.836 1.358,1.323 0.634,0.905 0.639,0.661 0.889,0.34 0.975,0.017 1.384,-0.137 0.99,-0.877 0.903,-0.554 1.146,-0.468 1.532,0.678 1.039,0.992 1.607,1.004 1.532,0.677 2.109,0.199 1.545,-0.055 1.969,-1.021 1.48,-1.03 c 0,0 0.59,-1.209 0.676,-1.451 0.085,-0.242 0.362,-2.188 0.362,-2.188 l 0.05,-2.844 -1.502,-2.383 -1.683,-1.248 -1.696,-0.761 -1.296,-0.186 -1.212,-0.427 -0.962,-0.668 -1.763,-1.492 -0.393,-0.82 -1.129,-0.508 -1.948,-0.115 -0.976,0.146 -1.309,0.383 -1.139,0.062 -0.645,-0.337 -0.561,-0.496 -0.477,-0.578 -0.479,-0.496 -1.052,-0.262 -1.054,-0.181 -1.139,0.062 -1.147,0.874 z"
         id="path36" />
      <polyline
         style="fill:#bee5ed;stroke:#0296a0"
         points="4889.102,506.104 4890.392,506.719 4891.912,507.691 4893.66,509.141     4894.575,510.931 4895.503,512.129 4895.571,514.851 4894.701,517.318 4893.727,518.957 4892.764,519.887 4890.494,521.147     4889.305,521.6   "
         id="polyline38" />
      <path
         inkscape:connector-curvature="0"
         style="fill:#bee5ed;stroke:#0296a0;stroke-linecap:round;stroke-linejoin:round"
         d="m 5583.296,502.804 -0.292,-1.371 -0.532,-1.805 -1.314,-1.321 -1.336,-0.728 -1.014,-0.205 -1.328,-0.897 -1.588,-0.821 -1.014,-0.119 -1.028,0.133 -0.854,0.141 -1.17,-0.636 -1.656,-1.164 -1.184,-0.297 -1.441,-0.135 -1.371,0.292 -0.952,0.478 -1.204,0.383 -1.514,-0.478 -0.979,-1.225 -1.326,-0.982 -1.096,-0.293 -1.368,0.207 -1.307,0.891 -0.958,0.646 -0.854,0.057 -1.098,-0.209 -0.91,-0.713 -0.844,-0.198 -1.195,0.127 -0.958,0.648 -0.953,0.477 -0.934,-0.033 -0.776,0.313 -0.362,0.667 -0.208,1.098 0.211,1.199 0.732,0.962 0.744,0.621 1.335,0.728 0.917,0.542 0.479,0.867 0.216,1.112 0.812,1.135 0.825,0.709 1.008,0.376 1.022,-0.051 0.773,-0.228 0.437,-0.325 0.946,-0.307 0.598,-0.064 0.668,0.364 0.652,0.788 0.983,1.055 1.254,0.639 1.014,0.206 0.853,-0.056 0.521,-0.322 0.434,-0.239 0.438,-0.325 0.345,-0.158 0.51,0.019 0.586,0.275 0.75,0.452 0.649,0.872 0.913,0.628 0.924,0.372 1.101,0.123 0.601,-0.148 0.439,-0.41 0.183,-0.335 0.682,-0.06 0.765,0.026 0.838,0.368 0.922,0.373 0.51,0.019 0.52,-0.237 0.779,-0.397 0.6,-0.15 0.68,0.023 1.093,0.38 0.583,0.36 c 0,0 0.34,0.012 0.595,0.021 0.255,0.009 0.509,0.018 0.509,0.018 l 0.522,-0.322 0.532,-0.577 0.801,-1.077 0.461,-1.005 0.36,-0.583 0.293,-1.184 z"
         id="path40" />
      <path
         inkscape:connector-curvature="0"
         style="fill:#bee5ed;stroke:#0296a0;stroke-linecap:round;stroke-linejoin:round"
         d="m 5712.144,502.965 -0.995,-0.715 -1.095,-0.293 -1.017,-0.121 -1.368,0.208 -1.365,0.123 -1.094,-0.294 -1.416,-0.901 -1.936,-0.577 -1.199,0.213 -1.204,0.384 -1.049,0.813 -1.37,0.294 -1.184,-0.213 -1.696,-0.144 -1.623,0.199 -1.471,0.713 -1.226,0.979 -0.812,1.332 -0.296,1.181 -0.045,1.273 0.365,1.714 0.969,1.479 1.075,0.889 1.515,0.479 0.852,0.029 1.195,-0.213 1.355,0.132 1.26,0.469 1.939,0.494 1.444,0.051 1.799,-0.363 0.958,-0.646 0.949,-0.393 1.441,0.136 1.692,0.229 1.699,0.06 c 0,0 0.851,0.029 1.107,-0.047 0.258,-0.075 1.653,-1.048 1.653,-1.048 l 0.717,-1.08 0.575,-1.852 0.232,-1.777 -0.374,-1.459 -0.553,-1.21 -0.403,-0.527 z"
         id="path42" />
      <polygon
         style="fill:#bee5ed"
         points="6580.234,554.654 6582.494,553.318 6585.971,551.314 6588.61,547.919 6589.198,543.802 6588.736,540.696 6587.919,538.445 6585.218,535.302 6580.794,532.644 6575.987,531.871 6576.304,523.619 6580.086,524.03 6583.336,524.946 6589.137,527.628 6591.521,529.046 6593.886,531.496 6595.728,534.453 6596.532,537.563 6597.148,541.703 6596.914,545.312 6596.16,549.084 6594.385,552.149 6593.137,554.708 6590.688,557.074 6587.378,559.598 6584.424,561.093 6579.76,562.216 6575.279,562.654 6569.609,562.211 6565.496,561.279 6562.086,559.499 6559.21,556.868 6557.201,553.565 6555.734,548.895 6555.115,544.927 6555.552,539.601 6556.818,536.01 6558.605,532.256 6562.111,528.532 6565.768,526.016 6569.229,524.873 6572.339,524.065 6575.27,523.774 6574.962,531.51 6569.598,533.309 6566.984,535.155 6564.706,537.524 6563.628,540.43 6563.244,542.487 6563.189,545.583 6564.503,549.219 6566.174,552.001 6569.236,553.947 6573.862,555.061 6577.128,555.289 "
         id="polygon44" />
      <polygon
         style="fill:#bee5ed"
         points="6574.781,532.022 6575.987,531.871 6576.304,523.619 6575.27,523.774 "
         id="polygon46" />
      <polygon
         style="fill:none;stroke:#0296a0"
         points="6588.61,547.919 6588.84,544.655 6588.736,540.696 6587.919,538.445 6586.238,536.009 6583.178,533.89 6580.794,532.644 6577.878,532.077 6574.781,532.022 6572.544,532.155 6569.078,533.472 6565.59,536.163 6564.17,538.719 6563.244,542.487 6563.189,545.583 6564.503,549.219 6566.174,552.001 6570.779,554.317 6574.553,554.9 6578.85,555.147 6583.011,553.327 6587.018,550.472 "
         id="polygon48" />
      <polygon
         style="fill:none;stroke:#0296a0"
         points="6556.872,552.698 6558.531,556.169 6561.235,558.968 6563.105,560.205 6566.01,561.46 6569.609,562.211 6573.211,562.79 6577.518,562.521 6580.622,562.06 6583.389,561.247 6586.684,559.756 6589.635,558.261 6591.551,556.917 6593.137,554.708 6595.437,551.135 6596.344,548.398 6596.923,544.796 6597.157,541.188 6596.523,538.08 6596.049,535.663 6594.886,533.406 6593.378,531.143 6591.521,529.046 6589.137,527.628 6586.578,526.379 6584.019,525.131 6580.766,524.213 6577.852,523.646 6574.065,523.753 6570.783,524.556 6567.152,525.524 6564.719,527.03 6562.111,528.532 6560.184,530.563 6558.421,532.942 6556.639,536.523 6556.078,539.094 6555.513,541.838 6555.115,544.927 6556.069,549.417 "
         id="polygon50" />
      <polyline
         style="fill:#bee5ed"
         points="6573.865,525.297 6578.669,526.241 6578.429,530.021 6573.604,530.454 6573.686,525.811       "
         id="polyline52" />
      <polygon
         style="fill:#bee5ed;stroke:#0296a0"
         points="7420.619,378.459 7419.514,380.863 7417.301,382.37 7414.592,382.908 7410.432,382.451 7407.156,381.322 7403.865,380.889 7400.669,380.197 7396.78,379.225 7391.878,377.445 7388.432,376.051 7385.695,374.328 7383.731,372.973 7381.411,371.955 7379.015,370.502 7378.009,369.085 7377.192,367.064 7377.169,364.717 7377.743,362.646 7379.514,361.388 7382.829,360.953 7385.964,360.773 7389.269,360.687 7394.647,361.088 7398.544,361.712 7402.858,362.868 7406.979,364.889 7410.154,366.449 7413.059,368.438 7415.448,370.152 7417.571,372.033 7419.866,374.006 7420.42,376.106 "
         id="polygon54" />
      <polygon
         style="fill:#bee5ed;stroke:#0296a0"
         points="7640.719,549.364 7639.021,548.345 7637.613,547.633 7635.901,547.138 7633.06,546.839 7631.186,546.79 7629.836,546.829 7627.952,547.155 7626.89,547.577 7625.45,548.139 7623.504,548.014 7621.538,548.637 7619.482,549.783 7618.327,550.952 7617.925,551.992 7617.347,554.002 7618.109,556.422 7619.348,557.804 7620.74,559.041 7622.738,560.068 7624.829,560.423 7626.544,560.842 7628.044,560.957 7630.283,561.24 7633.599,560.652 7637.008,559.316 7638.831,558.389 7640.75,556.789 7641.924,554.87 7642.282,552.63 7641.956,550.747 "
         id="polygon56"
         transform="translate(5.1781759,0)" />
    </g>
  </g>
</svg>
