<?xml version="1.0" encoding="UTF-8" standalone="no"?>
<!-- Created with Inkscape (http://www.inkscape.org/) -->

<svg
   xmlns:dc="http://purl.org/dc/elements/1.1/"
   xmlns:cc="http://creativecommons.org/ns#"
   xmlns:rdf="http://www.w3.org/1999/02/22-rdf-syntax-ns#"
   xmlns:svg="http://www.w3.org/2000/svg"
   xmlns="http://www.w3.org/2000/svg"
   xmlns:sodipodi="http://sodipodi.sourceforge.net/DTD/sodipodi-0.dtd"
   xmlns:inkscape="http://www.inkscape.org/namespaces/inkscape"
   version="1.1"
   width="681.13281"
   height="60.163372"
   id="svg4242"
   style="enable-background:new"
   inkscape:version="0.48+devel r9873 custom"
   sodipodi:docname="mountainsbrownfill.svg">
  <metadata
     id="metadata1283">
    <rdf:RDF>
      <cc:Work
         rdf:about="">
        <dc:format>image/svg+xml</dc:format>
        <dc:type
           rdf:resource="http://purl.org/dc/dcmitype/StillImage" />
        <dc:title />
      </cc:Work>
    </rdf:RDF>
  </metadata>
  <sodipodi:namedview
     pagecolor="#ffffff"
     bordercolor="#666666"
     borderopacity="1"
     objecttolerance="10"
     gridtolerance="10"
     guidetolerance="10"
     inkscape:pageopacity="0"
     inkscape:pageshadow="2"
     inkscape:window-width="2560"
     inkscape:window-height="1300"
     id="namedview1281"
     showgrid="false"
     inkscape:zoom="3.5220738"
     inkscape:cx="295.13862"
     inkscape:cy="30.081686"
     inkscape:window-x="0"
     inkscape:window-y="0"
     inkscape:window-maximized="0"
     inkscape:current-layer="svg4242" />
  <defs
     id="defs1282" />
  <g
     transform="matrix(0.05786179,0,0,0.05786381,-11.318451,-5.4914967)"
     id="Mountains">
    <g
       id="Mountains_x2C__Brown_Fill">
      <path
         inkscape:connector-curvature="0"
         style="fill:#8c5426;stroke:#8c5426"
         d="m 782.011,334.325 -2.429,-3.176 -2.304,0.088 -1.108,1.196 -0.568,0.214 -0.961,0.037 -1.427,-2.061 -0.627,-1.322 -0.775,-0.162 -1.92,0.074 -0.879,2.148 -1.53,0.252 -1.173,-0.533 -2.016,-2.422 -0.223,-0.761 -2.148,-0.879 -1.123,0.812 -1.278,1.781 c -0.767,0.029 -3.516,-1.404 -3.516,-1.404 l -1.388,-1.1 -1.167,-0.34 -2.113,0.08 c 0,0 -0.589,-0.361 -1.152,0.045 -0.56,0.406 -2.068,1.233 -2.068,1.233 l -0.737,0.798 4.46,0.982 12.622,3.169 7.955,1.81 4.239,0.222 2.497,-0.096 2.874,-0.303"
         id="path6" />
      <path
         inkscape:connector-curvature="0"
         style="fill:#8c5426;stroke:#8c5426"
         d="m 924.004,305.762 -4.458,-1.756 -2.308,-0.106 c 0,0 -0.779,-0.205 -1.525,0.099 -0.747,0.304 -0.747,0.304 -0.747,0.304 l -2.323,-0.36 -1.831,-0.648 -0.765,0.048 -0.763,0.05 -1.492,0.607 -1.954,1.403 -1.306,-0.425 -2.151,-1.65 -0.796,-0.459 -2.034,0.131 -0.953,1.083 -1.173,1.609 -2.257,0.657 -2.726,-2.634 -1.864,-1.158 -2.068,-0.377 -1.748,0.624 -0.632,2.085 -1.51,0.354 -2.069,-0.377 -1.863,-1.158 -3.818,0.248 -2.872,2.996 9.735,0.393 7.938,0.254 8.447,0.22 6.871,-0.444 6.361,-0.411 6.345,-0.666 4.309,-0.536 z"
         id="path8" />
      <polygon
         style="fill:#8c5426;stroke:#8c5426"
         points="1513.167,254.205 1511.973,254.197 1510.824,254.867 1510.555,255.992 1509.245,255.481 1508.67,257.136 1507.956,257.949 1507.714,256.857 1506.612,256.929 1505.777,255.875 1503.72,255.667 1502.257,255.421 1500.4,255.711 1498.806,256.07 1497.617,257.425 1497.54,258.877 1495.293,259.705 1494.899,258.878 1495.049,257.25 1494.02,257.146 1492.775,257.653 1492.72,256.805 1491.246,256.389 1489.519,257.352 1488.333,257.429 1486.923,258.031 1485.178,260.018 1484.09,260.344 1482.655,260.522 1482.975,258.883 1482.172,258.338 1480.86,259.105 1480.55,258.273 1478.09,258.432 1477.384,258.052 1476.183,259.237 1474.842,259.579 1473.906,260.917 1472.656,261.339 1472.816,263.799 1481.361,262.906 1492.519,261.587 1502.559,260.086 1504.838,259.769 1507.721,259.582 1512.179,258.698 1515.741,258.467 1517.68,258.172 1517.45,254.609 1516.474,253.991 1514.772,254.016 1513.735,255.105 "
         id="polygon10" />
      <path
         inkscape:connector-curvature="0"
         style="fill:#8c5426;stroke:#8c5426"
         d="m 1518.725,255.859 1.795,-0.028 1.769,-1.598 2.678,-0.939 2.467,-0.039 2.482,0.858 2.492,1.531 6.241,-2.565 0.67,-0.235 0.676,0.214 2.037,1.089 1.79,-0.252 2.671,-1.388 3.346,-1.174 2.019,-0.032 3.372,0.396 1.136,0.879 1.363,1.101 1.794,-0.028 1.325,-1.367 1.994,-1.602 3.13,-0.722 1.809,0.869 0.918,1.332 1.125,0.207 1.784,-0.701 1.994,-1.602 2.464,-0.263 2.036,1.089 1.591,1.321 2.248,0.189 1.341,-0.246 5.136,-1.651 2.011,-0.48 2.466,-0.039 1.143,1.328 1.798,0.196 2.674,-1.164 3.788,-1.63 2.25,0.413 1.375,1.773 1.125,0.207 0.893,-0.238 c 0,0 1.994,-1.602 2.667,-1.612 0.673,-0.01 4.25,-0.74 4.25,-0.74 l 1.361,0.876 1.595,1.545 2.478,0.634 2.901,-0.942 2.235,-0.484 2.699,0.406 c 0,0 0.684,0.662 0.918,1.332 0.235,0.669 1.367,1.325 1.367,1.325 l 2.916,-0.046 1.99,-1.826 3.585,-0.281 1.591,1.322 0.688,0.886 c 0,0 -0.449,0.007 0.669,-0.235 1.118,-0.242 2.445,-1.385 3.342,-1.399 0.898,-0.014 3.366,-0.053 3.366,-0.053 0,0 2.015,-0.256 2.474,0.41 0.459,0.667 1.594,1.546 1.594,1.546 l 2.254,0.637 4.005,-2.082 2.916,-0.046 c 0,0 2.688,-0.268 2.699,0.406 0.01,0.673 0.025,1.57 1.147,1.553 1.121,-0.018 1.121,-0.018 1.121,-0.018 0,0 1.549,-1.37 2.881,-2.289 1.332,-0.918 2.893,-1.616 2.893,-1.616 0,0 0.886,-0.688 1.563,-0.473 0.676,0.214 3.375,0.62 3.375,0.62 l 1.146,1.553 c 0,0 -0.229,-0.222 1.104,-1.14 1.332,-0.918 4.895,-2.544 4.895,-2.544 l 1.553,-1.146 3.14,-0.049 2.038,1.089 4.215,-2.983 1.118,-0.242 2.468,-0.039 2.926,0.627 c 0,0 2.446,-1.385 2.66,-2.062 0.214,-0.676 3.098,-2.741 3.098,-2.741 l 2.467,-0.039 1.584,0.873 0.677,0.213 2.687,-0.266 1.762,-2.047 2.233,-0.708 1.57,-0.025 1.802,0.42 0.9,0.21 1.331,-0.918 1.98,-2.499 3.567,-1.402 2.468,-0.039 0.907,0.659 2.022,0.192 2.895,-1.391 3.807,-0.509 3.588,-0.056 3.365,-0.053 5.152,-0.53 -9.155,2.836 -10.036,3.748 -11.39,3.32 -14.072,4.035 -14.526,3.593 -9.603,2.844 -13.419,2.678 -15.911,1.147 -10.777,-0.503 -7.638,-0.553 -6.743,-0.792 -6.287,-0.35 -4.732,-1.271 -4.935,0.078 -3.129,0.722 -6.275,0.323 -16.385,-0.416 -14.583,0.005 -15.477,0.243 -9.855,1.052 -10.991,0.172 -9.626,1.273 -10.311,0.61"
         id="path12" />
      <path
         inkscape:connector-curvature="0"
         style="fill:#8c5426;stroke:#8c5426"
         d="m 2147.643,230.499 -3.831,-1.062 -4.272,-0.606 -1.988,2.05 -0.663,0.684 -1.353,-0.428 -1.574,-0.199 -1.569,0.024 -2.443,1.609 -1.108,0.915 -2.474,-0.409 -1.353,-0.428 c 0,0 -1.579,-0.648 -2.466,0.039 -0.887,0.687 -3.566,1.626 -3.566,1.626 l -1.523,2.94 -3.154,-0.847 -1.364,-1.102 -2.464,0.264 c 0,0 -2.453,0.936 -2.667,1.612 -0.214,0.676 -0.652,1.356 -0.652,1.356 l -2.262,-1.086 -2.923,-0.403 c 0,0 -0.457,-0.667 -1.346,0.021 -0.886,0.687 -1.544,1.595 -1.544,1.595 l -3.131,0.723 -3.166,-1.521 c 0,0 -2.46,0.487 -3.125,0.946 -0.667,0.459 -1.99,1.826 -1.99,1.826 l -0.438,0.68 -1.129,-0.431 -1.353,-0.428 c 0,0 -3.821,-0.388 -4.258,0.292 -0.438,0.68 -2.874,2.738 -2.874,2.738 l -0.214,0.676 -1.57,0.024 c 0,0 -0.7,-1.784 -1.822,-1.766 -1.121,0.018 -4.264,-0.157 -4.702,0.523 -0.439,0.68 -0.428,1.352 -1.091,2.036 -0.661,0.684 -0.661,0.684 -1.327,1.143 -0.667,0.459 -2.461,0.488 -2.461,0.488 l -1.58,-0.648 c 0,0 -0.692,-1.111 -2.464,0.263 -1.773,1.374 -0.891,0.463 -2.888,1.84 -1.997,1.377 -2.446,1.384 -2.446,1.384 l -1.587,-1.097 -1.573,-0.2 c 0,0 -1.796,0.029 -2.233,0.708 -0.437,0.68 -1.317,1.815 -1.317,1.815 l -1.115,0.466 c 0,0 -1.136,-0.879 -2.033,-0.865 -0.897,0.014 -3.14,0.049 -3.14,0.049 l -2.008,0.705 -2.218,1.605 -1.112,0.69 -1.573,-0.2 -2.468,0.039 -2.691,0.042 -1.991,1.826 -0.88,1.135 -2.242,0.036 c 0,0 -0.458,-0.666 -1.355,-0.652 -0.898,0.014 -2.692,0.042 -2.692,0.042 l -2.232,0.708 -0.655,1.132 -2.237,0.484 c 0,0 -0.231,-0.445 -0.904,-0.435 -0.673,0.01 -3.588,0.056 -3.588,0.056 l -2.008,0.705 -1.097,1.588 -1.122,0.018 -1.364,-1.1 c 0,0 -1.573,-0.2 -2.246,-0.189 -0.673,0.011 -2.691,0.042 -2.691,0.042 l -0.646,1.805 -0.882,0.911 c 0,0 -1.563,0.473 -2.471,-0.186 -0.907,-0.659 -1.815,-1.317 -2.489,-1.307 -0.672,0.011 -3.585,0.281 -3.794,1.182 -0.21,0.901 -1.296,3.161 -1.296,3.161 l -1.553,1.146 12.076,-2.434 10.756,-0.842 9.838,-2.174 10.069,-1.729 8.272,-1.925 10.505,-2.409 11.856,-2.206 5.362,-1.43 5.354,-1.879 6.259,-1.445 9.169,-1.938 8.488,-2.377 8.717,-2.156 8.286,-1.027 8.277,-1.476 12.298,-2.661 12.732,-3.566 1.777,-1.144 z"
         id="path14" />
      <path
         inkscape:connector-curvature="0"
         style="fill:#8c5426;stroke:#8c5426"
         d="m 1891.85,466.279 1.867,-2.25 1.729,-0.979 1.743,-0.186 1.759,0.924 1.76,0.924 0.794,0.146 0.778,-0.963 1.246,-1.446 2.527,-0.675 1.273,0.296 1.289,1.25 1.282,0.772 1.425,-0.182 0.606,-1.754 1.577,-0.658 1.425,-0.182 1.902,-0.03 0.486,0.627 1.605,1.244 0.635,-0.01 0.947,-0.173 c 0,0 0.939,-0.811 1.411,-1.134 0.47,-0.324 2.365,-0.83 2.365,-0.83 l 1.112,-0.018 2.868,0.907 0.336,1.104 1.267,-0.02 1.257,-0.812 1.888,-0.981 1.256,-0.812 2.215,-0.354 1.75,0.291 0.65,1.1 0.957,0.302 1.726,-1.137 1.895,-0.665 2.058,-0.19 1.27,-0.021 0.648,0.783 0.484,0.627 0.482,0.31 1.739,-0.344 c 0,0 1.726,-1.139 2.199,-1.305 0.474,-0.165 3,-0.84 3,-0.84 l 2.065,0.126 c 0,0 0.332,0.946 0.498,1.42 0.167,0.474 0.649,0.941 1.125,0.935 0.476,-0.008 1.582,-0.185 1.582,-0.185 l 1.574,-0.817 3.163,-0.684 0,0 c 0,0 0.33,0.787 0.495,1.261 0.167,0.475 0.168,0.633 0.803,0.622 0.634,-0.01 3.311,-1.321 3.311,-1.321 0,0 0.31,-0.48 0.949,-0.173 0.639,0.307 -0.01,-0.315 1.749,0.29 1.754,0.605 2.546,0.594 2.546,0.594 0,0 0.792,-0.012 1.286,1.091 0.495,1.102 0.82,1.572 0.988,2.205 0.167,0.632 0.167,0.632 0.167,0.632 l -4.918,-0.082 -2.858,-0.272 -5.4,-0.391 c 0,0 -6.343,0.1 -7.138,-0.046 -0.795,-0.147 -7.614,-0.04 -7.614,-0.04 0,0 -5.391,0.085 -6.66,0.104 -1.269,0.021 -7.294,0.273 -7.93,0.125 -0.637,-0.148 -9.669,0.311 -9.669,0.311 l -8.876,0.457 -6.977,0.268 c 0,0 -4.915,0.077 -5.549,0.088 -0.635,0.01 -9.982,0.632 -9.982,0.632 l -2.218,0.194 z"
         id="path16" />
      <path
         inkscape:connector-curvature="0"
         style="fill:#8c5426;stroke:#8c5426"
         d="m 2292.199,266.807 -0.279,-2.229 -2.508,-2.09 -1.672,-0.14 -1.673,0.418 -0.417,0.418 -0.836,0.418 -1.115,-1.393 -1.811,-1.672 -3.344,-0.14 -1.533,0.836 -0.697,0.836 c 0,0 0.14,0.279 -0.278,0.418 -0.418,0.139 -0.418,0.139 -0.418,0.139 l -2.089,-0.418 -1.115,-1.812 -3.065,-0.139 c 0,0 -1.95,0 -2.368,0.279 -0.418,0.278 -2.229,1.115 -2.229,1.533 0,0.418 -0.418,1.532 -0.418,1.532 l 3.483,-0.139 h 2.926 3.762 l 3.482,0.697 4.599,0.697 4.041,0.836 2.229,0.139 3.343,0.976 z"
         id="path18" />
      <path
         inkscape:connector-curvature="0"
         style="fill:#8c5426;stroke:#8c5426"
         d="m 2337.674,355.575 3.726,0.799 1.331,-1.863 2.927,-0.798 3.459,1.862 1.597,1.064 h 1.597 l 1.33,-1.597 h 2.128 1.597 l 1.863,1.331 1.064,1.33 2.395,-1.064 2.395,-1.33 h 0.798 l 1.863,0.266 2.395,1.597 0.799,0.267 2.128,-1.064 1.064,-1.064 0.798,-0.267 1.331,-0.266 4.258,0.532 0.531,1.064 1.065,-0.532 2.928,-1.064 h 1.063 c 0,0 0.798,0.267 0.798,1.064 0,0.797 0.798,1.064 0.798,1.064 l 0.799,0.532 2.395,-1.597 1.064,-1.597 1.331,-0.267 1.065,0.532 c 0,0 0.797,0.266 1.064,1.064 0.266,0.799 2.661,1.597 2.661,1.597 h 2.927 l 2.395,-3.193 h 2.396 c 0,0 0,-0.267 1.064,0.532 1.065,0.799 2.662,1.064 2.662,1.064 l 2.129,0.532 1.863,-0.266 3.193,-1.331 0.798,-0.798 h 2.395 l 2.661,0.532 3.727,0.532 2.128,-1.064 2.394,-1.597 c 0,0 1.065,-1.064 2.928,0 1.862,1.064 1.862,1.064 1.862,1.064 l 3.193,1.862 c 0,0 0.533,0.798 1.331,-0.532 0.798,-1.33 1.596,-2.661 1.596,-2.661 l 1.598,-0.798 c 0,0 3.193,-0.798 3.193,0 0,0.798 1.862,3.459 1.862,3.459 1.332,0.532 2.927,0.267 2.927,0.267 l 3.46,-1.863 c 0,0 1.331,-1.33 2.129,-1.33 0.797,0 3.46,0.266 3.46,0.266 l 1.065,2.129 1.861,0.267 2.928,-1.331 3.726,-1.064 1.33,0.533 1.864,1.063 1.063,0.532 1.065,0.267 3.991,-1.064 3.193,-0.798 2.129,0.266 1.331,0.798 1.33,1.331 1.065,0.266 3.458,-0.266 2.663,-1.597 c 0,0 0.797,-0.799 1.595,-0.267 0.798,0.532 3.727,1.331 3.727,1.331 l 2.129,1.33 2.128,-1.33 c 0,0 1.065,-0.267 1.863,-0.267 0.797,0 2.926,0 2.926,0 h 1.331 l 1.331,0.799 1.597,1.064 1.863,-0.267 3.193,-1.064 1.33,-1.33 h 2.663 c 0,0 1.862,0.267 2.395,1.064 0.532,0.798 0.532,0.798 0.532,0.798 0,0 0,0.533 1.332,0.267 1.33,-0.267 3.991,-1.597 3.991,-1.597 l 0.797,-1.064 c 0,0 0,-0.532 1.065,0 1.064,0.532 2.928,0.532 2.928,0.532 l 1.063,0.798 2.929,0.799 2.129,-1.597 2.659,-2.129 h 4.258 l 2.663,1.064 1.595,1.064 h 1.064 l 1.598,-1.064 2.129,-1.064 2.927,0.267 1.597,1.596 3.727,1.064 1.064,-1.862 1.33,-0.532 1.596,-0.266 2.928,0.266 2.395,1.597 h 2.396 v 2.395 l -22.355,0.267 -28.473,0.798 -25.547,0.799 -20.758,-0.799 -24.482,-0.798 -23.949,0.266 -21.556,1.863 -15.7,0.798 -14.637,0.267 -15.169,-0.267 h -14.635 l -10.113,-0.266 -1.065,0.266"
         id="path20" />
      <polygon
         style="fill:#8c5426;stroke:#8c5426"
         points="3100.583,260.313 3099.915,260.646 3098.583,261.146 3097.583,261.979 3097.249,262.646 3099.583,262.479 3103.249,262.479 3108.083,261.979 3112.415,261.813 3116.749,261.479 3119.583,261.146 3121.14,260.324 3116.917,257.274 3114.571,257.51 3113.583,258.646 3112.415,259.813 3111.415,259.313 3110.249,258.313 3108.915,258.146 3107.583,258.146 3106.583,258.979 3105.583,260.146 3104.249,260.813 3102.415,260.646 3101.583,260.313 "
         id="polygon22" />
      <path
         inkscape:connector-curvature="0"
         style="fill:#8c5426;stroke:#8c5426"
         d="m 3127.583,256.813 3,-0.5 2,-1.5 2.332,-0.834 h 1.834 l 1.166,0.834 0.834,0.166 c 0,0 0.666,-0.166 1.166,-0.666 0.5,-0.5 1.668,-2 1.668,-2 h 2.332 l 1.5,0.666 1.168,0.5 c 0,0 0.5,-1 1.666,-0.834 1.166,0.168 2,1.334 2,1.334 h 1 l 0.166,1.166 -0.166,1 h -1.166 l -0.668,-0.5 -3.166,0.168 -3,0.332 -3.166,0.334 -5.668,0.334 h -3.166 -3.666 z"
         id="path24" />
      <path
         inkscape:connector-curvature="0"
         style="fill:#8c5426;stroke:#8c5426"
         d="m 3155.083,253.646 0.832,-1.666 1.334,-1.334 2.5,-1 h 2 l 0.334,0.834 0.5,0.5 0.5,-0.334 0.832,-1.332 2.168,-0.334 c 0,0 0.666,-0.334 1.166,0 0.5,0.334 1.834,0.166 1.834,0.666 0,0.5 0,0.5 0,0.5 l 1.332,0.334 1.5,-1.166 h 1.834 l 1.166,0.5 0.334,0.5 0.5,0.666 v 0.5 h -2 l -2.5,0.334 -2,0.5 -2.166,0.166 -2.334,0.334 h -3.334 l -1.5,0.332 -1.5,0.334 -3.332,0.166 z"
         id="path26" />
      <path
         inkscape:connector-curvature="0"
         style="fill:#8c5426;stroke:#8c5426"
         d="m 3506.582,416.479 -2.333,-1.167 -2.167,-0.166 -1.833,0.666 -1.333,2.334 -0.834,1.166 -1.666,-0.5 -0.834,-1.166 h -3.166 l -0.667,1.666 -0.667,1.834 -1.5,-0.5 -2,0.333 c 0,0 -1.666,-0.167 -1.833,0.333 -0.167,0.5 -1.333,0.834 -1.5,1.334 -0.167,0.5 -1.667,2.166 -1.667,2.166 l -0.166,1 6.833,-2.166 5.167,-1.167 3.5,-1.333 3.5,-2 5.166,-2.667 z"
         id="path28" />
      <path
         inkscape:connector-curvature="0"
         style="fill:#8c5426;stroke:#8c5426"
         d="m 3240.415,383.479 -3,-2.334 h -3 c 0,0 -1.333,0.168 -1.833,0.834 -0.5,0.666 -1.333,1.166 -1.333,1.166 l -0.834,-1.333 c 0,0 -0.666,-0.833 -1.666,-0.833 -1,0 -2,-0.334 -2.667,0.166 -0.667,0.5 -1.833,1.167 -1.833,1.167 l -1.167,1 c 0,0 -0.5,-1.5 -1,-1.5 -0.5,0 -1.833,-0.167 -1.833,-0.167 h -2.667 l -2.333,1.334 -2.667,2 6.667,0.166 7.666,0.334 5.834,-0.667 7.666,-1.333 z"
         id="path30" />
      <path
         inkscape:connector-curvature="0"
         style="fill:#8c5426;stroke:#8c5426"
         d="m 3124.749,393.312 -1.334,-1.167 -2.5,-1.666 -2.666,1.166 -0.834,0.667 -1.833,-0.167 -0.833,-1.666 -1.667,-0.667 -1.833,0.167 c 0,0 -1,0.333 -1.667,0.833 -0.667,0.5 -1.667,0.667 -1.667,0.667 l -1.5,-0.5 -1,-1.667 h -2.666 l -1,-0.333 -3.334,-0.167 -1.833,0.833 -1.167,0.667 -1.666,-1.167 -1.167,-1.833 h -1 -2.167 l -2.333,0.167 -2.333,0.333 -0.667,0.5 c 0,0 -0.333,-0.834 -0.833,-1.167 -0.5,-0.333 -1,-0.499 -1.5,-0.666 -0.5,-0.167 -1.334,-0.334 -2.667,-0.334 -1.333,0 -3.667,-0.332 -4.333,-0.166 -0.667,0.166 -1.834,0.166 -1.834,0.166 l -1.666,-1.166 c 0,0 -0.834,-1.834 -1.834,-1.834 -1,0 -2.166,-0.166 -2.166,-0.166 0,0 -1.5,-0.334 -2,-0.334 -0.5,0 -3.5,0 -3.667,0.5 -0.167,0.5 -0.499,1.166 -1.167,0.5 -0.666,-0.666 -1.5,-1.666 -1.5,-1.666 l -1.666,-0.667 c 0,0 -2.667,-0.334 -3.167,-0.167 -0.5,0.167 -1.833,0.167 -2.667,0.667 -0.833,0.5 -2.5,0.833 -2.5,0.833 l -1.166,-1 -1.667,-1.5 h -2.167 l -1.5,-1.333 h -2.666 c 0,0 -1.167,0.667 -1.667,1 -0.5,0.333 -0.833,1.167 -1.333,0.667 -0.5,-0.5 -0.834,-1.666 -1.5,-2 -0.667,-0.334 -0.5,-1.166 -1.834,-1 -1.333,0.166 -1.666,-0.167 -2.666,0.333 -1,0.5 -2.5,1.167 -2.5,1.167 l -2.167,-1.834 -1.5,-1 h -3.5 l -1.833,1.334 -1.5,0.666 c 0,0 -1.334,-1.834 -1.834,-2 -0.5,-0.166 -4.833,-1.5 -4.833,-1.5 0,0 -1,0.001 -1.5,0.834 -0.5,0.833 -1.333,1.333 -1.333,1.333 l -1.834,0.167 -0.666,-1.167 c 0,0 -1.5,-1.333 -2,-1.333 -0.5,0 -3.334,0 -3.334,0 l -1.833,1.833 -1.167,-0.5 c 0,0 -1.166,-1 -1.666,-1 -0.5,0 -2.334,0 -2.334,0 l -2.666,0.333 -1.834,1.5 16.167,1.5 7.833,0.667 11.167,1.667 10.167,1.333 c 0,0 11.166,1.166 11.666,1.333 0.5,0.167 11.5,2 11.5,2 l 8.5,1.334 6,1.5 c 0,0 6.667,1.166 7.167,1.333 0.5,0.167 7.167,1.5 7.167,1.5 l 8,1.167 6.833,0.5 8.5,1.5 5.333,0.333 h 3.334 l 6.5,-1 z"
         id="path32" />
      <path
         inkscape:connector-curvature="0"
         style="fill:#8c5426;stroke:#8c5426"
         d="m 3216.499,340.979 7.5,-3 7.25,4 7.25,-4 6.75,4.25 7,-4.5 4.75,3.5 6.25,-2.75 5.25,3 3.25,-3.25 8.25,2.75 6.5,-4.25 5.5,4 6.25,-5.25 6.5,5.5 6.75,-4.75 9.75,2 8.75,-4.25 7.5,5.5 4.5,-4.75 7.25,3.75 6.25,-4.25 5,3.5 5.5,-4.25 7.5,4.75 4.5,-4.5 7.75,4.5 7,-5.75 7,5.5 6,-4.75 5.5,5.5 6,-5.75 7,5.75 10.75,-3 7,4.5 8.25,-3.75 6.5,4.25 8.75,-4 6.25,5.25 8.5,-3 7.25,5 11.75,-1.25 5,1.75 -1,3.75 -14,-1.25 -10,-2.75 -8,-0.25 -9.25,-1.25 -8,-0.5 -11.75,-0.25 -12.25,-1.5 -8.75,0.25 c 0,0 -9.75,-0.25 -11.75,-0.25 -2,0 -11.5,0 -12.75,0 -1.25,0 -13,0 -13,0 l -17.75,-0.5 -14.5,0.75 c 0,0 -8,0 -9.75,0 -1.75,0 -8.5,-0.25 -8.5,-0.25 h -15.25 l -20.5,1.75 -16,0.75 -17.5,0.25 -20.75,-0.25 -14.5,1 -8,0.25"
         id="path34" />
      <polygon
         style="fill:#8c5426;stroke:#8c5426"
         points="3689.786,237.803 3686.866,232.993 3680.017,234.756 3675.951,230.62 3669.787,232.161 3664.807,228.473 3660.234,230.255 3658.443,226.822 3653.638,229.059 3649.127,224.007 3642.719,227.369 3639.115,222.553 3633.62,225.694 3630.005,222.245 3624.279,225.613 3619.753,222.156 3615.182,223.939 3609.287,220.698 3604.707,223.392 3599.029,221.292 3594.225,223.756 3590.375,220.988 3583.048,225.253 3589.424,225.536 3598.085,225.156 3609.239,226.165 3619.49,226.254 3629.735,227.027 3642.479,228.733 3654.76,231.118 3667.721,233.965 3679.539,237.258 3689.998,239.627 3702.955,242.93 3712.963,244.84 3722.295,245.833 3730.268,245.902 3736.874,245.96 3746.895,246.275 3756.69,246.361 3764.66,246.658 3767.168,246.68 3764.231,243.693 3760.801,245.258 3758.551,242.048 3751.918,244.952 3747.622,241.27 3742.58,244.643 3737.604,240.499 3730.97,243.63 3724.628,239.474 3715.032,242.58 3710.295,237.298 3700.695,240.86 3697.773,236.278 "
         id="polygon36" />
      <polygon
         style="fill:#8c5426;stroke:#8c5426"
         points="4123.167,309.705 4118.579,313.31 4127.909,314.531 4139.523,315.088 4145.899,315.372 4141.149,311.457 4134.981,313.453 4131.814,310.92 4126.337,312.011 "
         id="polygon38" />
      <path
         inkscape:connector-curvature="0"
         style="fill:#8c5426;stroke:#8c5426"
         d="m 3633.722,344.392 -2.02,-3.435 -2.263,-1.843 -4.328,-0.038 -0.688,0.45 -0.206,-2.509 -2.044,-0.701 c 0,0 -1.142,0.219 -1.824,0.213 -0.684,-0.007 -2.516,1.117 -2.516,1.117 l 4.529,3.001 6.58,3.019 3.179,1.395 1.601,-0.669 z"
         id="path40" />
      <polygon
         style="fill:#8c5426;stroke:#8c5426"
         points="3616.828,426.717 3617.275,427.632 3612.932,429.416 3607.452,430.735 3602.434,431.603 3596.965,431.784 3598.583,429.064 3602.248,426.818 3604.753,426.84 3606.565,427.994 3606.787,428.68 3608.169,426.869 3609.776,425.517 3611.824,425.762 3613.42,425.775 "
         id="polygon42" />
      <polygon
         style="fill:#8c5426;stroke:#8c5426"
         points="4134.669,401.392 4133.085,400.238 4130.815,399.308 4129.213,399.977 4129.227,398.383 4127.411,397.684 4125.815,397.896 4124.664,399.254 4123.536,397.877 4120.804,397.853 4118.73,400.113 4123.056,400.835 4126.699,401.094 4131.253,401.362 "
         id="polygon44" />
      <polygon
         style="fill:#8c5426;stroke:#8c5426"
         points="4129.501,419.345 4131.545,420.046 4132.22,420.963 4133.37,419.834 4134.743,419.162 4137.93,419.418 4140.42,421.262 4138.134,422.153 4134.482,422.805 4129.697,422.991 4125.368,422.953 4122.633,423.158 4117.631,421.975 4115.815,421.275 4117.648,419.925 4120.842,419.496 4122.435,419.739 4123.562,420.888 4124.711,419.986 4127.451,419.326 "
         id="polygon46" />
      <path
         inkscape:connector-curvature="0"
         style="fill:#8c5426;stroke:#8c5426"
         d="m 3898.985,492.742 -2.489,-2.072 -2.05,-0.018 -2.059,0.894 -1.832,1.122 -0.915,0.448 -2.25,-3.209 -2.051,-0.018 -1.83,0.895 -1.612,2.037 -0.903,-0.919 -1.814,-0.927 -2.282,0.435 -1.606,1.354 -0.695,1.361 -0.689,0.677 -1.133,-0.692 -2.729,-0.48 -1.141,-0.01 c 0,0 -1.361,-0.469 -1.595,0.214 -0.234,0.682 -1.162,2.268 -1.162,2.268 l -1.372,0.899 4.558,-0.188 7.756,-1.072 9.122,-1.059 7.525,-0.846 5.248,-1.094 z"
         id="path48" />
      <polygon
         style="fill:#8c5426;stroke:#8c5426"
         points="4451.188,229.212 4458.143,226.507 4461.867,228.381 4469.704,225.922 4475.614,229.186 4482.148,225.582 4487.416,227.94 4493.699,225.44 4498.738,228.015 4506.371,224.883 4511.404,227.68 4518.365,224.753 4522.284,227.743 4527.919,224.56 4532.725,227.572 4539.941,223.32 4545.606,227.465 4550.593,223.599 4554.488,227.476 4560.578,223.861 4566.688,228.017 4570.128,223.889 4572.497,226.615 4574.811,223.123 4578.057,226.317 4583.23,223.787 4586.039,226.748 4591.446,223.781 4593.374,226.496 4598.77,223.972 4600.703,226.466 4603.424,224.316 4607.547,227.978 4609.352,226.915 4613.047,229.898 4608.383,229.998 4602.39,229.841 4591.739,229.562 4580.416,229.487 4570.203,229.442 4559.324,229.379 4550.873,229.824 4543.762,230.082 4534.861,230.737 4524.859,231.142 4517.536,230.95 4507.078,231.786 4493.098,231.419 4487.982,231.73 4480.438,231.533 4472.653,231.995 4464.662,231.786 4455.343,231.542 4445.135,231.274 4435.81,231.252 4430.051,230.657 4423.389,230.705 4414.285,230.688 4403.826,231.525 4393.602,231.923 4383.403,231.212 4375.416,231.003 4370.529,231.097 4361.882,230.648 4371.792,225.357 4375.238,229.444 4379.797,224.9 4387.027,228.642 4395.781,225.097 4401.669,229.248 4408.23,224.535 4414.336,228.913 4423.32,224.93 4425.902,228.106 4432.861,225.18 4437.908,227.532 4444.197,224.81 "
         id="polygon50" />
      <polygon
         style="fill:#8c5426;stroke:#8c5426"
         points="4543.515,281.814 4540.088,285.5 4534.375,283.13 4529.794,288.561 4533.57,288.438 4541.799,287.987 4548.035,287.262 4554.061,286.088 4558.312,284.867 4551.059,282.012 4547.182,285.908 "
         id="polygon52" />
      <path
         inkscape:connector-curvature="0"
         style="fill:#8c5426;stroke:#8c5426"
         d="m 4847.84,320.205 -5.004,-3.906 c 0,0 -2.417,-0.951 -3.317,-0.531 -0.898,0.422 -3.813,1.455 -3.813,1.455 l -3.259,-2.75 -3.544,-0.314 -4,0.117 -0.923,1.308 -1.278,-2.032 -4.878,-0.35 -2.235,0.607 -2.914,1.034 7.954,1.54 8.613,1.78 7.756,0.647 4.863,0.794 5.979,0.601 z"
         id="path54" />
      <path
         inkscape:connector-curvature="0"
         style="fill:#8c5426;stroke:#8c5426"
         d="m 4708.416,378.729 -2.599,-2.511 c 0,0 -1.542,-0.484 -2.002,0.17 -0.462,0.654 -1.355,0.853 -1.355,0.853 l -1.706,-2.71 -3.533,-0.758 -1.588,1.29 -3.363,1.245 -1.325,-0.257 -0.841,-1.799 -1.741,-1.378 -3.328,-0.087 -1.595,1.513 -1.155,1.746 -2.417,-0.951 -2.594,-2.733 -3.562,0.351 -1.8,0.842 -2.044,1.723 -1.763,-0.49 c 0,0 -1.501,-2.038 -2.167,-2.055 -0.665,-0.018 -3.545,-0.315 -3.545,-0.315 l -2.686,0.817 -1.589,1.291 c 0,0 -0.887,-0.023 -1.757,-0.712 -0.87,-0.689 -3.931,-2.545 -3.931,-2.545 0,0 -0.432,-0.456 -1.109,-0.029 -0.677,0.426 -2.457,0.603 -2.92,1.255 -0.461,0.654 -1.366,1.297 -1.366,1.297 l -1.343,0.409 -1.291,-1.588 -2.832,-2.073 -2.664,-0.069 c 0,0 -0.665,-0.018 -1.588,1.29 -0.922,1.309 0.188,1.338 -0.922,1.309 -1.11,-0.029 -2.885,-0.075 -2.885,-0.075 0,0 -0.631,-1.349 -1.057,-2.026 -0.427,-0.678 -2.161,-2.277 -2.161,-2.277 0,0 -1.981,-0.717 -2.664,-0.069 -0.683,0.648 0.235,-0.438 -0.683,0.648 -0.917,1.087 -0.223,-0.005 -0.917,1.087 -0.694,1.091 -1.588,1.289 -1.588,1.289 l -2.207,-0.501 -1.944,-2.05 c 0,0 -1.326,-0.256 -1.997,-0.052 -0.672,0.204 -2.237,0.606 -2.237,0.606 l -1.378,1.741 -1.752,-0.935 c 0,0 -1.085,-0.916 -1.74,-1.377 -0.654,-0.461 -2.634,-1.18 -2.634,-1.18 l -2.884,-0.076 -2.039,1.502 -2.002,0.17 c 0,0 -0.872,-0.689 -1.525,-1.15 -0.653,-0.461 -2.61,-2.066 -2.61,-2.066 l -2.219,-0.059 -1.997,-0.053 c 0,0 -0.673,0.205 -1.35,0.631 -0.674,0.426 -1.798,0.842 -1.798,0.842 l -0.887,-0.023 -1.298,-1.367 -1.513,-1.594 -2.2,-0.725 -1.788,0.398 -1.139,1.08 -0.683,0.648 -1.775,-0.047 c 0,0 0.471,-1.098 -0.182,-1.559 -0.653,-0.461 -1.302,-1.145 -1.302,-1.145 l -2.429,-0.508 c 0,0 -1.315,-0.7 -1.776,-0.047 -0.461,0.654 -0.916,1.087 -0.916,1.087 l -1.35,0.631 -1.331,-0.035 -1.518,-1.372 -2.862,-0.963 c 0,0 -2.202,-0.724 -3.107,-0.082 -0.904,0.643 -3.585,1.238 -3.585,1.238 l -2.032,1.279 7.516,1.308 9.735,1.365 11.937,2.089 14.166,1.703 11.067,1.4 17.507,1.347 15.295,1.067 13.74,1.025 14.405,1.043 15.072,1.061 13.74,1.027 7.782,-0.24 z"
         id="path56" />
      <polygon
         style="fill:#8c5426;stroke:#8c5426"
         points="4878.523,420.613 4880.049,421.953 4881.868,422.001 4884.228,421.282 4885.788,421.323 4887.347,421.363 4887.805,423.717 4887.758,425.536 4865.453,423.132 4869.934,420.907 4874.905,419.737 "
         id="polygon58" />
      <polyline
         style="fill:#8c5426;stroke:#8c5426"
         points="4889.301,505.684 4885.695,504.289 4881.283,503.914 4875.3,504.017     4868.535,504.1 4859.424,504.382 4851.087,504.943 4844.336,504.507 4834.466,503.988 4826.942,503.271 4822.011,502.882     4816.278,503.252 4807.694,503.287 4801.977,503.138 4797.565,502.762 4787.935,503.029 4780.397,502.832 4770.521,502.573     4763.504,502.39 4754.14,502.404 4746.582,502.987 4738.23,504.068 4734.066,504.221 4731.713,504.679 4728.525,507.195     4726.898,509.754 4725.497,513.618 4726.975,516.778 4728.486,518.639 4731.311,520.013 4740.142,520.504 4748.198,520.715     4760.407,521.296 4773.676,521.122 4782.787,520.842 4791.104,521.06 4799.407,521.796 4808.498,522.294 4819.688,522.067     4828.265,522.292 4838.634,523.604 4845.651,523.788 4849.291,523.762 4853.455,523.732 4861.253,523.937 4869.051,524.141     4877.895,524.111 4883.619,524.001 4887.291,522.797 4889.919,521.826 4889.789,526.765 4885.96,524.062 4884.036,527.914     4879.933,525.726 4874.68,527.669 4865.65,524.831 4859.628,526.494 4859.14,525.182 4853.641,526.598 4848.75,524.649     4840.331,528.33 4834.975,524.289 4831.029,526.005 4826.678,523.291 4820.632,525.733 4819.12,523.873 4813.102,525.276     4806.651,523.286 4800.598,525.989 4792.623,522.659 4782.672,525.26 4775.989,522.224 4768.644,524.633 4758.555,522.548     4755.1,525.318 4746.879,521.461 4736.366,525.607 4730.224,521.806 4728.124,522.531 4725.3,521.156 4726.66,518.851     4722.248,518.476 4719.779,513.469 4722.999,509.652 4721.747,507.799 4726.72,506.629 4730.822,498.934 4739.325,502.017     4743.586,498.228 4748.818,497.064 4756.526,500.646 4765.192,497.493 4773.428,500.829 4783.666,497.196 4789.81,500.998     4801.066,498.172 4807.756,500.948 4813.516,499.538 4816.08,500.906 4821.319,499.482 4824.397,501.124 4827.858,498.094     4830.656,500.508 4833.59,497.723 4839.445,502.558 4846.544,499.623 4853.22,502.918 4862.693,498.745 4866.756,502.493     4872.85,498.231 4874.895,499.585 4879.354,498.141 4881.612,501.321 4885.571,499.084 4889.683,501.013   "
         id="polyline60" />
      <polygon
         style="fill:#8c5426;stroke:#8c5426"
         points="5293.481,298.895 5291.429,297.474 5288.65,297.887 5286.294,300.616 5285.192,297.596 5283.816,297.11 5281.969,297.078 5280.326,298.665 5277.988,300.24 5282.581,301.706 5287.651,302.256 5292.259,302.798 5295.264,302.62 "
         id="polygon62" />
      <path
         inkscape:connector-curvature="0"
         style="fill:#8c5426;stroke:#8c5426"
         d="m 5330.351,303.001 0.519,-3.224 -0.659,-1.858 -1.84,-0.494 -2.309,-0.04 -2.563,1.341 -0.931,0.445 c 0,0 0.234,-0.226 -0.211,-1.158 -0.445,-0.931 -1.344,-2.332 -1.344,-2.332 l -2.535,-0.275 -2.567,1.572 -0.955,1.83 -0.486,1.377 3.689,0.295 3.231,0.057 4.139,0.995 4.822,1.469 z"
         id="path64" />
      <path
         inkscape:connector-curvature="0"
         style="fill:#8c5426;stroke:#8c5426"
         d="m 5339.178,299.923 3.275,-2.482 2.316,-0.421 1.134,1.174 c 0,0 0.22,0.696 0.904,1.17 0.684,0.473 1.606,0.489 1.606,0.489 l 1.396,-0.667 0.706,-0.681 1.849,-0.199 c 0,0 1.146,0.481 1.596,1.183 0.45,0.7 2.499,2.352 2.499,2.352 l 0.199,1.851 -2.312,0.19 -2.753,-0.971 -5.516,-1.482 -6.899,-1.506 z"
         id="path66" />
      <polygon
         style="fill:#8c5426;stroke:#8c5426"
         points="5389.867,305.888 5394.003,307.113 5395.856,306.685 5395.197,304.826 5394.074,302.959 5393.169,302.021 5390.863,301.749 5389.698,302.421 5388.3,303.089 5386.915,303.065 5384.169,301.863 5383.947,301.167 5382.109,300.672 5380.716,301.11 5378.598,303.382 5383.651,304.855 "
         id="polygon68" />
      <path
         inkscape:connector-curvature="0"
         style="fill:#8c5426;stroke:#8c5426"
         d="m 5076.014,350.97 3.273,-2.252 1.619,-0.202 1.611,0.259 c 0,0 0.912,0.708 1.13,1.405 0.219,0.696 0.66,1.857 0.66,1.857 l 0.923,0.017 1.397,-0.667 2.097,-1.119 1.621,-0.203 c 0,0 0.926,-0.213 1.137,0.944 0.211,1.157 0.188,2.542 0.637,3.243 0.449,0.701 1.36,1.41 1.36,1.41 l 2.308,0.039 2.118,-2.271 c 0,0 4.394,-0.385 4.612,0.312 0.218,0.697 0.203,1.619 0.409,3.009 0.206,1.389 1.579,2.105 1.579,2.105 l 3.021,-1.102 c 0,0 0.967,-2.523 1.66,-2.512 0.691,0.013 2.092,-0.887 3.461,0.061 1.369,0.948 3.406,3.292 3.406,3.292 l 2.09,-0.655 -0.203,-1.621 0.041,-2.307 2.084,-0.426 2.078,0.036 2.284,1.425 1.624,-0.434 0.721,-1.604 0.955,-1.83 1.153,0.02 0.685,0.475 0.903,1.17 c 1.154,0.02 2.77,0.048 2.77,0.048 l 0.726,-1.835 0.04,-2.307 1.425,-2.285 3.463,0.061 3.421,2.369 c 0,0 1.171,-0.902 1.413,-1.592 0.242,-0.688 1.701,-4.818 1.701,-4.818 l 2.537,0.044 c 0,0 1.625,-0.433 2.07,0.498 0.445,0.931 0.445,0.931 0.445,0.931 l 1.834,0.725 1.426,-2.283 1.434,-2.746 c 0,0 0.926,-0.214 1.62,-0.201 0.691,0.012 4.153,0.071 4.375,0.768 0.216,0.697 1.815,1.648 1.815,1.648 0,0 0.701,-0.449 1.175,-1.135 0.474,-0.684 2.138,-3.425 2.138,-3.425 0,0 0.021,-1.154 1.174,-1.134 1.157,0.02 -0.453,-0.471 2.082,-0.195 2.534,0.275 3.68,0.757 3.68,0.757 l 2.527,0.737 0.729,-2.065 0.268,-2.073 3.017,-0.871 1.616,0.029 2.053,1.42 1.611,0.26 c 0,0 1.664,-2.742 2.587,-2.727 0.924,0.017 0.923,0.017 1.847,0.033 0.924,0.016 -0.206,-1.39 1.616,0.027 1.822,1.418 2.304,0.271 3.202,1.673 0.899,1.401 1.588,1.644 1.588,1.644 l -2.77,-0.048 c 0,0 -4.167,0.62 -5.094,0.835 -0.928,0.214 -7.191,1.952 -7.191,1.952 l -5.576,1.98 -6.271,2.199 -11.14,3.269 -8.601,3.312 -8.365,3.087 -8.613,4.005 -6.964,2.188 -6.042,2.204 -6.252,1.045 -7.154,-0.125 -4.617,-0.081 -7.568,-2.902 -6.892,-1.967 -5.276,-1.939 -5.493,-2.868 z"
         id="path70" />
      <path
         inkscape:connector-curvature="0"
         style="fill:#8c5426;stroke:#8c5426"
         d="m 5074.294,370.334 0.042,-2.539 -0.656,-2.09 -2.302,-0.271 -3.709,0.859 -0.886,-2.324 -0.68,-0.705 -2.527,-0.736 -1.393,0.438 -1.871,1.353 -1.83,-0.956 -1.125,-1.635 -1.373,-0.717 c 0,0 -1.369,-0.947 -2.078,-0.037 -0.708,0.912 -0.708,0.912 -0.708,0.912 l -1.847,-0.033 -1.361,-1.408 c 0,0 -1.834,-0.725 -2.534,-0.275 -0.7,0.45 -1.64,1.357 -1.64,1.357 l -2.117,2.271 3,0.053 3.47,-0.171 3,0.052 5.047,1.705 5.515,1.48 5.516,1.482 5.047,1.935 z"
         id="path72" />
      <polyline
         style="fill:#8c5426;stroke:#8c5426"
         points="4888.236,421.341 4889.387,421.592 4890.289,422.763 4890.967,423.697     4892.132,423.025 4893.748,423.053 4897.201,423.574 4898.544,426.139 4895.995,426.556 4893.456,426.512 4889.071,426.435   "
         id="polyline74" />
      <path
         inkscape:connector-curvature="0"
         style="fill:#8c5426;stroke:#8c5426"
         d="m 5115.65,487.417 0.959,-2.062 3.028,-1.562 4.147,0.533 c 0.473,-0.684 0.732,-2.296 0.732,-2.296 l 1.623,-0.433 4.159,-0.159 3.896,1.685 0.947,-1.368 1.66,-2.511 3.461,0.061 2.504,2.121 1.866,-1.122 0.968,-2.522 3.693,0.064 2.283,1.425 c 0,0 0.916,0.479 0.928,-0.214 0.012,-0.693 1.204,-2.75 1.204,-2.75 l 2.322,-0.883 c 0,0 1.851,-0.198 2.069,0.498 0.218,0.696 2.276,1.886 2.276,1.886 l 2.073,0.268 0.497,-2.068 1.421,-2.055 c 0,0 2.086,-0.426 3.001,0.052 0.915,0.479 1.604,0.723 2.511,1.662 0.906,0.938 0.906,0.938 0.906,0.938 l 1.852,-0.198 0.263,-1.844 1.884,-2.044 3.461,0.061 2.037,2.344 1.377,0.486 0.943,-1.139 1.421,-2.053 c 0,0 1.632,-0.896 3.001,0.052 1.369,0.948 0.238,-0.457 1.369,0.948 1.129,1.404 2.955,2.591 2.955,2.591 l 1.852,-0.198 2.81,-2.26 2.09,-0.656 c 0,0 1.647,-1.817 2.538,0.045 0.891,1.861 -0.011,0.691 0.891,1.861 0.904,1.171 2.057,1.422 2.057,1.422 l 2.545,-0.418 2.307,0.041 0.916,0.478 c 0,0 1.157,-0.209 1.373,0.718 0.215,0.927 0.887,2.093 0.887,2.093 0,0 0.23,0.003 0.207,1.389 -0.024,1.385 0,0.231 -0.024,1.385 -0.02,1.154 -0.71,1.142 -0.71,1.142 l -1.153,-0.251 -1.126,-1.635 -1.81,-2.11 -2.069,-0.498 -2.527,-0.736 -0.914,-0.478 -0.916,-0.478 -2.992,-0.514 -6.248,0.813 -3.458,-0.291 -5.078,0.142 -6.256,1.046 -9.025,1.228 -8.791,1.002 -5.567,1.518 -8.564,1.236 -9.734,2.139 -7.868,1.018 -7.409,1.256 -3.931,0.159 z"
         id="path76" />
      <polygon
         style="fill:#8c5426;stroke:#8c5426"
         points="4928.545,505.195 4932.855,509.659 4937.1,508.596 4942.228,512.748 4934.571,513.752 4930.326,514.814 4924.46,515.851 4919.073,517.057 4913.031,518.739 4905.357,520.718 4898.015,522.378 4889.526,524.505 4890.064,521.589 4894.497,519.065 4896.35,515.359 4896.571,511.951 4894.191,508.659 4889.861,505.333 4889.277,501.585 4893.846,500.526 4896.605,500.737 4901.061,506.179 4903.809,507.038 4911.676,503.275 4918.229,509.566 "
         id="polygon78" />
      <path
         inkscape:connector-curvature="0"
         style="fill:#8c5426;stroke:#8c5426"
         d="m 6173.872,327.834 -1.42,-3.341 c 0,0 -1.526,-0.272 -2.19,-0.076 -0.665,0.196 -2.206,0.362 -2.206,0.362 l -1.72,-0.938 -1.694,-1.813 -2.841,-0.318 -1.179,2.371 -1.578,1.262 -1.717,-1.156 -2.129,-1.83 -2.379,-0.961 -2.856,0.12 -1.384,1.926 -2.409,-0.084 -1.842,-3.793 -2.168,-0.734 -1.55,0.385 -0.71,1.511 -1.322,0.173 -1.934,-1.165 -1.473,-1.806 -2.191,-0.077 c 0,0 0.211,0.227 -0.703,1.292 -0.914,1.065 -0.914,1.064 -0.914,1.064 l -0.892,0.408 -2.983,-2.517 -1.949,-0.727 -3.724,-0.13 -3.831,2.938 6.972,1.341 9.594,1.65 7.834,1.81 9.829,1.22 8.748,0.744 12.911,0.889 z"
         id="path80" />
      <path
         inkscape:connector-curvature="0"
         style="fill:#8c5426;stroke:#8c5426"
         d="m 5999.095,351.345 -1.254,-1.799 -1.503,-0.93 -1.534,-0.054 -1.775,0.596 -1.595,1.699 -0.89,0.408 -3.259,-0.992 -1.222,-2.675 -2.832,-0.537 -1.312,-0.046 c 0,0 -0.684,0.635 -0.925,1.284 -0.241,0.649 -0.7,1.292 -0.7,1.292 l -0.666,0.195 -1.301,-0.484 -2.771,-2.289 -2.396,-0.523 c 0,0 -1.512,-0.711 -2.214,0.58 -0.703,1.293 -2.283,2.553 -2.283,2.553 l -2.198,0.143 -3.005,-1.859 -1.927,-1.383 -3.506,-0.123 -1.64,3.014 -0.478,1.08 -2.417,0.135 -2.583,-1.406 c 0,0 -2.176,-0.514 -2.434,0.574 -0.257,1.088 -1.437,3.459 -1.437,3.459 l -2.199,0.143 -2.172,-0.516 c 0,0 -1.725,-0.938 -2.193,-0.076 -0.468,0.862 -1.588,1.48 -2.057,2.342 -0.469,0.862 -2.306,3.21 -2.306,3.21 l -1.103,0.181 -4.375,-0.372 -1.092,-0.038 c 0,0 -0.903,0.627 -1.152,1.495 -0.25,0.869 -0.984,3.036 -0.984,3.036 l -2.002,0.809 -3.515,0.096 -2.214,0.582 -1.821,1.91 -0.515,2.176 -0.907,0.845 -1.737,-0.499 -3.717,-0.35 c 0,0 -1.759,0.158 -2.002,0.808 -0.242,0.649 -2.095,3.437 -2.095,3.437 0,0 1.276,1.143 1.246,2.019 -0.031,0.876 -0.484,1.3 -1.142,1.276 -0.656,-0.023 -2.401,-0.305 -2.401,-0.305 l -1.104,0.182 -2.01,1.026 -0.908,0.847 -0.271,1.525 c 0,0 0.416,0.672 -0.056,1.533 -0.469,0.861 -0.469,0.861 -0.469,0.861 l -2.871,0.559 -3.271,-0.554 c 0,0 -0.219,-0.007 -0.68,0.635 -0.462,0.642 -2.041,1.903 -2.279,2.552 -0.246,0.65 -0.723,1.73 -0.723,1.73 l -2.86,0.338 -2.366,-1.398 -2.396,-0.521 -2.932,2.311 -0.724,1.948 -0.926,1.284 -2.191,-0.076 -2.764,-2.51 -0.656,-0.023 -1.361,1.27 c 0,0 -1.142,1.275 -1.821,1.91 -0.68,0.634 -1.134,1.057 -1.134,1.057 l -0.657,-0.022 -2.138,-1.61 -2.342,-2.057 -1.955,-0.506 -1.987,0.369 -2.095,3.437 -2.848,-0.1 -1.442,-2.683 -2.833,-0.537 -1.6,1.918 -2.271,2.114 c 0,0 -1.11,0.399 -1.526,-0.272 -0.412,-0.673 -0.142,-2.198 -1.011,-2.449 -0.869,-0.249 -2.817,-0.975 -2.817,-0.975 l -4.844,0.488 -0.976,2.818 -1.556,0.603 -1.5,-0.93 -1.703,-1.595 -1.761,0.158 -2.036,1.902 -0.919,1.065 -2.395,-0.522 -1.457,-2.244 -3.943,-0.139 -0.977,2.818 -2.018,1.245 -2.272,-4.027 -2.363,-1.399 -3.544,0.974 c 0,0 -0.915,1.064 -1.375,1.706 -0.462,0.643 -2.237,1.238 -2.237,1.238 l -1.064,-0.914 -0.581,-2.214 -1.511,-0.711 -3.725,-0.13 -1.775,0.596 c 0,0 0.634,0.68 -0.727,1.949 -1.36,1.269 -2.242,1.457 -2.242,1.457 l -1.929,-1.384 -2.112,-2.267 -4.384,-0.153 -1.359,1.269 -1.603,1.918 -1.3,-0.484 -2.341,-2.056 -1.94,-0.944 c 0,0 -2.168,-0.734 -2.638,0.127 -0.47,0.861 -1.572,1.041 -1.821,1.91 -0.25,0.869 -0.25,0.869 -0.25,0.869 l -2.833,-0.537 -2.333,-2.275 -1.746,-0.281 c 0,0 -1.76,0.159 -2.01,1.027 -0.25,0.868 -1.164,1.934 -1.164,1.934 l -0.868,-0.25 -2.749,-2.947 -1.744,-0.281 c 0,0 -1.126,0.839 -1.584,1.48 -0.465,0.643 -1.592,1.48 -1.592,1.48 0,0 -0.672,0.416 -1.088,-0.258 -0.414,-0.672 -1.253,-1.799 -1.253,-1.799 l -2.841,-0.318 c 0,0 -0.884,0.188 -1.353,1.05 -0.468,0.86 -0.937,1.723 -0.937,1.723 l -1.754,-0.062 -1.238,-2.236 -0.641,-0.461 -1.526,-0.273 -1.792,1.033 -0.877,-0.029 -1.026,-2.01 -0.8,-2.223 -1.473,-1.806 -3.747,0.526 -1.189,-3.551 -3.65,-2.32 -2.198,0.143 c 0,0 -1.308,-0.266 -1.285,-0.922 0.023,-0.658 0.134,-3.725 0.134,-3.725 l -1.233,-2.457 -1.941,-0.945 -0.899,0.627 -1.376,1.707 -1.33,0.393 -1.941,-0.945 -0.941,-4.42 -2.794,-1.634 -1.534,-0.054 -1.392,2.146 -1.073,-0.697 -0.625,-0.898 -4.085,-2.336 -2.458,1.23 -1.367,1.486 3.475,1 6.496,2.42 5.362,3.479 4.916,3.681 5.341,4.136 6.872,4.188 4.655,4.988 2.127,1.829 7.637,1.145 12.73,-0.214 22.112,1.211 13.356,0.686 15.345,0.316 12.3,-0.447 13.16,0.021 10.565,-0.947 9.863,0.125 7.026,-0.192 11.183,0.17 9.936,-1.846 11.533,-3.546 8.016,-3.449 6.332,-5.481 6.047,-3.52 4.981,-4.432 6.763,-5.248 6.237,-2.634 8.014,-3.449 7.814,-3.896 5.576,-2.656 9.951,-2.285 8.34,-0.146 8.317,0.51 6.112,0.871 5.458,0.849 6.791,0.237 5.036,0.176"
         id="path82" />
      <path
         inkscape:connector-curvature="0"
         style="fill:#8c5426;stroke:#8c5426"
         d="m 5700.187,355.385 6.503,2.201 5.447,1.066 4.978,1.93 3.452,1.655 2.938,3.832 c 0,0 2.106,2.487 2.076,3.363 -0.031,0.876 0.081,3.95 0.081,3.95 l 0.308,3.74 0.332,3.083 1.261,1.579 0.588,1.994 1.354,-1.049 1.345,-0.83 0.538,-2.833 c 0,0 0.533,-2.613 -0.339,-2.863 -0.869,-0.251 -1.711,-1.157 -1.711,-1.157 l -1.469,-2.025 0.893,-0.407 c 0,0 0.891,-0.407 1.159,-1.714 0.261,-1.307 0.353,-3.937 0.353,-3.937 l -0.791,-2.44 c 0,0 -0.83,-1.346 -1.487,-1.369 -0.657,-0.022 -1.769,0.377 -1.769,0.377 l -0.889,0.408 c 0,0 0.035,-1.096 0.059,-1.753 0.024,-0.657 -0.128,-2.636 -0.128,-2.636 l -1.698,-1.596 -0.877,-0.03 -1.354,1.05 -0.68,0.634 c 0,0 -0.905,0.847 -1.541,0.166 -0.635,-0.681 -1.434,-2.901 -1.434,-2.901 l 0.045,-1.315 -1.487,-1.368 -1.08,-0.477 -1.322,0.174 c 0,0 -1.134,1.057 -1.595,1.699 -0.461,0.642 -1.346,0.83 -1.346,0.83 l -1.938,-0.945 -1.694,-1.814 -1.699,-1.594 -1.549,0.384 -1.768,0.378 -2.236,1.238 0.171,1.322 z"
         id="path84" />
      <path
         inkscape:connector-curvature="0"
         style="fill:#8c5426;stroke:#8c5426"
         d="m 5956.378,500.553 c 0,0 -2.103,-2.706 -2.76,-2.729 -0.656,-0.022 -3.724,-0.13 -3.724,-0.13 l -2.676,1.223 -1.111,0.4 -2.159,-0.952 -1.753,-0.062 -1.345,0.83 c 0,0 -0.915,1.064 -1.564,0.823 -0.648,-0.243 -1.48,-1.587 -1.48,-1.587 l -3.497,-0.342 -3.378,2.513 6.142,-0.004 7.004,0.463 7.698,-0.607 4.603,0.161 z"
         id="path86" />
      <path
         inkscape:connector-curvature="0"
         style="fill:#8c5426;stroke:#8c5426"
         d="m 5764.471,530.923 -2.977,-2.736 -3.27,-0.553 -2.441,0.792 c 0,0 -0.25,0.868 -0.905,0.846 -0.659,-0.023 -1.316,-0.046 -1.316,-0.046 l -1.926,-1.383 -2.636,0.127 -0.954,2.16 c 0,0 -0.453,0.423 -1.11,0.4 -0.657,-0.023 -2.825,-0.757 -2.825,-0.757 l -3.218,-2.087 -1.095,-0.038 c 0,0 -1.072,-0.695 -1.534,-0.054 -0.461,0.642 -0.242,0.648 -0.938,1.721 -0.695,1.073 -2.69,1.662 -2.69,1.662 l -2.817,-0.976 -1.057,-1.135 -1.308,-0.264 -1.986,0.368 -2.019,1.246 -1.375,1.707 5.477,0.191 6.58,0.01 5.916,0.207 6.822,-0.64 5.062,-0.48 3.074,-0.112 4.382,0.152 3.084,-0.328 z"
         id="path88" />
      <path
         inkscape:connector-curvature="0"
         style="fill:#8c5426;stroke:#8c5426"
         d="m 6451.982,361.504 0.854,-2.42 1.854,-1.59 2.438,0.041 3.421,1.48 c 0,0 1.191,1.441 1.811,0.844 0.62,-0.597 3.078,-1.975 3.078,-1.975 l 1.65,-1.594 0.609,0.01 3.431,1.277 1.626,-0.379 2.061,-1.789 1.658,-2 c 0,0 0.409,-0.195 1.221,-0.182 0.811,0.014 2.832,0.455 2.832,0.455 l 0.791,1.232 1.821,0.234 1.021,-0.389 2.061,-1.791 2.462,-1.58 0.612,0.012 c 0,0 0.608,-0.193 1.206,0.426 0.598,0.619 1.599,1.449 1.599,1.449 l 2.231,0.039 0.832,-1.203 1.459,-2.207 1.228,-0.586 3.456,-0.346 c 0,0 0.811,0.014 1.811,0.842 1,0.83 2.609,1.67 2.609,1.67 0,0 1.017,-0.186 1.437,-0.99 0.425,-0.805 1.444,-1.395 1.658,-2 0.214,-0.605 1.854,-1.59 1.854,-1.59 l 1.424,-0.18 c 0,0 2.238,-0.365 2.43,0.246 0.192,0.611 1.798,1.654 1.798,1.654 l 1.419,0.025 c 0,0 0.413,-0.398 1.032,-0.996 0.62,-0.598 1.46,-2.207 2.69,-2.998 1.23,-0.789 1.844,-0.982 1.844,-0.982 l 2.423,0.652 0.569,2.242 c 0,0 1.21,0.426 1.818,0.436 0.609,0.012 2.238,-0.365 2.452,-0.971 0.213,-0.605 1.256,-2.209 1.256,-2.209 l 2.245,-0.773 2.435,0.043 2.815,1.469 c 0,0 1.205,0.631 1.621,0.029 0.418,-0.602 1.658,-2 1.658,-2 l 2.474,-2.189 2.844,-0.152 1.812,0.842 c 0,0 -0.012,0.609 0.797,0.826 0.809,0.217 3.242,0.26 3.242,0.26 l 1.479,-3.221 3.862,-0.541 1.217,0.021 1.409,0.633 1.822,0.234 1.687,-3.623 1.839,-0.576 3.042,0.053 c 0,0 -0.407,-0.006 1,0.83 1.403,0.836 2.005,1.252 2.005,1.252 0,0 0.396,0.615 1.012,0.221 0.615,-0.396 2.057,-1.588 2.057,-1.588 l 1.646,-1.391 1.229,-0.588 c 0,0 0.203,0.004 0.811,0.014 0.609,0.01 1.022,-0.389 1.623,0.027 0.602,0.418 2.413,1.262 2.413,1.262 l 1.011,0.219 c 0,0 0.405,0.008 1.434,-0.785 1.029,-0.795 2.876,-1.979 2.876,-1.979 l 3.66,-0.547 1.816,0.643 2.616,1.262 c 0,0 1.031,-0.996 2.062,-1.992 1.032,-0.996 2.665,-1.578 2.665,-1.578 l 2.641,-0.359 c 0,0 1.824,0.033 2.015,0.848 0.188,0.814 0.188,0.814 0.991,1.438 0.799,0.623 -0.023,1.217 1.411,0.43 1.434,-0.785 2.264,-1.787 2.477,-2.391 0.214,-0.605 0.84,-1.609 0.84,-1.609 l 2.244,-0.771 3.446,0.262 c 0,0 0.59,1.025 1.191,1.441 0.603,0.416 2.003,1.457 2.003,1.457 l 1.242,-1.4 2.067,-2.195 1.424,-0.178 c 0,0 0.616,-0.395 1.217,0.021 0.605,0.416 3.191,3.098 3.191,3.098 l 0.609,0.012 1.83,-0.172 2.071,-2.398 1.454,-2.002 2.442,-0.363 c 0,0 0.813,-0.189 1.419,0.023 0.604,0.213 1.006,0.424 2.01,1.051 1.005,0.625 2.812,1.672 2.812,1.672 l 1.213,0.223 1.238,-1.195 2.448,-0.77 c 0,0 0,-0.201 1.015,0.02 1.011,0.221 2.626,0.654 2.626,0.654 l 0.801,0.623 0.794,1.027 0.374,1.832 -0.018,1.016 -1.627,0.174 -1.618,-0.23 -4.254,-0.48 c 0,0 -4.061,0.131 -5.68,-0.1 -1.619,-0.231 -6.294,0.297 -6.294,0.297 l -6.289,-0.109 -6.515,1.305 -7.929,0.877 -11.604,2.232 -13.208,1.189 -6.926,1.504 -10.371,1.238 -5.504,1.527 -11.807,2.229 -9.374,2.271 -9.359,1.459 -8.96,1.873 -9.971,1.652 -13.234,2.812 -12.619,2.215 -16.283,2.961 -12.009,2.227 -9.79,2.871 -3.662,0.545 0.033,-1.824 1.233,-0.996 z"
         id="path90" />
      <path
         inkscape:connector-curvature="0"
         style="fill:#8c5426;stroke:#8c5426"
         d="m 6792.687,289.133 3.519,-3.996 2.641,-0.157 3.448,0.06 2.602,2.075 c 0,0 0.604,0.214 1.434,-0.786 0.83,-1 2.075,-2.602 2.075,-2.602 l 1.015,0.018 3.221,1.476 1.397,1.243 c 0,0 -0.417,0.601 1.227,-0.588 1.646,-1.188 3.094,-2.787 3.094,-2.787 l 2.437,0.042 2.001,1.456 1.993,2.064 c 0,0 1.007,0.423 1.615,0.434 0.607,0.011 2.875,-1.979 2.875,-1.979 l 2.669,-1.78 2.84,0.049 2.007,1.456 0.574,1.836 c 0,0 0.401,0.21 1.014,0.018 0.611,-0.192 4.291,-1.751 4.291,-1.751 l 1.231,-0.791 2.839,0.05 2.62,1.061 1.8,1.452 2.043,-0.776 2.463,-1.581 c 0,0 1.025,-0.591 1.625,0.028 0.596,0.62 2.617,1.061 2.81,1.672 0.192,0.612 2.216,0.851 2.216,0.851 l 3.891,-1.962 1.224,-0.384 c 0,0 2.445,-0.566 2.84,0.049 0.396,0.616 1.784,2.467 1.784,2.467 l 2.617,1.06 c 0,0 1.428,-0.381 1.845,-0.982 0.416,-0.602 1.871,-2.605 1.871,-2.605 l 3.043,0.053 c 0,0 2.829,0.658 2.819,1.267 -0.011,0.608 -0.032,1.826 0.572,2.039 0.604,0.214 1.413,0.431 1.413,0.431 l 2.651,-0.766 2.056,-1.587 3.857,-0.135 c 0,0 1.215,0.224 1.2,1.035 -0.014,0.812 -0.625,1.207 0.985,1.641 1.615,0.434 3.438,0.668 3.438,0.668 l 1.847,-1.185 4.872,-0.118 1.808,1.046 3.218,1.679 c 0,0 1.217,0.021 1.208,0.63 -0.013,0.609 -0.433,1.413 -0.433,1.413 l -9.719,-1.184 -7.502,-0.334 -6.276,-0.718 -8.11,-0.345 -5.666,-0.91 -7.302,-0.127 -8.723,-0.152 -10.345,-0.181 -8.316,-0.145 -6.701,0.289 -8.123,0.467 -6.698,0.086 -6.898,0.082 -7.506,-0.131 -7.505,-0.131 -4.872,-0.087 z"
         id="path92" />
      <polyline
         style="fill:#8c5426;stroke:#8c5426"
         points="6953.213,438.426 6949.611,435.523 6945.404,432.406 6947.629,432.852     6950.266,432.896 6952.882,434.16 6954.086,434.992   "
         id="polyline94" />
      <path
         inkscape:connector-curvature="0"
         style="fill:#8c5426;stroke:#8c5426"
         d="m 6522.324,470.062 -2.614,-1.264 -1.219,-0.021 c 0,0 -1.231,0.791 -1.647,1.393 -0.416,0.602 -4.271,0.535 -4.271,0.535 l -1.001,-0.83 -2.839,-0.049 -1.64,0.986 -1.25,1.803 -2.641,0.156 -1.405,-0.836 -1.419,-0.023 -2.039,0.572 -0.638,1.611 -0.836,1.406 -1.833,0.375 -2.018,-0.645 -3.035,-0.459 -3.271,1.363 -2.477,2.391 -0.011,0.609 12.217,-2.426 9.373,-2.27 13.65,-3.211 3.256,-0.553"
         id="path96" />
      <path
         inkscape:connector-curvature="0"
         style="fill:#8c5426;stroke:#8c5426"
         d="m 7281.743,328.392 -3.013,-1.726 -3.495,-1.268 -1.936,2.065 -1.949,2.537 -0.723,0.687 -1.162,-0.501 -0.639,-2.604 -3.062,0.154 -2.411,2.289 c 0,0 -0.741,1.393 -1.185,0.439 -0.449,-0.952 -1.81,-2.869 -1.81,-2.869 l -3.52,-0.328 -2.809,-0.544 -2.356,0.174 -0.736,1.156 4.194,1.521 5.84,1.563 3.507,0.799 4.939,0.129 2.823,-0.161 2.386,-1.114 2.13,-0.649 1.651,-0.192 3.336,-1.557 z"
         id="path98" />
      <path
         inkscape:connector-curvature="0"
         style="fill:#8c5426;stroke:#8c5426"
         d="m 7337.975,327.747 5.451,-1.504 2.38,-1.113 1.404,0.271 1.856,0.989 0.704,0.019 2.381,-1.113 2.153,-1.355 1.639,0.278 2.101,0.761 1.147,0.971 1.409,0.037 1.708,-2.307 3.786,-0.843 c 0,0 0.965,-0.916 1.409,0.037 0.446,0.952 1.109,2.616 1.109,2.616 l 1.396,0.508 2.368,-0.644 2.432,-2.995 2.363,-0.408 1.404,0.271 1.145,1.207 1.397,0.506 3.086,-1.094 1.905,-0.893 c 0,0 0.234,0.007 1.176,0.031 0.94,0.025 1.187,-0.439 1.883,0.049 0.69,0.489 1.377,1.213 1.377,1.213 l 0.681,0.959 -8.282,1.9 -9.222,1.875 -12.489,0.85 -8.245,0.488 -7.758,-0.203 -7.045,-0.418 -0.209,-0.946 z"
         id="path100" />
      <path
         inkscape:connector-curvature="0"
         style="fill:#8c5426;stroke:#8c5426"
         d="m 7564.302,298.862 -4.646,-2.239 -4.46,-0.352 -1.676,1.132 -1.918,1.361 c 0,0 0.01,-0.235 -0.698,-0.253 -0.705,-0.019 -3.483,-1.738 -3.483,-1.738 l -2.096,-0.76 -5.156,-0.606 -2.187,2.53 -0.539,2.574 -1.397,-0.507 -1.343,-2.623 -2.115,-0.055 -4.46,-0.117 c 0,0 -0.995,1.856 -1.249,2.555 -0.251,0.699 -0.971,1.15 -0.971,1.15 l -1.181,0.205 -2.767,-2.19 -3.297,0.149 -1.947,2.536 -1.46,1.844 -0.261,0.934 8.007,-0.261 7.31,-0.75 6.366,-0.539 9.89,-0.447 8.268,-1.195 5.186,-0.569 4.497,-1.059"
         id="path102" />
      <path
         inkscape:connector-curvature="0"
         style="fill:#8c5426;stroke:#8c5426"
         d="m 6957.15,436.087 2.271,3.117 1.844,1.46 3.08,-0.86 3.025,1.255 c 0,0 0.21,0.945 0.16,2.826 -0.049,1.881 -0.092,3.526 -0.092,3.526 l 1.404,0.271 3.08,-0.858 0.725,-0.688 1.162,0.501 c 0,0 1.4,0.506 1.603,1.688 0.204,1.182 0.378,3.539 0.124,4.237 -0.254,0.698 -0.254,0.698 -0.254,0.698 l 1.151,0.971 0.958,-0.68 1.194,-0.676 1.88,0.05 c 0,0 0.717,-0.452 1.164,0.501 0.445,0.952 0.674,1.195 0.885,2.142 0.21,0.945 0.191,1.651 0.167,2.591 -0.024,0.94 -0.722,0.687 0.655,1.898 1.38,1.213 2.784,1.483 2.784,1.483 l 2.368,-0.642 1.183,-0.205 1.874,0.285 c 0,0 1.156,0.734 1.596,1.922 0.439,1.188 0.854,3.315 0.854,3.315 0,0 -0.253,0.699 -0.278,1.639 -0.024,0.941 0.897,1.672 0.897,1.672 l 3.284,0.32 1.881,0.049 0.699,0.254 0.674,1.193 0.174,2.356 1.125,1.912 3.045,0.55 0.939,0.024 1.373,1.447 1.584,2.394 c 0,0 0.442,1.188 0.396,2.833 -0.043,1.646 -1.503,3.489 -1.503,3.489 l -12.392,-11.85 -6.681,-5.35 -9.879,-8.962 -8.983,-7.292 -7.336,-7.249 -6.93,-4.886 0.136,-5.171 0.958,-0.681"
         id="path104" />
      <polygon
         style="fill:#8c5426;stroke:#8c5426"
         points="7259.25,441.881 7257.388,441.126 7255.296,440.131 7253.175,440.311 7251.046,440.724 7250.305,442.117 7249.995,444.932 7250.188,446.583 7248.97,448.197 7247.8,447.932 7245.276,445.514 7243.396,445.465 7241.497,446.119 7240.056,447.258 7239.066,449.113 7238.763,451.693 7238.479,453.568 7237.279,454.477 7235.212,452.541 7233.104,452.251 7231.681,452.685 7230.48,453.595 7229.739,454.985 7229.677,457.336 7229.653,458.276 7227.729,459.872 7226.573,459.137 7223.534,458.352 7219.991,458.964 7219.224,461.297 7220.344,463.442 7219.59,465.304 7218.421,465.039 7215.111,465.657 7212,467.693 7210.009,471.874 7209.972,473.286 7218.336,468.329 7226.22,463.597 7237.929,456.611 7250.577,449.65 7263.245,441.985 7272.107,435.866 7276.901,432.465 7276.449,431.746 7273.878,431.208 7271.983,431.63 7270.308,432.761 7269.559,434.389 7268.817,435.78 7267.87,435.991 7266.714,435.256 7264.628,434.26 7262.267,434.433 7260.565,436.505 7260.059,437.903 7260.003,440.019 7259.966,441.429 "
         id="polygon106" />
      <polygon
         style="fill:#8c5426;stroke:#8c5426"
         points="7419.5,448.194 7417.618,448.145 7415.694,449.741 7415.199,450.668 7413.072,451.083 7411.261,448.448 7408.71,446.971 7406.359,446.909 7405.148,448.288 7402.988,449.879 7400.878,449.823 7399.742,448.146 7398.634,445.53 7394.687,443.546 7391.854,443.942 7390.136,446.72 7388.72,446.918 7387.346,445.471 7385.527,443.07 7384.364,442.569 7381.549,442.261 7379.419,442.91 7376.57,443.777 7375.593,445.163 7379.322,446.437 7388.441,448.557 7396.142,450.875 7410.45,452.426 7423.794,454.893 7437.159,456.419 7443.5,456.82 7448.194,457.178 7448.689,456.25 7445.72,452.879 7442.713,450.919 7440.784,452.75 7438.854,454.581 7435.817,453.797 7434.017,450.691 7431.456,449.684 7429.805,449.875 7428.11,451.713 7426.909,452.622 7425.035,452.337 7422.74,450.161 7421.367,448.713 "
         id="polygon108" />
      <polygon
         style="fill:#8c5426;stroke:#8c5426"
         points="7447.608,515.496 7446.902,515.478 7445.969,515.218 7444.98,517.073 7444.485,518.002 7441.887,518.404 7439.821,516.468 7437.267,515.225 7434.927,514.693 7432.342,514.626 7431.586,516.722 7430.858,517.409 7428.989,516.89 7428.075,515.925 7425.761,514.454 7422.471,514.367 7421.264,515.511 7420.306,516.191 7417.25,516.111 7416.346,514.677 7413.557,513.428 7412.852,513.409 7411.41,514.548 7410.427,516.168 7408.775,516.36 7406.95,514.195 7402.744,513.145 7401.804,513.12 7400.586,514.735 7399.379,515.879 7397.5,515.83 7395.414,514.6 7392.628,513.351 7390.273,513.289 7386.928,515.317 7386.414,516.952 7396.274,517.679 7405.906,518.167 7411.794,517.851 7417.436,517.999 7425.192,518.202 7434.569,519.388 7441.146,519.796 7448.426,520.222 7455.471,520.641 7461.336,521.266 7465.091,521.599 7468.85,521.697 7470.483,522.211 7469.617,519.365 7467.044,518.828 7465.387,519.254 7464.198,519.693 7462.102,518.934 7460.97,517.256 7457.933,516.472 7456.986,516.682 7454.562,519.44 7453.856,519.422 7451.277,519.119 7450.628,516.985 7449.235,516.243 "
         id="polygon110" />
      <path
         inkscape:connector-curvature="0"
         style="fill:#8c5426;stroke:#8c5426"
         d="m 7643.145,494.743 -5.283,-4.845 -3.037,-0.783 -2.84,0.63 -1.453,1.608 -3.544,0.613 -1.609,-1.218 -1.378,-1.448 -1.634,-0.512 -1.175,-0.031 -2.122,0.179 c 0,0 0.706,0.02 -0.514,1.634 -1.218,1.614 -1.218,1.614 -1.218,1.614 l -2.574,-0.538 -1.345,-2.388 -1.16,-0.734 -2.586,-0.068 -2.845,0.865 -0.992,2.091 -1.45,1.374 -1.627,-0.748 -1.838,-1.694 -1.874,-0.284 -4.231,-0.11 c 0,0 0.496,-0.93 -1.206,1.144 -1.701,2.073 -1.701,2.073 -1.701,2.073 l -1.65,0.192 -2.073,-1.702 -2.312,-1.472 -1.881,-0.05 -1.423,0.434 -2.622,1.343 -1.231,2.084 c 0,0 0.225,0.478 -1.409,-0.036 -1.635,-0.514 -1.635,-0.514 -1.635,-0.514 l -1.377,-1.212 -2.099,-0.761 -1.874,-0.284 -1.443,1.374 c 0,0 0.193,1.416 -2.176,2.06 -2.366,0.644 -2.366,0.644 -2.366,0.644 l -1.369,-1.683 -1.603,-1.688 -2.352,-0.062 -1.416,0.198 -1.713,2.542 c 0,0 0.138,3.767 -1.453,1.607 -1.59,-2.157 -1.59,-2.157 -1.59,-2.157 l -0.922,-0.73 -3.983,-0.575 -1.436,0.904 -1.936,2.065 -1.67,0.897 -2.073,-1.7 -1.831,-1.931 c 0,0 -1.41,-0.037 -3.29,-0.086 -1.881,-0.049 -1.881,-0.049 -1.881,-0.049 l -0.965,0.915 -0.982,1.62 -0.736,1.158 -3.067,0.391 -2.767,-2.189 -1.163,-0.501 c 0,0 1.219,-1.614 -1.88,-0.05 -3.099,1.565 -3.099,1.565 -3.099,1.565 l -0.024,0.94 -0.743,1.392 -2.114,-0.056 -2.289,-2.412 -2.111,-0.056 -1.18,-0.03 c 0,0 0.478,-0.223 -1.435,0.904 -1.912,1.125 -1.912,1.125 -1.912,1.125 l 0,0 -0.755,1.862 -1.645,-0.043 -1.374,-1.447 -2.808,-0.545 -2.351,-0.062 -0.945,0.211 -0.285,1.875 c 0,0 0.884,2.138 -0.972,1.149 -1.855,-0.989 -1.855,-0.989 -1.855,-0.989 l -1.411,-0.037 -3.532,0.143 -0.981,1.621 0.421,1.893 8.978,-1.411 5.874,0.154 4.726,-0.817 4.471,-0.118 3.558,-1.082 6.589,-0.063 7.075,-0.756 6.105,0.396 4.021,-0.836 5.876,0.154 5.196,-0.805 3.062,-0.155 6.123,-0.31 4.467,0.116 6.828,-0.292 7.077,-0.756 5.882,-0.081 6.148,-1.25 6.347,0.166 3.767,-0.136 8.004,-0.262 6.13,-0.546 6.117,-0.074 7.076,-0.755 4.709,-0.112 5.641,0.147 4.438,1.061 z"
         id="path112" />
      <path
         inkscape:connector-curvature="0"
         style="fill:#8c5426;stroke:#8c5426"
         d="m 7579.63,539.887 -0.637,-2.604 -2.525,-2.418 -3.766,0.138 -2.629,1.577 -1.881,-0.05 -0.921,-0.73 c 0,0 1.199,-0.908 -1.127,-1.911 -2.325,-1.001 -2.325,-1.001 -2.325,-1.001 l 0,0 c 0,0 -2.086,-1.232 -4.003,0.13 -1.917,1.362 -0.73,1.157 -0.73,1.157 l -3.542,0.378 c 0,0 0.433,1.423 -0.688,-0.724 -1.12,-2.146 -1.12,-2.146 -1.12,-2.146 l -1.378,-1.212 c 0,0 -0.892,-1.906 -2.326,-1.002 -1.436,0.903 -0.945,0.21 -0.945,0.21 l -1.441,1.139 c 0,0 0.871,2.61 -1.653,0.192 -2.523,-2.418 -2.523,-2.418 -2.523,-2.418 l -1.113,-2.382 -1.844,-1.46 -1.404,-0.272 -2.122,0.181 c 0,0 0.705,0.019 -1.205,1.146 -1.911,1.125 -1.201,0.908 -1.201,0.908 l -1.651,0.192 -1.38,-1.212 -1.323,-3.327 -2.537,-1.949 -1.175,-0.031 c 0,0 1.169,0.268 -1.926,1.832 -3.103,1.564 -3.103,1.564 -3.103,1.564 l -0.428,-1.656 0.303,-2.58 -0.402,-2.598 -0.933,-0.26 -3.539,0.377 -1.206,1.145 -0.712,0.217 -1.187,0.439 -0.83,-4.256 -2.982,-2.901 -3.03,-1.02 -2.618,1.343 -2.343,-0.532 0.52,-1.867 -0.191,-1.651 -1.633,-0.514 -2.812,-0.309 -0.684,-0.959 -1.145,-1.206 -1.146,-1.206 0.501,-1.163 -5.438,1.034 2.76,2.425 4.826,4.359 6.711,4.175 7.393,5.134 7.646,4.433 9.783,3.785 12.604,3.623 10.484,3.802 12.385,3.146 9.377,1.188 6.11,0.158 z"
         id="path114" />
    </g>
  </g>
</svg>
