<?xml version="1.0" encoding="UTF-8" standalone="no"?>
<!-- Created with Inkscape (http://www.inkscape.org/) -->

<svg
   xmlns:dc="http://purl.org/dc/elements/1.1/"
   xmlns:cc="http://creativecommons.org/ns#"
   xmlns:rdf="http://www.w3.org/1999/02/22-rdf-syntax-ns#"
   xmlns:svg="http://www.w3.org/2000/svg"
   xmlns="http://www.w3.org/2000/svg"
   xmlns:sodipodi="http://sodipodi.sourceforge.net/DTD/sodipodi-0.dtd"
   xmlns:inkscape="http://www.inkscape.org/namespaces/inkscape"
   version="1.1"
   width="681.13281"
   height="60.163372"
   id="svg4242"
   style="enable-background:new"
   inkscape:version="0.48+devel r9873 custom"
   sodipodi:docname="mountainspinkfill.svg">
  <metadata
     id="metadata1283">
    <rdf:RDF>
      <cc:Work
         rdf:about="">
        <dc:format>image/svg+xml</dc:format>
        <dc:type
           rdf:resource="http://purl.org/dc/dcmitype/StillImage" />
        <dc:title />
      </cc:Work>
    </rdf:RDF>
  </metadata>
  <sodipodi:namedview
     pagecolor="#ffffff"
     bordercolor="#666666"
     borderopacity="1"
     objecttolerance="10"
     gridtolerance="10"
     guidetolerance="10"
     inkscape:pageopacity="0"
     inkscape:pageshadow="2"
     inkscape:window-width="2560"
     inkscape:window-height="1300"
     id="namedview1281"
     showgrid="false"
     inkscape:zoom="3.5220738"
     inkscape:cx="295.13862"
     inkscape:cy="30.081686"
     inkscape:window-x="0"
     inkscape:window-y="0"
     inkscape:window-maximized="0"
     inkscape:current-layer="svg4242" />
  <defs
     id="defs1282" />
  <g
     transform="matrix(0.05786179,0,0,0.05786381,-11.318451,-5.4914967)"
     id="Mountains">
    <g
       id="Mountains_x2C__Pink_FIll">
      <path
         inkscape:connector-curvature="0"
         style="fill:#f9af7f;stroke:#f9af7f"
         d="m 5741.021,273.705 -1.207,-3.113 -2.953,-3.394 -2.81,-1.194 -2.191,-0.077 -2.675,1.223 -1.479,-1.587 c 0,0 -0.377,-1.768 -1.02,-2.229 -0.643,-0.46 -2.138,-1.61 -2.138,-1.61 l -1.095,-0.038 -1.096,-0.039 -2.659,0.784 -2.433,0.573 -1.512,-0.711 -1.019,-2.229 c 0,0 -0.784,-2.66 -1.435,-2.902 -0.649,-0.242 -1.283,-0.922 -1.283,-0.922 0,0 -1.949,-0.726 -2.41,-0.084 -0.461,0.642 -3.166,2.742 -3.166,2.742 0,0 0.203,0.445 -0.666,0.195 -0.869,-0.249 -3.006,-1.859 -3.006,-1.859 0,0 0.484,-1.299 -0.352,-2.425 -0.841,-1.126 -2.132,-1.829 -2.132,-1.829 0,0 -1.48,-1.588 -2.177,-0.515 -0.691,1.073 -1.594,1.699 -2.282,2.553 -0.688,0.854 -2.04,1.903 -2.04,1.903 0,0 -0.396,0.035 -0.857,-0.023 -0.51,-0.064 -1.095,-0.243 -1.311,-0.711 -0.408,-0.892 -1.85,-3.574 -1.85,-3.574 l -2.137,-1.61 -2.184,-0.296 -2.902,1.435 -1.602,1.918 c 0,0 -0.01,0.22 -1.068,-0.695 -1.069,-0.915 -3.184,-3.182 -3.184,-3.182 l -0.627,-0.899 -2.184,-0.296 -2.002,0.809 -1.361,1.268 -1.977,0.15 c 0,0 -1.529,-0.271 -1.943,-0.945 -0.416,-0.672 -2.764,-2.51 -2.764,-2.51 l -1.957,-0.507 c 0,0 -1.51,-0.711 -2.191,-0.077 -0.68,0.635 -1.344,0.831 -1.805,1.473 -0.463,0.642 -1.143,1.276 -1.143,1.276 0,0 -0.672,0.416 -1.722,-0.938 -1.05,-1.354 -2.515,-3.378 -3.164,-3.621 -0.649,-0.243 -1.284,-0.922 -1.948,-0.726 -0.665,0.196 -2.902,1.434 -2.902,1.434 l -2.041,1.903 -1.08,-0.476 -1.223,-2.675 -3.482,-0.779 c 0,0 -1.564,0.823 -1.807,1.472 -0.242,0.65 -0.467,0.862 -0.93,1.503 -0.461,0.641 -1.337,0.611 -1.337,0.611 l -1.699,-1.595 -1.715,-1.157 -3.286,-0.115 -1.819,1.911 -1.34,0.611 c 0,0 -0.452,0.423 -1.3,-0.484 -0.845,-0.907 -2.975,-2.736 -2.975,-2.736 l -2.379,-0.96 c 0,0 -1.738,-0.499 -2.855,0.12 -1.119,0.619 -3.583,2.068 -3.583,2.068 l -1.806,1.472 -2.168,-0.733 -3.262,-0.772 -2.6,-0.968 -2.238,1.238 -1.76,0.158 -3.037,-0.983 -2.379,-0.96 c 0,0 -1.736,-0.5 -2.199,0.142 -0.461,0.642 -2.939,2.53 -2.939,2.53 l -1.118,0.619 c 0,0 -0.892,0.407 -1.737,-0.5 -0.846,-0.907 -2.977,-2.736 -2.977,-2.736 0,0 -2.613,-0.53 -3.074,0.112 -0.461,0.642 -1.133,1.057 -1.375,1.707 -0.242,0.65 -1.384,1.926 -1.384,1.926 l -2.19,-0.076 -2.373,-1.18 -0.808,-2.003 -3.052,-0.545 c 0,0 -0.908,0.846 -1.156,1.714 -0.25,0.869 -0.953,2.16 -0.953,2.16 0,0 -1.109,0.4 -1.769,0.377 -0.657,-0.023 -1.269,-1.361 -1.896,-2.26 -0.627,-0.899 -1.879,-2.698 -1.879,-2.698 l -1.08,-0.476 -2.622,-0.312 c 0,0 -1.308,-0.264 -1.769,0.377 -0.461,0.642 -2.924,2.091 -2.924,2.091 l -1.346,0.831 -1.971,-0.069 -1.051,-1.353 -1.707,-1.376 -1.094,-0.038 -2.223,0.8 -1.807,1.473 -1.533,-0.054 -1.496,-1.149 c 0,0 -0.157,-1.76 -1.902,-2.041 -1.744,-0.281 -3.278,-0.334 -3.278,-0.334 0,0 -1.979,0.15 -2.229,1.019 -0.249,0.869 -1.172,2.153 -1.172,2.153 0,0 -1.503,-0.93 -2.356,-1.618 -0.854,-0.688 -2.983,-2.517 -2.983,-2.517 l -2.417,0.135 c 0,0 -1.761,0.158 -2.229,1.019 -0.468,0.861 -1.156,1.715 -1.617,2.356 -0.462,0.642 -1.354,1.05 -1.354,1.05 l -0.258,1.087 4.367,0.592 5.931,-0.232 5.263,0.184 8.117,-0.154 8.544,0.298 8.548,0.298 13.565,0.912 7.206,0.91 9.648,0.118 7.025,-0.194 3.098,-0.769 5.048,-0.042 4.382,0.152 4.389,-0.066 5.924,-0.012 2.631,0.092 5.475,0.191 4.383,0.153 6.134,0.214 6.995,0.683 5.473,0.41 5.897,0.645 3.71,0.568 4.162,0.145 8.063,1.598 3.933,0.357 5.002,1.271 6.966,1.56 6.1,1.31 6.516,1.763 5.431,1.506 7.607,2.021 6.308,1.537 8.657,3.374 7.129,3.1 7.792,3.121 z"
         id="path6" />
      <path
         inkscape:connector-curvature="0"
         style="fill:#f9af7f;stroke:#f9af7f"
         d="m 6060.092,314.24 -3.42,-2.532 -1.927,-1.384 -3.701,-0.787 -2.237,1.238 c 0,0 -1.081,-0.477 -1.05,-1.353 0.03,-0.876 -0.558,-2.871 -0.558,-2.871 l -2.668,1.004 c 0,0 -1.329,0.392 -2.017,1.245 -0.688,0.854 -1.149,1.496 -1.149,1.496 -0.868,-0.25 -1.511,-0.71 -1.696,-1.595 -0.191,-0.884 -0.786,-2.659 -1.437,-2.901 -0.651,-0.243 -2.38,-0.961 -2.38,-0.961 0,0 -2.387,-0.741 -2.409,-0.084 -0.023,0.657 -0.483,1.3 -0.954,2.16 -0.469,0.861 -1.148,1.495 -1.148,1.495 0,0 -1.125,0.838 -1.291,-0.703 -0.167,-1.542 -0.981,-3.324 -0.981,-3.324 l -2.614,-0.531 c 0,0 -2.599,-0.967 -3.074,0.113 -0.477,1.08 -2.76,3.632 -2.76,3.632 0,0 -0.884,0.189 -1.292,-0.703 -0.407,-0.892 -0.792,-2.44 -0.792,-2.44 l -1.502,-0.93 -4.789,-1.044 -1.143,1.276 -0.96,2.379 c 0,0 -1.504,-0.93 -1.48,-1.588 0.022,-0.657 -0.589,-1.994 -0.589,-1.994 l -2.363,-1.399 -4.155,-0.364 -1.398,2.364 -0.477,1.08 -0.672,0.416 c 0,0 -0.659,-0.023 -1.27,-1.361 -0.611,-1.338 -1.676,-2.252 -1.676,-2.252 l -1.957,-0.507 -3.294,0.104 -1.36,1.269 -1.156,1.714 c 0,0 -0.688,0.853 -1.104,0.181 -0.416,-0.672 -1.253,-1.798 -1.253,-1.798 l -1.888,-2.479 -2.63,-0.092 c 0,0 -1.335,0.611 -1.806,1.473 -0.469,0.861 -1.852,2.787 -1.852,2.787 l -0.885,0.188 c 0,0 -0.416,-0.673 -1.05,-1.353 -0.634,-0.68 -1.473,-1.806 -1.473,-1.806 l -0.657,-0.023 -2.409,-0.084 -1.587,1.48 -0.703,1.292 -1.315,-0.046 -3.194,-2.744 -1.925,-1.383 -1.33,0.392 -4.186,0.512 -0.712,1.511 -1.971,-0.069 -2.989,-2.298 c 0,0 -1.982,0.151 -2.442,0.792 -0.461,0.642 -1.6,1.918 -1.6,1.918 l -1.583,1.26 0.408,0.893 3.717,0.349 7.66,0.487 5.915,0.207 6.15,-0.224 5.258,0.184 5.259,0.184 5.031,0.395 4.162,0.146 3.718,0.349 4.373,0.372 5.242,0.623 4.579,0.817 7.403,1.575 4.382,0.153 6.989,0.902 7.432,0.698 5.682,0.637 5.009,1.053 7.199,1.129 8.772,0.083 z"
         id="path8" />
      <path
         inkscape:connector-curvature="0"
         style="fill:#f9af7f;stroke:#f9af7f"
         d="m 5888.98,383.507 -2.287,-3.59 -2.788,-1.854 -5.455,-0.848 -0.7,1.291 c 0,0 -2.186,-0.296 -2.163,-0.953 0.023,-0.656 -0.557,-2.871 -0.557,-2.871 l -1.503,-0.93 -3.691,-1.006 -1.145,1.276 -1.353,1.05 -2.568,-1.846 -1.227,-2.455 -0.842,-1.127 -1.742,-0.279 -3.093,0.55 -2.364,-1.399 -0.584,-1.994 -2.149,-1.391 -4.147,-0.584 -0.494,1.738 -1.146,1.275 c 0,0 -0.43,-0.234 -1.062,-0.914 -0.637,-0.68 -1.912,-1.822 -1.912,-1.822 l -1.754,-0.061 -0.68,0.634 -0.737,2.388 -2.452,1.011 -1.519,-0.491 -2.362,-1.399 -1.753,-0.062 -1.393,2.146 -1.376,1.706 -0.664,0.197 -2.153,-1.172 -1.058,-1.135 -3.505,-0.121 -0.453,0.422 -1.392,2.146 -1.745,-0.28 -1.653,-2.91 -3.217,-2.086 -3.302,0.323 c 0,0 -0.254,1.089 -0.719,1.729 -0.461,0.643 -1.376,1.707 -1.376,1.707 0,0 -0.01,0.22 -1.072,-0.695 -1.064,-0.914 -2.333,-2.275 -2.333,-2.275 l -2.19,-0.076 -1.988,0.369 c 0,0 -0.688,0.854 -0.93,1.503 -0.242,0.649 -0.938,1.723 -0.938,1.723 l -1.525,-0.272 c 0,0 -0.846,-0.906 -1.488,-1.369 -0.643,-0.461 -2.361,-1.398 -2.361,-1.398 l -3.281,-0.334 -1.534,-0.053 c 0,0 -0.892,0.406 -1.571,1.041 -0.679,0.635 -1.782,0.816 -1.782,0.816 l -1.753,-0.062 -1.512,-0.711 -2.605,-0.748 -3.068,-0.107 -0.96,2.379 c 0,0 -0.023,0.657 -0.681,0.635 -0.656,-0.023 -2.168,-0.733 -2.168,-0.733 0,0 -2.137,-1.61 -2.803,-1.415 -0.664,0.197 -1.502,-0.93 -2.213,0.581 -0.711,1.511 -0.998,3.476 -0.998,3.476 l -0.984,3.036 -2.576,-1.626 c 0,0 -1.08,-0.477 -1.322,0.174 -0.242,0.651 -1.662,3.671 -1.662,3.671 l 0.126,2.637 0.144,2.198 c 0,0 -0.438,-0.015 -1.096,-0.037 -0.657,-0.023 -1.761,0.157 -1.761,0.157 0,0 -0.47,0.86 -1.157,1.714 -0.687,0.854 -0.95,2.16 -0.95,2.16 l -0.04,1.096 0.635,0.681 1.268,1.36 0.658,0.023 1.118,-0.619 2.017,-1.246 0.492,-1.518 0.562,-3.49 0.75,-2.607 0.255,-1.088 1.588,-1.479 1.134,-1.058 1.586,-1.48 2.033,-1.683 1.346,-0.832 3.09,-0.55 3.756,-0.746 3.506,0.122 3.309,-0.543 3.506,0.123 1.314,0.046 4.146,0.584 1.965,0.288 5.266,-0.035 3.936,0.356 2.863,-0.339 2.856,-0.12 2.841,0.318 4.146,0.584 4.133,1.021 2.176,0.515 7.744,-1.923 1.511,0.711 2.667,-1.004 2.676,-1.223 3.301,-0.323 2.645,-0.347 1.761,-0.157 4.374,0.371 1.744,0.281 2.402,0.303 1.527,0.273 1.51,0.71 1.926,1.384 1.723,0.938 1.949,0.726 1.494,1.149 3.257,0.991 3.459,1.437 3.249,1.211 3.679,1.444 3.013,1.641 3.24,1.429 2.614,0.53 1.511,0.711"
         id="path10" />
      <path
         inkscape:connector-curvature="0"
         style="fill:#f9af7f;stroke:#f9af7f"
         d="m 5799.233,371.817 -1.783,0.814 -1.104,0.182 -2.833,-0.538 -1.995,0.589 -1.141,1.275 -0.977,2.817 -0.045,1.315 -1.104,0.18 -2.199,0.144 -1.148,1.495 -0.742,2.387 -0.521,2.395 -1.346,0.83 -1.314,-0.045 -1.807,1.473 -2.447,1.011 -0.5,1.737 1.08,0.477 0.846,0.906 1.597,-1.698 1.102,-0.181 2.244,-1.457 2.245,-1.457 3.809,-2.28 2.313,-3.429 4.308,-4.018 2.932,-2.311 2.457,-1.23 3.785,-1.622 5.908,0.425 5.039,0.177 5.893,0.863 2.816,0.976 5.221,1.279 4.313,2.125 4.773,1.482 3.46,1.438 2.81,1.195 5.478,0.19 4.857,-0.927 3.332,-1.2 3.764,-0.965 2.645,-0.347 c 0,0 0.657,0.023 1.322,-0.173 0.664,-0.196 2.425,-0.354 2.425,-0.354 l -4.978,-1.929 -1.55,0.385 -1.299,-0.483 -1.307,-0.266 -2.629,-0.092 -1.33,0.393 -0.703,1.291 -0.242,0.65 -0.835,-1.127 -1.053,-1.353 -1.345,0.831 -1.157,1.715 -0.904,0.846 -1.105,0.18 -0.869,-0.249 -1.472,-1.807 -1.08,-0.476 -1.534,-0.055 -2.221,0.801 -1.111,0.399 -0.588,-1.995 0.03,-0.876 -1.769,0.377 -3.072,0.112 -0.878,-0.031 -0.658,-0.022 -1.511,-0.711 -0.423,-0.453 0.915,-1.065 0.703,-1.291"
         id="path12" />
      <polygon
         style="fill:#f9af7f;stroke:#f9af7f"
         points="5798.561,372.231 5802.942,372.385 5804.317,370.679 5798.388,370.909 "
         id="polygon14" />
      <polyline
         style="fill:#f9af7f;stroke:#f9af7f"
         points="5866.01,375.465 5869,377.763 5875.065,379.948 5882.196,383.05     5888.044,385.228   "
         id="polyline16" />
      <polygon
         style="fill:#f9af7f;stroke:#f9af7f"
         points="5551.248,337.273 5550.871,335.505 5547.378,335.163 5546.013,336.433 5544.683,336.824 5547.689,338.685 5552.606,342.365 5559.306,345.231 5568.169,349.052 5568.266,346.202 5567.058,343.09 5564.226,342.552 5562.427,343.806 5561.77,343.782 5560.039,343.064 5560.128,340.654 5558.636,339.286 5557.079,339.89 5555.953,340.728 5555.273,341.362 5552.901,340.183 "
         id="polygon18" />
      <path
         inkscape:connector-curvature="0"
         style="fill:#f9af7f;stroke:#f9af7f"
         d="m 5745.005,492.545 2.479,-1.888 3.037,0.983 2.567,1.845 0.923,-1.284 0.476,-1.079 2.642,-0.128 2.958,3.175 1.72,0.937 1.988,-0.369 0.49,-1.519 2.025,-1.464 3.309,-0.543 c 0,0 3.287,0.115 3.483,0.779 0.196,0.665 0.817,1.784 0.817,1.784 l 1.984,-0.371 0.508,-1.955 3.128,-1.646 c 0,0 0.673,-0.414 1.755,0.062 1.078,0.477 2.15,1.171 2.15,1.171 0,0 0.407,0.894 0.604,1.558 0.197,0.665 0.854,0.688 0.854,0.688 l 2.229,-1.019 2.032,-1.685 1.756,0.061 1.712,1.157 3.24,1.43 2.356,1.618 -0.242,0.649 -4.139,-0.803 -4.383,-0.152 -5.931,0.23 -6.614,1.085 -4.863,0.928 -7.916,0.6 -11.105,-2.361 -7.85,-1.37 -0.179,-1.104 z"
         id="path20" />
      <path
         inkscape:connector-curvature="0"
         style="fill:#f9af7f;stroke:#f9af7f"
         d="m 5910.606,505.566 -2.78,-2.071 -3.505,-0.122 -0.499,1.737 -1.33,0.393 -2.153,-1.173 -1.737,-0.498 -0.915,1.064 -0.304,2.401 -1.117,0.62 c 0,0 -2.43,0.571 -2.621,-0.312 -0.188,-0.884 -1.239,-2.236 -1.239,-2.236 l -2.409,-0.084 -0.931,1.503 c 0,0 0.151,1.979 -0.31,2.62 -0.462,0.643 -1.142,1.277 -1.142,1.277 l -3.007,-1.859 -2.432,0.572 -4.565,5.104 7.51,-1.491 7.102,-2.385 5.281,-0.474 6.424,-1.749 6.437,-2.188 0.242,-0.649 z"
         id="path22" />
      <polygon
         style="fill:#f9af7f;stroke:#f9af7f"
         points="6092.328,393.444 6095.477,394.132 6097.699,396.515 6099.669,398.025 6101.414,397.511 6103.479,396.141 6105.794,395.934 6108.099,396.015 6110.094,396.66 6110.919,397.843 6113.201,398.499 6114.343,398.827 6115.196,399.145 6112.575,399.919 6102.783,399.576 6092.157,398.34 6085.836,397.831 6080.96,397.085 6076.636,396.934 6072.902,396.515 6068.87,396.374 6067.152,396.024 6067.213,394.298 6070.71,393.267 6072.438,393.327 6074.423,394.261 6076.131,394.897 6078.763,393.835 6080.809,393.042 6082.815,393.4 6084.492,394.901 6085.912,395.526 6087.631,395.876 6089.408,394.496 "
         id="polygon24" />
      <path
         inkscape:connector-curvature="0"
         style="fill:#f9af7f;stroke:#f9af7f"
         d="m 6346.508,295.54 4.914,-2.552 2.441,-0.363 1.608,0.84 1.21,0.426 1.427,-0.38 2.473,-2.189 2.419,1.057 1.806,1.045 0.798,0.826 1.416,0.228 2.665,-1.577 1.622,0.028 0.605,0.214 2.602,2.074 2.409,1.462 3.04,0.256 1.443,-1.396 1.231,-0.79 1.42,0.025 2.214,1.053 3.014,1.676 2.431,0.245 0.819,-0.391 2.468,-1.784 2.642,-0.359 1.818,0.437 1.581,2.462 3.237,0.462 1.623,0.028 1.047,-1.808 2.046,-0.979 1.622,0.028 2.018,0.644 1.591,1.854 3.63,1.281 1.648,-1.391 0.42,-0.804 2.244,-0.773 1.42,0.024 1.602,1.246 1.187,2.05 1.209,0.224 3.054,-0.555 1.455,-2.003 2.662,-1.375 c 0,0 1.22,-0.181 1.821,0.235 0.602,0.416 1.386,2.052 2.59,2.885 1.2,0.833 3.218,1.477 3.218,1.477 l 2.039,-0.573 1.264,-2.615 1.633,-0.581 1.42,0.025 3.035,0.458 1.193,1.441 1.602,1.246 2.23,0.039 1.861,-1.997 1.225,-0.384 1.623,0.028 2.22,0.647 1.608,0.839 2.015,0.848 1.423,-0.178 2.054,-1.385 3.074,-1.773 2.018,0.644 1.205,0.833 c 0,0 0.578,1.633 1.39,1.647 0.812,0.014 3.035,0.459 3.035,0.459 l 2.45,-0.769 1.849,-1.388 2.637,0.046 c 0,0 1.222,-0.182 1.615,0.433 0.396,0.616 2.795,2.687 2.795,2.687 l 1.412,0.431 -16.252,1.137 -15.426,0.339 -17.85,-0.312 -20.078,-0.554 -17.43,-1.115 -19.658,-1.358 -13.168,-1.244 -11.334,-1.618 -7.096,-0.327 -9.513,-1.379 z"
         id="path26" />
      <path
         inkscape:connector-curvature="0"
         style="fill:#f9af7f;stroke:#f9af7f"
         d="m 6232.46,308.563 5.926,-2.534 2.44,-0.364 c 0,0 1.012,0.221 1.605,1.042 0.593,0.821 1.592,1.854 1.592,1.854 l 0.812,0.014 c 0,0 0.212,-0.605 0.824,-0.797 0.611,-0.192 3.061,-0.961 3.061,-0.961 l 1.814,0.64 c 0,0 0.787,1.434 1.178,2.252 0.392,0.819 2.389,2.68 2.389,2.68 l 1.028,-0.794 2.06,-1.79 4.043,0.883 c 0,0 1.59,1.854 1.783,2.466 0.194,0.611 0.362,2.644 0.362,2.644 l 0.802,0.42 1.228,-0.587 1.046,-1.809 1.626,-0.174 c 0,0 1.022,-0.389 1.417,0.227 0.395,0.616 3.441,0.467 3.619,1.891 0.179,1.423 0.164,2.234 0.353,3.049 0.188,0.815 0.993,1.234 0.993,1.234 0,0 0.607,0.012 1.224,-0.384 0.617,-0.396 2.459,-1.378 2.459,-1.378 l 1.015,0.018 2.434,0.043 c 0,0 1.217,0.021 1.611,0.637 0.396,0.615 1.609,0.84 1.592,1.854 -0.019,1.015 0.573,2.039 0.573,2.039 l 1.01,0.423 1.211,0.225 c 0,0 2.233,-0.164 2.85,-0.559 0.616,-0.396 2.456,-1.176 2.456,-1.176 0,0 2.035,-0.369 2.637,0.047 0.602,0.416 1.597,1.65 1.989,2.266 0.398,0.615 0.592,1.025 1.179,2.254 0.587,1.227 0.587,1.227 0.587,1.227 l 2.015,0.847 0.818,-0.392 1.447,-1.598 2.25,-0.975 c 0,0 0.825,-0.797 1.419,0.025 0.595,0.82 1.2,1.035 1.592,1.854 0.391,0.818 3.562,5.135 3.562,5.135 l 2.631,0.451 2.057,-1.588 3.061,-0.961 c 0,0 1.191,1.441 1.587,2.057 0.395,0.615 1.404,1.039 1.583,2.26 0.182,1.221 0.779,2.043 0.779,2.043 l 1.208,0.427 2.64,-0.157 2.865,-1.369 c 0,0 1.626,-0.175 1.814,0.64 0.189,0.814 2.992,2.893 3.377,4.117 0.388,1.224 1.577,2.665 1.577,2.665 l 2.857,-0.965 1.419,0.025 1.825,0.234 0.987,1.438 0.584,1.43 0.388,1.225 c 0,0 0.388,0.818 0.989,1.234 0.602,0.418 0.602,0.418 0.602,0.418 l 2.637,0.045 2.434,0.043 c 0,0 0.815,-0.189 1.211,0.426 0.395,0.616 0.588,1.229 0.982,1.844 0.396,0.615 0.604,0.418 0.583,1.431 -0.019,1.015 0.161,2.438 0.161,2.438 l 1.615,0.434 3.256,-0.552 c 0,0 0.615,-0.396 0.808,0.217 0.193,0.613 0.783,1.637 0.783,1.637 0,0 0.189,1.017 0.171,1.829 -0.015,0.812 -0.035,2.027 -0.035,2.027 l 2.211,1.257 1.621,0.028 c 0,0 0.826,-0.797 1.605,1.043 0.782,1.84 2.324,6.33 2.324,6.33 l -1.836,0.576 c 0,0 -2.232,-0.039 -2.844,0.154 -0.611,0.191 -1.182,-2.05 -1.182,-2.05 l -2.775,-3.701 -1.172,-2.657 -1.992,-2.064 -1.785,-2.264 -5.414,-3.543 -7.047,-3.37 -4.826,-2.519 -6.44,-2.953 -2.608,-1.669 -6.26,-1.732 -8.844,-4.821 -9.075,-3.202 -9.281,-3.002 c 0,0 -5.655,-1.52 -6.05,-2.135 -0.395,-0.616 -3.014,-1.676 -4.424,-2.31 -1.408,-0.633 -6.451,-2.344 -6.451,-2.344 l -7.662,-2.771 -12.712,-4.078 -8.886,-2.387 -10.295,-3.02 -7.267,-2.157 z"
         id="path28" />
      <path
         inkscape:connector-curvature="0"
         style="fill:#f9af7f;stroke:#f9af7f"
         d="m 6670.942,272.189 -3.207,-2.289 -3.029,-0.864 -1.426,0.381 -3.467,0.954 -0.608,-0.01 -2.809,-1.875 -3.65,-0.064 -2.65,0.765 -1.449,1.598 c 0,0 -0.825,0.797 -1.622,-0.028 -0.797,-0.825 -2.79,-2.889 -2.79,-2.889 l -3.042,-0.053 c 0,0 -2.851,0.558 -3.064,1.164 -0.209,0.605 -1.858,1.794 -1.858,1.794 0,0 -2.014,-0.847 -2.408,-1.463 -0.396,-0.615 -2.798,-2.483 -2.798,-2.483 l -1.017,0.185 -2.446,0.566 -1.259,2.413 -2.435,-0.042 -1.392,-1.648 -1.806,-1.045 -3.247,-0.057 c 0,0 -0.189,-0.815 -1.029,0.793 -0.839,1.609 -2.265,2.192 -2.265,2.192 l -2.03,-0.238 -1.386,-1.851 -4.247,-0.885 -2.837,-0.049 c 0,0 -1.43,0.381 -1.643,0.985 -0.214,0.605 -0.63,1.207 -0.63,1.207 -0.613,0.192 -2.641,0.157 -2.641,0.157 l -1.982,-2.672 -3.641,-0.673 c 0,0 -1.829,0.171 -2.249,0.976 -0.42,0.805 -1.655,1.797 -1.655,1.797 l -0.615,0.395 -1.602,-1.246 c 0,0 -1.59,-1.854 -2.199,-1.865 -0.608,-0.01 -3.644,-0.267 -3.644,-0.267 l -1.669,2.406 -1.658,2 -1.412,-0.431 -0.371,-2.036 -1.822,-0.234 -4.672,0.324 -3.711,3.385 10.34,0.383 7.697,0.744 5.688,-0.307 5.687,-0.307 5.078,-0.317 6.288,0.11 7.719,-0.474 6.89,0.526 6.704,-0.492 8.298,1.159 6.698,-0.086 9.128,0.159 7.102,0.124 4.459,0.281 7.101,-0.079"
         id="path30" />
      <path
         inkscape:connector-curvature="0"
         style="fill:#f9af7f;stroke:#f9af7f"
         d="m 6676.869,420.608 -4.42,-2.513 -2.854,0.763 -1.259,2.412 -3.05,0.354 -1.604,-1.043 -2.028,-0.036 -1.225,0.386 -0.426,1.209 -1.456,2.005 -0.816,0.188 -1.205,-0.63 -2.412,-1.259 -1.218,-0.021 -3.05,0.354 -0.441,2.02 -0.438,1.82 -2.65,0.764 -2.416,-1.056 -1.213,-0.225 -3.246,-0.057 -1.647,1.392 -0.054,3.043 c 0,0 -1.634,0.58 -2.246,0.772 -0.611,0.192 -1.616,-0.028 -1.616,-0.028 l -1.622,-0.434 -2.433,-0.043 -3.673,1.153 -1.267,2.819 -0.215,0.807 5.917,-1.927 4.895,-1.536 9.377,-2.475 5.922,-2.129 6.934,-2.11 6.321,-1.715 4.487,-1.343 5.092,-1.129 3.255,-0.552 z"
         id="path32" />
      <path
         inkscape:connector-curvature="0"
         style="fill:#f9af7f;stroke:#f9af7f"
         d="m 6733.724,464.612 -3.406,-2.493 -2.415,-1.058 -3.058,0.759 -1.038,1.402 c 0,0 -1.613,-0.637 -2.008,-1.252 -0.395,-0.615 -1.598,-1.449 -1.598,-1.449 l -2.822,-1.063 -1.444,1.395 -2.071,2.399 -2.011,-1.05 -2.199,-1.864 -2.421,-0.854 -1.22,0.182 -2.266,1.99 c 0,0 -0.215,0.604 -1.026,0.591 -0.811,-0.015 -0.817,0.391 -1.416,-0.228 -0.595,-0.619 -1.594,-1.651 -1.594,-1.651 l -3.84,-0.879 -3.871,0.946 -2.88,2.183 -1.434,0.786 8.313,0.348 6.287,0.109 4.86,0.491 5.879,0.305 5.684,-0.103 5.271,0.294 5.479,0.096 4.265,-0.332 z"
         id="path34" />
      <path
         inkscape:connector-curvature="0"
         style="fill:#f9af7f;stroke:#f9af7f"
         d="m 7236.965,368.893 -0.761,2.097 -0.507,1.398 -1.176,-0.031 -1.125,-1.91 -1.584,-2.395 -4.207,-1.051 -1.447,1.373 -2.405,2.055 c 0,0 -0.482,0.457 -1.188,0.438 -0.705,-0.019 -0.951,0.446 -1.627,-0.748 -0.674,-1.194 -2.023,-3.581 -2.023,-3.581 l -4.936,-0.129 c 0,0 -1.904,0.891 -2.158,1.59 -0.254,0.699 -1.002,2.325 -1.002,2.325 0,0 -0.47,-0.013 -1.182,0.204 -0.711,0.217 -0.724,0.687 -1.637,-0.277 -0.914,-0.965 -3.424,-4.089 -3.424,-4.089 l -4.46,-0.353 -1.206,1.146 -1.23,2.085 -1.707,2.307 -1.645,-0.043 c 0,0 -0.478,0.223 -1.151,-0.971 -0.673,-1.194 -2.049,-2.406 -2.049,-2.406 l -4.224,-0.58 c 0,0 -0.711,0.217 -1.429,0.668 -0.718,0.451 -3.104,1.801 -3.104,1.801 l -0.712,0.217 -2.542,-1.714 -4.381,-3.407 -2.833,0.396 c 0,0 -0.933,-0.26 -2.157,1.591 -1.225,1.85 -2.202,3.234 -2.202,3.234 l -1.64,-0.277 -1.392,-0.742 -3.458,-2.679 -1.393,-0.741 -2.808,-0.545 -1.453,1.609 -0.995,2.09 -1.646,-0.043 -0.939,-0.024 c 0,0 0.482,-0.457 -0.442,-0.952 -0.931,-0.495 -3.937,-2.455 -3.937,-2.455 l -3.313,0.854 -1.938,2.066 0.371,3.773 7.305,-0.514 10.355,-0.199 6.588,-0.063 9.625,0.723 7.992,0.209 7.984,0.444 7.759,0.203 8.459,0.457 7.75,0.438 8.935,-10e-4 4.695,0.358 4.459,0.352 1.881,0.05"
         id="path36" />
      <path
         inkscape:connector-curvature="0"
         style="fill:#f9af7f;stroke:#f9af7f"
         d="m 7302.188,483.032 -3.662,-3.858 -3.271,-0.791 -2.617,1.106 -0.531,2.339 -1.447,1.373 c 0,0 -0.26,0.936 -0.947,0.211 -0.686,-0.725 -2.034,-3.111 -2.034,-3.111 l -2.599,0.403 -2.176,2.294 -0.75,1.627 c 0,0 0.236,0.006 -0.258,0.935 -0.496,0.928 -0.496,0.928 -0.496,0.928 l -1.41,-0.037 c 0,0 -0.451,-0.718 -1.139,-1.441 -0.687,-0.724 -3.014,-1.489 -3.014,-1.489 l -1.891,0.186 -2.388,1.349 -1.222,1.85 -0.287,1.875 -1.188,0.438 -0.705,-0.019 c 0,0 -0.712,0.217 -1.398,-0.506 -0.688,-0.725 -2.298,-1.943 -2.298,-1.943 l -3.065,0.154 c 0,0 -2.128,0.416 -2.399,1.819 -0.272,1.405 -0.31,2.814 -0.326,3.52 -0.021,0.706 0.933,0.26 -0.021,0.706 -0.951,0.445 -2.604,0.637 -2.604,0.637 0,0 0.699,0.253 -0.681,-0.959 -1.38,-1.211 -2.301,-1.941 -2.301,-1.941 l -3.749,-0.569 c 0,0 -2.121,0.181 -2.375,0.88 -0.254,0.7 -0.477,0.222 -0.748,1.627 -0.271,1.404 -0.271,1.404 -0.271,1.404 l -1.225,1.85 -3.074,0.625 c 0,0 -0.02,0.704 -0.688,-0.724 -0.668,-1.429 -1.584,-2.395 -1.584,-2.395 l -4.701,-0.123 c 0,0 -2.164,1.825 -2.184,2.531 -0.018,0.705 -0.303,2.579 -0.303,2.579 l -0.702,-0.019 -2.069,-1.936 -1.891,0.421 -1.664,0.662 -2.865,1.571 -1.02,3.031 9.939,-2.327 16.063,-2.638 13.015,-2.952 7.59,-2.388 7.11,-1.932 5.692,-1.968 4.498,-1.058 7.56,-1.214 7.093,-1.46 1.678,-1.133 z"
         id="path38" />
    </g>
  </g>
</svg>
