<?xml version="1.0" encoding="UTF-8" standalone="no"?>
<!-- Created with Inkscape (http://www.inkscape.org/) -->

<svg
   xmlns:dc="http://purl.org/dc/elements/1.1/"
   xmlns:cc="http://creativecommons.org/ns#"
   xmlns:rdf="http://www.w3.org/1999/02/22-rdf-syntax-ns#"
   xmlns:svg="http://www.w3.org/2000/svg"
   xmlns="http://www.w3.org/2000/svg"
   xmlns:sodipodi="http://sodipodi.sourceforge.net/DTD/sodipodi-0.dtd"
   xmlns:inkscape="http://www.inkscape.org/namespaces/inkscape"
   version="1.1"
   width="681.13281"
   height="60.163372"
   id="svg4242"
   style="enable-background:new"
   inkscape:version="0.48+devel r9873 custom"
   sodipodi:docname="mountainred.svg">
  <metadata
     id="metadata1283">
    <rdf:RDF>
      <cc:Work
         rdf:about="">
        <dc:format>image/svg+xml</dc:format>
        <dc:type
           rdf:resource="http://purl.org/dc/dcmitype/StillImage" />
        <dc:title />
      </cc:Work>
    </rdf:RDF>
  </metadata>
  <sodipodi:namedview
     pagecolor="#ffffff"
     bordercolor="#666666"
     borderopacity="1"
     objecttolerance="10"
     gridtolerance="10"
     guidetolerance="10"
     inkscape:pageopacity="0"
     inkscape:pageshadow="2"
     inkscape:window-width="2560"
     inkscape:window-height="1300"
     id="namedview1281"
     showgrid="false"
     inkscape:zoom="7.9562552"
     inkscape:cx="116.06718"
     inkscape:cy="2.8978541"
     inkscape:window-x="0"
     inkscape:window-y="0"
     inkscape:window-maximized="0"
     inkscape:current-layer="svg4242" />
  <defs
     id="defs1282" />
  <g
     transform="matrix(0.0578618,0,0,0.05786219,-11.318468,-5.4906839)"
     id="Mountains">
    <g
       id="Mountains_x2C__Red_Fill">
      <polygon
         style="fill:#ec1e2e;stroke:#ec1e2e"
         points="3389.373,298.487 3386.412,301.35 3382.958,298.783 3379.998,302.04 3376.147,300.658 3371.905,305.494 3371.51,306.186 3376.147,305.297 3383.846,303.718 3392.334,301.448 3394.801,300.363 "
         id="polygon6" />
      <polygon
         style="fill:#ec1e2e;stroke:#ec1e2e"
         points="5570.451,488.104 5572.17,486.379 5573.145,487.688 5573.989,485.421 5574.423,487.605 5575.909,485.233 5576.493,486.784 5577.597,484.398 5578.277,486.847 5579.569,486.382 5579.88,488.434 5573.741,488.857 5568.368,489.308 5563.899,489.407 5560.45,489.542 5556.128,489.136 5558.601,487.691 5558.836,488.337 5560.829,485.982 5560.899,487.644 5562.195,487.051 5563.157,488.743 5564.871,487.144 5565.596,488.317 5566.933,486.579 5567.657,487.752 5568.598,486.382 "
         id="polygon8" />
      <path
         inkscape:connector-curvature="0"
         style="fill:#ec1e2e;stroke:#ec1e2e"
         d="m 7196.128,280.352 2.872,-2.041 2.363,-0.408 0.681,0.959 1.404,0.271 2.103,0.525 1.898,-0.656 3.558,-1.083 2.151,-1.354 1.152,0.971 1.145,1.207 1.15,0.971 1.645,0.043 1.664,-0.662 2.158,-1.59 0.712,-0.217 0.711,-0.217 1.856,0.99 0.902,1.434 0.923,0.73 2.351,0.062 1.41,0.037 1.67,-0.897 3.117,-2.271 c 1.175,0.03 1.175,0.03 1.175,0.03 l 1.368,1.684 0.438,1.188 0.692,0.488 1.17,0.266 3.539,-0.378 1.437,-0.903 1.427,-0.668 0.939,0.024 0.909,1.2 0.916,0.965 4.226,0.346 2.615,-1.107 3.315,-0.854 1.133,1.677 2.567,0.771 0.698,0.254 2.616,-1.107 1.41,0.037 1.41,0.037 1.151,0.971 0.451,0.719 -10.576,-0.277 -4.467,-0.117 -6.111,-0.16 -9.39,-0.717 -6.594,0.299 -5.877,-0.154 -8.687,-0.463 -9.418,0.224 -9.638,-0.253 -4.44,-0.826 z"
         id="path10" />
      <path
         inkscape:connector-curvature="0"
         style="fill:#ec1e2e;stroke:#ec1e2e"
         d="m 7481.43,289.705 -3.94,-2.221 c 0,0 -1.856,-0.989 -2.561,-1.008 -0.706,-0.018 -1.646,-0.043 -1.646,-0.043 l -1.424,0.434 -1.224,1.85 -2.413,2.289 -0.939,-0.024 c 0,0 -1.15,-0.972 -1.364,-1.683 -0.22,-0.711 -1.58,-2.629 -1.58,-2.629 l -3.062,0.155 -0.73,0.922 -1.225,1.849 -0.513,1.634 -1.194,0.675 c 0,0 -2.091,-0.996 -2.302,-1.942 -0.21,-0.946 -1.113,-2.381 -1.113,-2.381 l -1.874,-0.284 -2.146,1.119 -1.225,1.85 -0.284,1.875 -1.435,0.902 c 0,0 -0.482,0.458 -1.163,-0.5 -0.682,-0.959 -0.903,-1.436 -1.59,-2.158 -0.688,-0.725 -2.079,-1.467 -2.079,-1.467 l -3.314,0.854 -1.64,-0.277 -1.24,2.555 -0.727,0.688 -1.652,0.191 c 0,0 -1.639,-0.278 -1.855,-0.989 -0.217,-0.712 -1.348,-2.388 -1.348,-2.388 l -2.333,-0.768 c 0,0 -1.404,-0.271 -1.899,0.656 -0.494,0.928 -2.671,3.225 -2.671,3.225 l -0.73,0.92 -2.097,-0.76 -2.79,-1.249 -2.845,0.866 c 0,0 -2.128,0.415 -2.623,1.343 -0.494,0.928 -1.719,2.778 -1.719,2.778 l 8.943,-0.237 8.729,-0.946 9.649,-0.219 8.703,-0.008 4.242,-0.358 6.589,-0.063 3.792,-1.076 6.377,-1.01 4.724,-0.582 6.132,-0.779 2.629,-1.581 z"
         id="path12" />
      <path
         inkscape:connector-curvature="0"
         style="fill:#ec1e2e;stroke:#ec1e2e"
         d="m 7396.773,387.689 -0.668,-1.43 -1.108,-2.616 -2.572,-0.538 c 0,0 -0.23,-0.24 -0.719,0.452 -0.486,0.692 -1.719,2.777 -1.719,2.777 l -2.355,0.174 c 0,0 -0.706,-0.019 -0.904,-1.435 -0.198,-1.417 -1.553,-3.569 -1.553,-3.569 l -3.762,-0.099 c 0,0 -1.198,0.909 -1.452,1.608 -0.251,0.699 -0.989,1.856 -0.989,1.856 l -1.646,-0.043 -0.892,-1.906 -1.126,-1.91 -0.673,-1.193 -1.164,-0.502 -1.881,-0.049 -1.646,-0.043 -0.513,1.633 -0.488,0.692 -2.346,-0.296 -1.063,-4.262 c 0,0 -2.53,-2.184 -3.254,-1.497 -0.725,0.687 -3.816,2.018 -3.816,2.018 0,0 0.454,0.717 -0.26,0.934 -0.711,0.217 -2.839,0.632 -2.839,0.632 l -2.55,-1.479 0.111,-4.23 -3.729,-1.274 c 0,0 -3.321,1.089 -3.571,1.788 -0.258,0.699 -1.25,2.791 -1.25,2.791 l -1.649,-0.044 -1.351,-2.152 -2.299,-2.177 c 0,0 -0.699,-0.254 -1.64,-0.278 -0.939,-0.024 -3.29,-0.087 -3.29,-0.087 l -2.646,2.283 -0.719,0.451 -0.698,-0.253 -2.037,-3.11 -3.037,-0.786 -2.586,-0.067 c 0,0 -1.688,1.602 -1.941,2.301 -0.253,0.699 -1.23,2.086 -1.23,2.086 0,0 -1.164,-0.501 -1.615,-1.219 -0.451,-0.718 -2.282,-2.647 -2.282,-2.647 l -3.271,-0.792 -2.822,-0.073 c 0,0 0.01,-0.235 -0.494,0.928 -0.502,1.163 -1.009,2.562 -1.009,2.562 l -0.972,1.15 -0.945,0.211 -1.59,-2.159 -3.445,-3.148 -4.039,1.542 c 0,0 -1.199,0.908 -2.164,1.824 -0.965,0.916 -1.015,2.797 -1.015,2.797 l -1.88,-0.05 -0.91,-1.2 -1.818,-2.4 -2.796,-1.014 -1.41,-0.037 c 0,0 -0.501,1.164 -0.755,1.863 -0.254,0.697 -0.971,1.15 -0.971,1.15 0,0 0.433,1.422 -0.711,0.216 -1.145,-1.206 -2.741,-3.13 -2.741,-3.13 l -1.627,-0.748 -2.344,-0.297 c 0,0 -0.483,0.459 -0.972,1.151 -0.487,0.692 -1.694,1.837 -1.694,1.837 l -0.718,0.452 -0.939,-0.024 -0.867,-2.846 -3.728,-1.273 -3.058,-0.08 -0.972,1.15 -0.983,1.621 c 0,0 0.451,0.717 -0.736,1.156 -1.187,0.439 0.217,0.712 -1.188,0.439 -1.404,-0.271 -2.771,-1.954 -2.771,-1.954 l -0.915,-0.965 c 0,0 -2.079,-1.466 -2.785,-1.484 -0.705,-0.019 -2.826,0.161 -2.826,0.161 l -1.224,1.85 -1.207,1.145 -2.345,-0.297 -0.186,-1.887 -0.888,-1.904 -1.643,-0.279 -1.634,-0.512 -2.349,-0.062 c 0,0 -0.935,-0.26 -0.972,1.151 -0.037,1.41 -0.768,2.331 -0.768,2.331 l -0.018,0.706 -0.056,2.116 12.909,1.043 11.264,1 10.556,1.219 12.443,0.795 3.284,0.322 6.588,-0.063 4.936,0.129 6.348,0.167 5.412,-0.094 5.177,-0.1 5.407,0.142 6.34,0.4 6.816,0.179 7.052,0.185 6.334,0.637 5.4,0.377 6.547,1.583 7.241,1.836 7.496,1.137 5.828,2.035 2.789,1.248 5.864,0.625 5.623,0.852 1.641,0.279"
         id="path14" />
    </g>
  </g>
</svg>
