<?xml version="1.0" encoding="UTF-8" standalone="no"?>
<!-- Created with Inkscape (http://www.inkscape.org/) -->

<svg
   xmlns:dc="http://purl.org/dc/elements/1.1/"
   xmlns:cc="http://creativecommons.org/ns#"
   xmlns:rdf="http://www.w3.org/1999/02/22-rdf-syntax-ns#"
   xmlns:svg="http://www.w3.org/2000/svg"
   xmlns="http://www.w3.org/2000/svg"
   xmlns:sodipodi="http://sodipodi.sourceforge.net/DTD/sodipodi-0.dtd"
   xmlns:inkscape="http://www.inkscape.org/namespaces/inkscape"
   version="1.1"
   width="681.13281"
   height="60.163372"
   id="svg4242"
   style="enable-background:new"
   inkscape:version="0.48+devel r9873 custom"
   sodipodi:docname="riversdecorative.svg">
  <metadata
     id="metadata1283">
    <rdf:RDF>
      <cc:Work
         rdf:about="">
        <dc:format>image/svg+xml</dc:format>
        <dc:type
           rdf:resource="http://purl.org/dc/dcmitype/StillImage" />
        <dc:title></dc:title>
      </cc:Work>
    </rdf:RDF>
  </metadata>
  <sodipodi:namedview
     pagecolor="#ffffff"
     bordercolor="#666666"
     borderopacity="1"
     objecttolerance="10"
     gridtolerance="10"
     guidetolerance="10"
     inkscape:pageopacity="0"
     inkscape:pageshadow="2"
     inkscape:window-width="2560"
     inkscape:window-height="1300"
     id="namedview1281"
     showgrid="false"
     inkscape:zoom="7.9562552"
     inkscape:cx="116.06718"
     inkscape:cy="7.9253449"
     inkscape:window-x="248"
     inkscape:window-y="497"
     inkscape:window-maximized="1"
     inkscape:current-layer="svg4242" />
  <defs
     id="defs1282" />
  <g
     transform="matrix(0.05786179,0,0,0.05786302,-11.318451,-5.4909889)"
     id="River_Courses">
    <g
       id="River_Courses_x2C__supplementary_directive">
      <polyline
         style="fill:none;stroke:#db5151;stroke-width:0.5;stroke-linejoin:round;stroke-dasharray:0.5, 0.5"
         points="    825.639,403.402 827.729,403.482 830.333,404.348 832.122,404.92 834.86,405.137 836.933,404.734 839.918,403.014     842.127,401.966 844.039,401.57 846.124,401.49 847.586,401.916 848.721,402.194 851.614,402.244 853.835,401.516     856.531,400.609 858.744,399.722 860.3,398.377 861.07,397.544   "
         id="polyline6" />
      <polyline
         style="fill:none;stroke:#db5151;stroke-width:0.5;stroke-linejoin:round;stroke-dasharray:0.5, 0.5"
         points="    921.436,286.844 920.708,288.765 921.529,290.927 923.007,292.704 924.239,293.307 925.301,293.919 928.283,295.259     930.259,296.835   "
         id="polyline8" />
      <polyline
         style="fill:none;stroke:#db5151;stroke-width:0.5;stroke-linejoin:round;stroke-dasharray:0.5, 0.5"
         points="    979.916,250.695 980.036,252.561 981.958,253.289 985.799,254.743 989.165,256.74 990.971,258.327 992.165,260.975     992.137,263.192   "
         id="polyline10" />
      <polyline
         style="fill:none;stroke:#db5151;stroke-width:0.5;stroke-linejoin:round;stroke-dasharray:0.5, 0.5"
         points="    864.186,347.274 866.326,346.114 868.723,346.3 870.982,347.005 873.21,347.202 875.71,346.358 878.803,344.114 881.172,341.235     884.252,338.821 887.717,337.064 891.438,336.653 893.982,336.489 898.109,337.073 901.272,338.573 903.993,341.122     906.816,342.644 910.274,343.442 914.516,343.167 917.833,341.761 921.838,340.479 924.383,340.315 926.96,340.659     929.932,341.829 933.232,342.81 935.29,343.017 939.465,341.725 944.794,339.847 947.296,339.004 950.892,339.282 952.44,339.522     955.4,340.524 958.317,340.847 962.909,340.72 967.889,338.694 972.043,337.062 973.547,336.624 975.413,336.504 977.482,336.882     980.443,337.882 983.075,339.075 985.598,338.571 987.995,338.757 989.883,338.976 991.694,338.007 994.627,335.942     996.384,334.126 997.867,333.349 1001.089,333.14 1004.166,333.282 1007.635,334.25 1010.257,335.272 1012.697,336.138     1015.115,336.662 1017.693,337.007 1019.583,337.226 1022.433,336.53 1026.46,335.588 1030.625,334.126 1033.657,333.589     1036.224,333.764 1039.002,334.606 1042.347,336.265 1044.619,337.14 1046.157,337.21 1049.39,337.171 1052.264,336.815     1054.595,335.983 1056.258,335.364 1058.973,335.189 1061.73,335.692 1063.821,336.409 1065.064,337.181 1066.984,337.907     1069.223,338.274 1071.1,338.323   "
         id="polyline12" />
      <polyline
         style="fill:none;stroke:#db5151;stroke-width:0.5;stroke-linejoin:round;stroke-dasharray:0.5, 0.5"
         points="    865.719,394.704 869.896,393.412 873.119,393.203 876.025,393.355 878.499,394.729 881.071,397.63 882.378,399.419     885.362,400.759 889.613,400.655 895.485,399.253 898.485,398.207 900.679,397.895 903.744,397.867 907.088,399.524     909.808,402.073 911.511,404.69 914.591,407.557 916.557,408.964 920.524,409.729   "
         id="polyline14" />
      <path
         inkscape:connector-curvature="0"
         style="fill:none;stroke:#db5151;stroke-width:0.5;stroke-linejoin:round;stroke-dasharray:0.5, 0.5"
         d="m 951.164,406.726 2.282,1.045 1.5,2.117 2.419,0.525 1.696,-0.109 3.19,-0.718 1.801,-1.139 3.836,-1.271 3.235,-0.038 3.808,0.945 2.982,1.341 c 0,0 1.275,1.281 1.647,1.768 0.372,0.487 2.463,1.203 2.463,1.203 l 4.614,0.213 2.342,-0.663 2.118,-1.499 3.349,-0.898 2.162,-0.821 3.053,-0.197 3.12,0.819 2.282,1.046 1.932,0.896 1.527,-0.099 2.003,-0.64 1.992,-0.812 2.375,-0.153 1.888,0.22 1.56,0.41"
         id="path16" />
      <polyline
         style="fill:none;stroke:#db5151;stroke-width:0.5;stroke-linejoin:round;stroke-dasharray:0.5, 0.5"
         points="    1063.536,400.48 1065.609,398.303 1068.948,397.234 1071.131,396.752 1074.026,396.735 1076.286,397.44   "
         id="polyline18" />
      <path
         inkscape:connector-curvature="0"
         style="fill:none;stroke:#db5151;stroke-width:0.5;stroke-linejoin:round;stroke-dasharray:0.5, 0.5"
         d="m 1118.738,340.012 2.534,-0.335 3.107,0.651 1.921,0.728 1.719,0.229 2.206,-0.143 2.796,-1.543 2.999,-1.046 3.053,-0.197 2.95,0.83 2.081,0.547 3.327,-1.236 3.918,-2.639 3.486,-1.418 2.884,-0.187 4.455,0.394 c 0,0 2.895,-0.017 3.562,-0.23 0.667,-0.213 3.464,-1.757 3.464,-1.757 l 1.619,-1.298 3.792,-1.948 3.892,-0.422 2.916,0.323 2.906,0.152 3.054,-0.198 2.331,-0.831 3.771,-2.289 2.944,-1.894 2.818,-1.204 2.51,-0.674 3.542,-0.57 3.223,-0.208 2.035,-0.132 1.198,0.093 2.988,-1.215 1.769,-1.647 2.264,-1.85 3.011,-0.877 2.724,-0.006 3.268,0.471 2.692,-0.516 3.613,-2.107 2.624,-1.532 1.282,-1.274 1.312,-0.768 3.553,-0.4 1.844,-0.459 2.456,-1.521 2.233,-2.359 1.903,-2.168 -0.268,-1.516 0.207,-2.057 1.067,-1.943 1.947,-1.489 1.611,-1.467 1.854,-0.29 1.493,-0.607 1.258,-1.615 0.569,-1.74 1.428,-1.625 2.806,-1.375 2.682,-0.684 2.207,-0.143"
         id="path20" />
      <polyline
         style="fill:none;stroke:#db5151;stroke-width:0.5;stroke-linejoin:round;stroke-dasharray:0.5, 0.5"
         points="    1209.703,350.483 1213.593,350.062 1217.222,350.849 1219.959,351.013 1222.631,350.159 1226.23,347.882 1229.194,346.327     1232.227,345.79 1235.156,346.282 1237.597,347.146 1241.985,346.522 1246.15,345.06 1248.257,343.391 1251.414,342.165     1254.31,342.147 1257.767,342.946 1261.757,344.052 1264.991,344.013 1267.481,342.999 1271.613,341.028 1274.623,340.152     1276.805,339.671 1279.383,340.015 1281.293,340.573 1283.702,340.928 1285.918,340.955 1288.429,340.282 1290.727,338.94     1293.863,337.375 1296.036,336.724 1298.547,336.05 1301.261,335.874 1304.326,335.847 1306.543,335.874 1308.726,335.392     1311.534,334.018 1313.639,332.349 1314.221,330.778   "
         id="polyline22" />
      <polyline
         style="fill:none;stroke:#db5151;stroke-width:0.5;stroke-linejoin:round;stroke-dasharray:0.5, 0.5"
         points="    1167.067,381.349 1166.789,384.944 1164.928,387.792 1161.71,390.724 1159.626,392.733 1159.905,394.419 1160.387,396.602     1160.223,399.338 1158.555,402.513 1155.146,405.118   "
         id="polyline24" />
      <polyline
         style="fill:none;stroke:#db5151;stroke-width:0.5;stroke-linejoin:round;stroke-dasharray:0.5, 0.5"
         points="    1340.166,328.929 1343,330.62 1344.659,332.558 1344.845,335.441 1343.652,338.074 1343.379,339.113 1344.325,340.585     1345.442,342.046 1345.322,345.461 1343.396,347.29 1341.618,348.767 1341.695,349.955 1342.642,351.427 1342.434,353.484     1341.166,354.929 1339.173,355.739 1337.849,356.337 1336.738,357.601 1335.627,358.864 1335.726,360.392   "
         id="polyline26" />
      <polyline
         style="fill:none;stroke:#db5151;stroke-width:0.5;stroke-linejoin:round;stroke-dasharray:0.5, 0.5"
         points="    1344.413,302.421 1346.153,302.989 1348.626,304.362 1350.329,306.978 1351.874,309.774 1353.478,310.863 1355.896,311.388     1359.716,312.504 1362.327,313.356   "
         id="polyline28" />
      <polyline
         style="fill:none;stroke:#db5151;stroke-width:0.5;stroke-linejoin:round;stroke-dasharray:0.5, 0.5"
         points="    1501.266,235.89 1502.93,235.271 1505.431,234.427 1507.127,234.318 1510.257,235.308 1513.218,236.309   "
         id="polyline30" />
      <path
         inkscape:connector-curvature="0"
         style="fill:none;stroke:#db5151;stroke-width:0.5;stroke-linejoin:round;stroke-dasharray:0.5, 0.5"
         d="m 1468.189,372.438 0.695,2.851 0,2.726 -0.661,2.939 -1.374,2.474 -2.91,2.403 -3.327,1.237 -1.97,1.149 -1.747,1.986 c 0,0 -0.94,1.253 -1.077,1.773 -0.137,0.52 -1.068,1.943 -1.068,1.943 l 0.122,1.865 0.333,2.533"
         id="path32" />
      <polyline
         style="fill:none;stroke:#db5151;stroke-width:0.5;stroke-linejoin:round;stroke-dasharray:0.5, 0.5"
         points="    1617.48,299.617 1618.642,299.888 1619.516,300.164 1620.964,300.141 1622.412,300.119 1623.86,300.096 1625.892,300.354     1627.335,300.041   "
         id="polyline34" />
      <polyline
         style="fill:none;stroke:#db5151;stroke-width:0.5;stroke-linejoin:round;stroke-dasharray:0.5, 0.5"
         points="    1634.837,298.186 1636.58,298.448 1637.751,299.298 1639.506,300.429 1640.969,301.275 1642.716,301.827 1644.172,302.383     1646.209,302.931 1649.68,302.587 1651.408,301.981 1652.852,301.668 1654.584,301.351 1655.742,301.333 1659.227,301.858     1661.535,301.242 1662.692,301.223 1664.417,300.328 1665.562,299.441 1666.413,298.269 1667.557,297.382 1668.702,296.495     1669.562,295.902 1671.286,295.005 1672.132,293.544 1672.394,291.802 1672.082,290.358 1671.475,288.63 1672.321,287.168     1673.465,286.281 1674.61,285.394 1675.461,284.222 1676.312,283.051 1676.266,280.154 1674.189,277 1673.008,275.571     1670.977,275.313   "
         id="polyline36" />
      <polyline
         style="fill:none;stroke:#db5151;stroke-width:0.5;stroke-linejoin:round;stroke-dasharray:0.5, 0.5"
         points="    1674.984,277.945 1676.731,278.497 1677.903,279.347 1679.935,279.605 1682.835,279.85 1685.998,278.352 1688.867,276.568     1690.292,275.098 1691.722,273.917 1692.569,272.455 1693.712,271.567 1694.871,271.549 1696.881,270.359 1698.011,268.604     1699.712,266.26 1701.427,264.784 1702.875,264.761   "
         id="polyline38" />
      <polyline
         style="fill:none;stroke:#db5151;stroke-width:0.5;stroke-linejoin:round;stroke-dasharray:0.5, 0.5"
         points="    1726.624,258.772 1726.655,260.799 1727.55,262.523 1729.007,263.08 1730.474,264.215 1731.067,265.075 1730.523,267.401     1730.859,270.292 1728.569,272.066 1727.135,272.958 1723.959,273.587 1721.66,274.782 1720.235,276.253 1719.963,277.416     1720.574,279.434 1720.882,280.587 1720.049,282.918 1718.625,284.389 1717.466,284.407 1716.34,286.452 1716.357,287.611     1716.978,290.208 1717.281,291.072 1716.15,292.828 1715.317,295.158 1715.653,298.05 1716.848,300.349 1718.598,301.19     1719.775,302.33 1720.948,303.181 1721.825,303.746 1723.002,304.886 1723.895,306.321   "
         id="polyline40" />
      <path
         inkscape:connector-curvature="0"
         style="fill:none;stroke:#db5151;stroke-width:0.5;stroke-linejoin:round;stroke-dasharray:0.5, 0.5"
         d="m 1650.737,336.424 -1.434,0.891 0.045,2.896 0.896,1.725 -0.542,2.324 -0.562,1.168 -0.851,1.172 -1.72,1.186 -1.411,2.34 -0.824,2.91 -0.248,2.611 0.027,1.736 0.045,2.896 0.326,2.312 -0.833,2.332 -2.569,2.357 -1.702,2.342 -1.411,2.34 -0.262,1.744 0.619,2.596 0.606,1.729 -0.262,1.744 -0.552,1.746 c 0,0 -0.859,0.592 -1.426,1.471 -0.565,0.877 -1.709,1.764 -1.709,1.764 l -0.833,2.33 0.045,2.896 0.888,1.146 0.027,1.736 -1.421,1.76 -0.262,1.742"
         id="path42" />
      <path
         inkscape:connector-curvature="0"
         style="fill:none;stroke:#db5151;stroke-width:0.5;stroke-linejoin:round;stroke-dasharray:0.5, 0.5"
         d="m 1688.978,339.623 0.327,2.312 c 0,0 0.588,0.57 0.602,1.439 0.014,0.867 -1.08,4.941 -1.08,4.941 l -1.987,2.637 -1.113,2.916 0.06,3.764 0.62,2.598"
         id="path44" />
      <polyline
         style="fill:none;stroke:#db5151;stroke-width:0.5;stroke-linejoin:round;stroke-dasharray:0.5, 0.5"
         points="    1683.341,374.281 1682.209,376.037 1682.241,378.064 1682.585,381.535 1681.188,384.742 1679.477,386.508 1678.057,388.27     1676.939,390.893 1676.98,393.5 1676.713,394.951 1678.183,396.377 1678.795,398.395 1678.828,400.422 1678.275,402.17     1677.709,403.047   "
         id="polyline46" />
      <path
         inkscape:connector-curvature="0"
         style="fill:none;stroke:#db5151;stroke-width:0.5;stroke-linejoin:round;stroke-dasharray:0.5, 0.5"
         d="m 1716.689,339.768 -0.851,1.172 -0.553,1.746 1.2,2.588 1.484,2.295 c 0,0 0.874,0.275 0.892,1.434 0.018,1.158 -0.529,3.195 -0.529,3.195 l -1.679,3.793 -1.122,2.334 -0.23,3.77 1.484,2.295 1.466,1.135 1.199,2.588 2.358,2.57 0.638,3.756 0.059,3.764 -0.528,3.195 -3.145,2.656 -2.005,1.48 -2.312,0.326 -4.915,0.656 -2.018,0.611 -2.878,1.203 -2.877,1.203 -1.723,0.896 -2,1.77 -0.842,1.752 0.051,3.186 0.307,1.154 0.882,0.855 0.031,2.025 -0.257,2.033 -1.113,2.914"
         id="path48" />
      <path
         inkscape:connector-curvature="0"
         style="fill:none;stroke:#db5151;stroke-width:0.5;stroke-linejoin:round;stroke-dasharray:0.5, 0.5"
         d="m 1784.106,267.162 1.158,-0.018 1.757,1.131 3.208,1.398 1.153,-0.308 2.592,-0.91 2.304,-0.905 1.733,-0.317 2.896,-0.045 1.471,1.425 1.194,2.298 c 0,0 0.602,1.439 0.91,2.593 0.309,1.154 0.615,2.307 1.485,2.293 0.868,-0.014 2.032,0.258 2.032,0.258 l 2.607,-0.041 1.728,-0.606 1.742,0.262 2.917,1.403 2.372,3.439 1.181,1.43 1.214,3.457 1.474,1.714 2.046,1.127 c 0,0 2.625,1.118 3.498,1.393 0.874,0.276 3.774,0.52 3.774,0.52 l 6.357,-0.968 2.018,-0.611 1.946,-0.354 1.882,0.127 1.97,0.715 1.451,0.267 1.752,0.841 2.032,0.258 3.737,-1.797 3.15,-2.366 1.738,-0.027 2.591,-0.91 2.309,-0.615 2.317,-0.037 2.922,1.691 2.041,0.837 2.621,0.828 3.489,0.814 3.461,-0.923 3.149,-2.367 3.159,-1.788 2.891,-0.335 2.883,-0.915 4.917,-0.367 3.208,1.398 1.071,-0.203 1.417,0.448 1.286,0.275 4.059,0.225 2.028,-0.032 4.307,-2.385 4.293,-3.254 2.57,-2.357 2.597,-0.62 2.602,-0.331 3.49,0.814 2.333,1.122 1.752,0.841 2.027,-0.032 2.313,-0.326 1.443,-0.312 2.003,-1.48 2.305,-0.905 2.002,-1.48 1.155,-0.307 3.475,-0.055 1.172,0.851 2.05,1.416 2.621,0.828 3.19,0.24 1.729,-0.606 3.171,-0.919 2.018,-0.611"
         id="path50" />
      <path
         inkscape:connector-curvature="0"
         style="fill:none;stroke:#db5151;stroke-width:0.5;stroke-linejoin:round;stroke-dasharray:0.5, 0.5"
         d="m 1827.037,289.372 -1.435,0.892 -2.304,0.904 -2.003,1.48 -2.281,2.354 -2.569,2.357 -3.164,1.498 -2.018,0.611 -2.606,0.041 -1.171,-0.85 -2.621,-0.828 -1.714,1.476 -0.837,2.041 -0.865,0.303 -2.606,0.041 c 0,0 -2.293,1.484 -2.28,2.354 0.014,0.865 -0.25,2.31 -0.253,2.321 l 0,0 0.303,0.864 0.313,1.443 -0.86,0.593 -1.725,0.896 -1.705,2.055 0.022,1.448 0.602,1.439 1.181,1.43 c 0,0 0.598,1.149 0.032,2.027 -0.566,0.878 -1.135,1.466 -1.135,1.466 l -2.584,1.487 c 0,0 -0.869,0.014 -1.144,0.887 -0.276,0.873 -0.258,2.033 -0.258,2.033 l 0.028,1.736"
         id="path52" />
      <path
         inkscape:connector-curvature="0"
         style="fill:none;stroke:#db5151;stroke-width:0.5;stroke-linejoin:round;stroke-dasharray:0.5, 0.5"
         d="m 1835.458,290.688 -1.412,2.339 -0.258,2.032 0.901,2.013 0.602,1.439 c 0,0 0.313,1.444 0.036,2.317 -0.275,0.873 -0.28,0.584 -0.846,1.461 -0.565,0.877 -3.439,2.371 -3.439,2.371 l -1.728,0.607 -1.706,2.055 -0.823,2.909 0.33,2.602 0.896,1.725 1.199,2.588 -1.123,2.335"
         id="path54" />
      <path
         inkscape:connector-curvature="0"
         style="fill:none;stroke:#db5151;stroke-width:0.5;stroke-linejoin:round;stroke-dasharray:0.5, 0.5"
         d="m 1830.766,324.072 2.04,0.836 1.19,2.01 1.195,2.299 2.343,1.701 2.322,0.252 4.909,-0.945 1.435,-0.893 2.028,-0.031 2.022,-0.32 4.357,0.801 1.769,1.998 4.662,1.666 3.208,1.396 4.054,-0.062 2.014,-0.9 2.312,-0.326 2.602,-0.332 2.326,0.545 4.389,2.826 c 0,0 0.576,-0.297 2.038,0.549 1.46,0.846 5.257,2.812 5.257,2.812 l 1.16,-0.018 4.624,-0.652 1.135,-1.467 1.43,-1.18 3.462,-0.924 2.606,-0.041 1.747,0.553 1.461,0.846 3.508,1.973 1.181,1.43 c 0,0 1.161,0.271 2.319,0.254 1.161,-0.02 2.607,-0.041 2.607,-0.041 l 1.734,-0.318 3.159,-1.787 2.592,-0.91 2.882,-0.914 2.014,-0.9 c 0,0 1.751,0.842 2.62,0.828 0.869,-0.014 3.213,1.688 3.213,1.688 l 1.766,1.711 1.746,0.551 1.448,-0.021 2.896,-0.047 2.01,-1.189 1.721,-1.186 2.008,-1.191 2.306,-0.615 1.724,-0.896 2.029,-0.031 2.61,0.248 4.062,0.516 2.607,-0.041 2.035,0.547 c 0,0 0.875,0.277 1.752,0.842 0.877,0.566 2.09,4.023 2.09,4.023 l -0.25,2.322 c 0,0 -0.564,1.166 -1.129,2.045 -0.565,0.877 -2.846,3.23 -2.846,3.23 l -3.728,2.377 -1.706,2.053 c 0,0 -0.279,0.584 -0.841,1.752 -0.562,1.168 -1.973,3.508 -1.973,3.508 l -1.714,1.475 -1.444,0.312 -2.307,0.615 -3.751,0.928 -1.996,2.061 -2.284,2.062 0.027,1.738 0.044,2.895 -1.129,1.758 -0.862,0.592 -1.717,1.186 -2.314,0.326 -2.013,0.9"
         id="path56" />
      <polyline
         style="fill:none;stroke:#db5151;stroke-width:0.5;stroke-linejoin:round;stroke-dasharray:0.5, 0.5"
         points="    1911.465,298.184 1912.025,297.016 1913.161,295.55 1913.125,293.233 1912.525,291.672 1911.879,290.428 1911.389,289.181     1911.673,287.296 1912.277,285.876 1912.875,283.985   "
         id="polyline58" />
      <polyline
         style="fill:none;stroke:#db5151;stroke-width:0.5;stroke-linejoin:round;stroke-dasharray:0.5, 0.5"
         points="    1945.909,222.909 1947.693,225.777 1946.009,229.28 1944.588,231.04 1943.146,231.353   "
         id="polyline60" />
      <polyline
         style="fill:none;stroke:#db5151;stroke-width:0.5;stroke-linejoin:round;stroke-dasharray:0.5, 0.5"
         points="    1943.88,241.19 1946.2,241.443 1947.948,241.995 1949.703,243.126   "
         id="polyline62" />
      <path
         inkscape:connector-curvature="0"
         style="fill:none;stroke:#db5151;stroke-width:0.5;stroke-linejoin:round;stroke-dasharray:0.5, 0.5"
         d="m 2030.242,280.677 -1.132,1.755 0.026,1.738 1.197,2.299 0.887,1.145 0.606,1.729 c 0,0 0.312,1.443 -0.254,2.321 -0.565,0.878 -1.126,2.045 -1.126,2.045 l -2.295,1.484 -2.298,1.195 -1.135,1.466 0.596,1.149 1.752,0.842 0.327,2.312 c 0,0 0.012,0.868 -0.553,1.746 -0.566,0.878 -1.424,1.471 -1.424,1.471 l -0.263,1.742 0.603,1.439 0.881,0.855 c 0,0 0,-0.29 0.014,0.869 0.018,1.158 -0.836,2.041 -1.112,2.914 -0.277,0.873 -1.698,2.634 -1.698,2.634 l -0.846,1.462 -1.706,2.054 -1.153,0.309 -2.021,0.32 c 0,0 -2.022,0.322 -2.878,1.204 -0.857,0.881 -0.301,-0.576 -0.857,0.881 -0.555,1.459 0.292,-0.004 -0.555,1.459 -0.847,1.461 -0.525,3.482 -0.525,3.482 0,0 0.276,-0.873 0.303,0.865 0.028,1.736 0.028,1.736 0.028,1.736 l -1.44,0.604"
         id="path64" />
      <path
         inkscape:connector-curvature="0"
         style="fill:none;stroke:#db5151;stroke-width:0.5;stroke-linejoin:round;stroke-dasharray:0.5, 0.5"
         d="m 2035.461,317.961 1.481,2.004 0.62,2.597 -0.258,2.031 c 0,0 -0.283,0.295 -0.56,1.168 -0.276,0.873 -0.276,0.873 -0.262,1.742 0.014,0.869 0.9,2.014 0.9,2.014"
         id="path66" />
      <path
         inkscape:connector-curvature="0"
         style="fill:none;stroke:#db5151;stroke-width:0.5;stroke-linejoin:round;stroke-dasharray:0.5, 0.5"
         d="m 2083.388,252.613 -1.425,1.471 -2.579,1.778 0.027,1.738 0.032,2.027 2.34,1.412 1.172,0.85 c 0,0 0.031,2.027 0.045,2.896 0.013,0.869 0.021,1.449 -0.542,2.326 -0.566,0.877 -1.417,2.05 -1.417,2.05 l -0.547,2.036 1.498,3.162 1.172,0.851 0.901,2.013 0.027,1.738 -0.267,1.453 -0.856,0.883 -0.84,1.75 -0.245,2.901 c 0.019,1.158 0.019,1.158 0.019,1.158 l -2.283,2.063 -1.159,0.019 -1.465,-1.136 -1.172,-0.85 -2.611,-0.249 -1.154,0.308 -1.434,0.891 -1.158,0.019 -2.612,-0.248 -1.76,-1.421 -1.181,-1.43 -1.77,-2 -2.625,-1.118 -3.47,0.345 -1.158,0.018 -3.751,0.928 -1.738,0.027 -2.035,-0.548 -2.621,-0.828 c 0,0 -1.169,-0.561 -1.471,-1.425 -0.303,-0.864 -2.036,-0.547 -2.036,-0.547 l -1.733,0.316 -0.854,0.882 -1.447,0.023 -1.738,0.027 -3.476,0.055 -2.059,-1.996 -2.32,-0.253 -4.937,-0.792 -1.149,0.598 -4.036,1.222 -2.318,0.036 -1.452,-0.267 -3.204,-1.108 -2.915,-1.113 -2.922,-1.692 -2.629,-1.407 -2.896,0.045 -1.149,0.597 -2.606,0.041 -1.449,0.023 -2.918,-1.403 -2.042,-0.836 -1.75,-0.841 -3.461,0.923 -3.173,0.919 -4.927,-0.212 -4.371,-1.67 c 0,0 -3.521,-2.841 -3.823,-3.706 -0.304,-0.864 -1.214,-3.457 -1.214,-3.457 0,0 -0.926,-3.751 -1.23,-4.616 -0.304,-0.864 -0.909,-2.593 -0.924,-3.461 -0.014,-0.869 -2.932,-2.271 -2.932,-2.271 l -0.883,-0.855 -1.746,-0.552 -2.032,-0.258 -1.444,0.313"
         id="path68" />
      <path
         inkscape:connector-curvature="0"
         style="fill:none;stroke:#db5151;stroke-width:0.5;stroke-linejoin:round;stroke-dasharray:0.5, 0.5"
         d="m 2080.811,328.256 -0.027,-1.738 1.411,-2.34 1.721,-1.186 1.733,-0.316 1.719,-1.186 0.565,-0.878 -0.036,-2.315 -0.309,-1.154 0.257,-2.032 2.005,-1.48 2.027,-0.032 1.444,-0.312 2.597,-0.621 2.345,1.701 3.778,0.81 2.601,-0.331 1.44,-0.602 1.152,-0.308 2.601,-0.331 1.15,-0.597 1.158,-0.018 1.182,1.43 c 0,0 0.873,0.275 1.467,1.136 0.592,0.86 2.044,1.126 2.044,1.126 l 2.317,-0.037 c 0,0 1.723,-0.895 2.593,-0.909 0.87,-0.014 5.213,-0.082 5.213,-0.082 l 1.458,0.556 c 0,0 0.887,1.145 2.054,1.706 1.167,0.561 2.914,1.113 2.914,1.113 l 3.195,0.529 2.883,-0.914 2.012,-0.901 3.476,-0.055 2.031,0.258 c 0,0 1.439,-0.603 1.453,0.266 0.014,0.869 2.919,1.402 2.919,1.402 l 2.027,-0.031 1.447,-0.022"
         id="path70" />
      <polyline
         style="fill:none;stroke:#db5151;stroke-width:0.5;stroke-linejoin:round;stroke-dasharray:0.5, 0.5"
         points="    2156.275,319.25 2158.584,318.635 2160.895,318.309 2162.053,318.291 2164.083,318.259 2168.168,320.221 2170.208,321.059     2173.113,321.592 2176.001,320.967   "
         id="polyline72" />
      <path
         inkscape:connector-curvature="0"
         style="fill:none;stroke:#db5151;stroke-width:0.5;stroke-linejoin:round;stroke-dasharray:0.5, 0.5"
         d="m 2179.76,320.618 2.042,0.837 1.746,0.551 3.206,1.109 c 0,0 0,0.289 1.451,0.268 1.448,-0.023 4.611,-1.521 4.611,-1.521 l 1.738,-0.027 1.465,1.135 c 0,0 0.58,-0.008 1.454,0.268 0.873,0.275 1.74,0.262 1.74,0.262 l 2.028,-0.031 2.019,-0.611 2.018,-0.611 2.024,-0.32 1.457,0.557 0.592,0.859 0.892,1.434 2.914,1.113 2.027,-0.031 3.477,-0.055 0.868,-0.014 2.302,-0.906 1.449,-0.021 1.448,-0.023 2.035,0.547 c 0,0 1.44,-0.602 1.743,0.264 0.302,0.863 1.765,1.709 1.765,1.709 l 1.461,0.848 0.878,0.564"
         id="path74" />
      <polyline
         style="fill:none;stroke:#db5151;stroke-width:0.5;stroke-linejoin:round;stroke-dasharray:0.5, 0.5"
         points="    1905.717,317.33 1905.854,316.073 1906.002,315.444 1906.929,314.646 1907.856,313.847 1908.78,312.735   "
         id="polyline76" />
      <polyline
         style="fill:none;stroke:#db5151;stroke-width:0.5;stroke-linejoin:round;stroke-dasharray:0.5, 0.5"
         points="    2246.455,327.979 2249.071,328.85 2250.523,330.012 2252.848,330.594 2255.172,331.174 2257.206,331.174 2258.273,331.041     2259.529,330.884 2261.563,330.012 2265.631,329.432 2266.792,329.432 2269.407,328.85 2270.86,327.397 2273.474,326.235     2275.799,325.654 2277.833,325.654 2279.576,325.945 2281.9,327.107 2284.514,327.397 2286.548,327.688 2288.582,327.979     2291.196,327.397 2292.939,326.816   "
         id="polyline78" />
      <path
         inkscape:connector-curvature="0"
         style="fill:none;stroke:#db5151;stroke-width:0.5;stroke-linejoin:round;stroke-dasharray:0.5, 0.5"
         d="m 2257.206,331.174 2.905,0.582 2.904,-0.291 2.034,-0.291 2.324,2.324 2.324,1.453 2.034,0.291 1.743,-1.162 2.615,-0.872 h 1.743 l 1.162,1.452 2.615,1.453 1.743,0.581 1.453,0.29 3.195,-0.58 2.615,-0.291 1.162,-1.162 h 1.162 c 0,0 -0.291,-0.581 0.873,0 1.161,0.581 3.486,0.871 3.486,0.871 l 2.614,-0.29 2.906,-2.034 1.743,-1.742 1.743,-1.162 1.743,-0.291"
         id="path80" />
    </g>
  </g>
</svg>
