<?xml version="1.0" encoding="UTF-8" standalone="no"?>
<!-- Created with Inkscape (http://www.inkscape.org/) -->

<svg
   xmlns:dc="http://purl.org/dc/elements/1.1/"
   xmlns:cc="http://creativecommons.org/ns#"
   xmlns:rdf="http://www.w3.org/1999/02/22-rdf-syntax-ns#"
   xmlns:svg="http://www.w3.org/2000/svg"
   xmlns="http://www.w3.org/2000/svg"
   xmlns:sodipodi="http://sodipodi.sourceforge.net/DTD/sodipodi-0.dtd"
   xmlns:inkscape="http://www.inkscape.org/namespaces/inkscape"
   version="1.1"
   width="681.13281"
   height="60.163372"
   id="svg4242"
   style="enable-background:new"
   inkscape:version="0.48+devel r9873 custom"
   sodipodi:docname="riverspartial.svg">
  <metadata
     id="metadata1283">
    <rdf:RDF>
      <cc:Work
         rdf:about="">
        <dc:format>image/svg+xml</dc:format>
        <dc:type
           rdf:resource="http://purl.org/dc/dcmitype/StillImage" />
        <dc:title />
      </cc:Work>
    </rdf:RDF>
  </metadata>
  <sodipodi:namedview
     pagecolor="#ffffff"
     bordercolor="#666666"
     borderopacity="1"
     objecttolerance="10"
     gridtolerance="10"
     guidetolerance="10"
     inkscape:pageopacity="0"
     inkscape:pageshadow="2"
     inkscape:window-width="2560"
     inkscape:window-height="1300"
     id="namedview1281"
     showgrid="false"
     inkscape:zoom="2.5841236"
     inkscape:cx="217.64308"
     inkscape:cy="16.275018"
     inkscape:window-x="0"
     inkscape:window-y="0"
     inkscape:window-maximized="0"
     inkscape:current-layer="svg4242" />
  <defs
     id="defs1282" />
  <g
     transform="matrix(0.05786179,0,0,0.05786381,-11.318451,-5.4914967)"
     id="River_Courses">
    <g
       id="River_Courses_x2C__Partially_Erased">
      <polyline
         style="fill:none;stroke:#3e8281;stroke-width:0.5;stroke-linejoin:round;stroke-dasharray:0.5, 0.5"
         points="    380.917,493.488 378.147,492.471 374.872,490.829 371.251,488.56 367.945,486.117 364.459,483.199 362.609,481.021     360.925,478.998   "
         id="polyline6" />
      <polyline
         style="fill:none;stroke:#3e8281;stroke-width:0.5;stroke-miterlimit:1;stroke-dasharray:0.5, 0.5"
         points="    3500.394,378.614 3501.499,380.824 3501.314,383.219 3500.025,385.429 3497.999,387.455 3495.973,388.56 3493.762,390.771     3492.288,392.244 3490.447,395.007   "
         id="polyline8" />
      <polyline
         style="fill:none;stroke:#3e8281;stroke-width:0.5;stroke-linejoin:round;stroke-dasharray:0.5, 0.5"
         points="    5518.11,477.965 5520.663,474.798 5524.253,473.023 5527.011,471.763 5528.936,471.016 5531.731,468.672 5537.255,465.881     5541.929,464.144 5546.04,462.932 5551.741,462.858 5556.087,462.739 5561.274,461.834 5567.312,459.876 5572.255,458.149     5574.994,457.43 5578.556,456.469 5582.425,454.434 5584.435,451.248   "
         id="polyline10" />
    </g>
  </g>
</svg>
