<?xml version="1.0" encoding="UTF-8" standalone="no"?>
<!-- Created with Inkscape (http://www.inkscape.org/) -->

<svg
   xmlns:dc="http://purl.org/dc/elements/1.1/"
   xmlns:cc="http://creativecommons.org/ns#"
   xmlns:rdf="http://www.w3.org/1999/02/22-rdf-syntax-ns#"
   xmlns:svg="http://www.w3.org/2000/svg"
   xmlns="http://www.w3.org/2000/svg"
   xmlns:sodipodi="http://sodipodi.sourceforge.net/DTD/sodipodi-0.dtd"
   xmlns:inkscape="http://www.inkscape.org/namespaces/inkscape"
   version="1.1"
   width="681.13281"
   height="60.163372"
   id="svg4242"
   style="enable-background:new"
   inkscape:version="0.48+devel r9873 custom"
   sodipodi:docname="routeconj.svg">
  <metadata
     id="metadata1283">
    <rdf:RDF>
      <cc:Work
         rdf:about="">
        <dc:format>image/svg+xml</dc:format>
        <dc:type
           rdf:resource="http://purl.org/dc/dcmitype/StillImage" />
        <dc:title />
      </cc:Work>
    </rdf:RDF>
  </metadata>
  <sodipodi:namedview
     pagecolor="#ffffff"
     bordercolor="#666666"
     borderopacity="1"
     objecttolerance="10"
     gridtolerance="10"
     guidetolerance="10"
     inkscape:pageopacity="0"
     inkscape:pageshadow="2"
     inkscape:window-width="2560"
     inkscape:window-height="1300"
     id="namedview1281"
     showgrid="false"
     inkscape:zoom="2.5841236"
     inkscape:cx="217.64308"
     inkscape:cy="16.275018"
     inkscape:window-x="0"
     inkscape:window-y="0"
     inkscape:window-maximized="0"
     inkscape:current-layer="svg4242" />
  <defs
     id="defs1282" />
  <g
     transform="matrix(0.05786179,0,0,0.05786381,-11.318451,-5.4914967)"
     id="Routes">
    <g
       id="Routes_x2C__conjectural_restoration">
      <polyline
         style="fill:none;stroke:#ec2224"
         points="537.95,285.63 540.841,281.313 544.064,275.647   "
         id="polyline6" />
      <polyline
         style="fill:none;stroke:#ec2224"
         points="744.062,352.174 749.225,351.976 755.945,352.483 761.145,353.241     767.102,353.778 772.867,354.323 779.81,355.587 785.016,356.536 789.458,357.515 793.898,358.493 797.959,359.486   "
         id="polyline8" />
      <line
         style="fill:none;stroke:#ec2224"
         x1="568.56598"
         y1="334.88101"
         x2="568.35699"
         y2="329.423"
         id="line10" />
      <polyline
         style="fill:none;stroke:#ec2224"
         points="629.934,287.118 643.08,282.276 652.746,278.854   "
         id="polyline12" />
      <polyline
         style="fill:none;stroke:#ec2224"
         points="812.732,295.837 816.212,294.419 820.635,292.481 821.189,294.388     826.272,292.907 832.293,290.749 836.889,289.126 841.81,287.653   "
         id="polyline14" />
      <polyline
         style="fill:none;stroke:#ec2224"
         points="795.323,306.784 792.9,310.572 791.228,313.046 789.864,315.187   "
         id="polyline16" />
      <line
         style="fill:none;stroke:#ec2224"
         x1="243.32201"
         y1="396.74301"
         x2="257.491"
         y2="391.40799"
         id="line18" />
      <polyline
         style="fill:none;stroke:#ec2224"
         points="1036.719,378.631 1036.712,381.609 1036.943,385.166 1038.404,392.416     1038.52,394.193   "
         id="polyline20" />
      <polyline
         style="fill:none;stroke:#ec2224"
         points="919.449,424.149 927.03,423.658 936.073,422.862 939.427,422.434   "
         id="polyline22" />
      <polyline
         style="fill:none;stroke:#ec2224"
         points="857.167,271.517 856.812,268.644 856.794,265.749 858.6,267.335   "
         id="polyline24" />
      <line
         style="fill:none;stroke:#ec2224"
         x1="855.20801"
         y1="267.55499"
         x2="856.41101"
         y2="265.09201"
         id="line26" />
      <line
         style="fill:none;stroke:#ec2224"
         x1="1500.772"
         y1="390.54001"
         x2="1499.454"
         y2="387.564"
         id="line28" />
      <polyline
         style="fill:none;stroke:#ec2224"
         points="1499.076,389.2 1499.484,388.046 1501.099,388.104   "
         id="polyline30" />
      <polyline
         style="fill:none;stroke:#ec2224"
         points="2156.401,258.15 2160.685,253.908 2166.681,248.074   "
         id="polyline32" />
      <polyline
         style="fill:none;stroke:#ec2224"
         points="2043.255,209.832 2046.824,209.246 2050.527,208.79 2054.107,208.866     2056.764,209.354 2060.494,210.621 2063.434,212.165 2065.039,213.067 2066.515,214.237 2068.125,215.537   "
         id="polyline34" />
      <polyline
         style="fill:none;stroke:#ec2224"
         points="1606.595,376.012 1610.776,381.759 1614.946,386.859   "
         id="polyline36" />
      <path
         inkscape:connector-curvature="0"
         style="fill:none;stroke:#ec2224"
         d="M 1606.595,376.012"
         id="path38" />
      <polyline
         style="fill:none;stroke:#ec2224"
         points="1606.595,376.012 1603.077,371.331 1601.315,368.774   "
         id="polyline40" />
      <polyline
         style="fill:none;stroke:#ec2224"
         points="1589.237,394.798 1593.101,394.091 1594.444,397.299 1607.528,394.295     1613.75,392.906   "
         id="polyline42" />
      <polyline
         style="fill:none;stroke:#ec2224"
         points="2444.192,398.337 2452.05,398.136 2461.322,397.933 2465.655,398.034   "
         id="polyline44" />
      <polyline
         style="fill:none;stroke:#ec2224"
         points="2681.509,473.519 2686.446,471.976 2692.157,470.122 2698.33,467.808     2703.576,465.647 2708.824,463.333 2711.602,461.944 2714.533,459.938 2714.996,459.474   "
         id="polyline46" />
      <polyline
         style="fill:none;stroke:#ec2224"
         points="2858.986,446.032 2871.151,445.698 2878.651,443.866 2880.651,442.532     2881.486,443.532 2889.651,443.032 2897.818,442.532 2905.986,441.866   "
         id="polyline48" />
      <polyline
         style="fill:none;stroke:#ec2224"
         points="2722.837,353.446 2727.553,353.642 2736.59,354.429 2744.447,354.624     2748.967,354.429 2754.27,354.036 2756.824,353.839   "
         id="polyline50" />
      <polyline
         style="fill:none;stroke:#ec2224"
         points="2747.979,310.03 2749.158,311.602 2753.085,310.816 2758.783,310.03     2763.498,309.245 2768.605,308.655   "
         id="polyline52" />
      <polyline
         style="fill:none;stroke:#ec2224"
         points="2526.474,393.155 2536.261,393.556 2542.853,393.956 2550.245,393.956     2553.44,394.554 2554.639,394.954   "
         id="polyline54" />
      <line
         style="fill:none;stroke:#ec2224"
         x1="2547.647"
         y1="393.95599"
         x2="2551.842"
         y2="391.95801"
         id="line56" />
      <polyline
         style="fill:none;stroke:#ec2224"
         points="2549.845,391.558 2552.642,391.159 2552.241,392.956   "
         id="polyline58" />
      <polyline
         style="fill:none;stroke:#ec2224"
         points="2554.04,393.556 2555.637,395.354 2553.44,395.753   "
         id="polyline60" />
      <g
         id="g62">
        <path
           inkscape:connector-curvature="0"
           style="fill:none;stroke:#ff0000;stroke-width:0.25"
           d="m 2558.151,396.796 c 0.144,0 0.236,-0.108 0.236,-0.248 0,-0.147 -0.092,-0.252 -0.236,-0.252 -0.136,0 -0.236,0.104 -0.236,0.252 0,0.14 0.096,0.248 0.232,0.248 h 0 z m 0.164,-0.808 -0.01,-0.104 c -0.012,-0.204 0.052,-0.38 0.228,-0.588 0.192,-0.224 0.344,-0.424 0.344,-0.692 0,-0.304 -0.208,-0.592 -0.668,-0.592 -0.212,0 -0.436,0.064 -0.572,0.164 l 0.096,0.252 c 0.1,-0.08 0.26,-0.124 0.404,-0.124 0.252,0 0.38,0.141 0.38,0.345 0,0.176 -0.1,0.332 -0.28,0.543 -0.2,0.24 -0.272,0.477 -0.248,0.692 l 0.01,0.104 h 0.316 z"
           id="path64" />
      </g>
      <g
         id="g66">
        <path
           inkscape:connector-curvature="0"
           style="fill:none;stroke:#ff0000;stroke-width:0.25"
           d="m 2554.355,391.204 c 0.144,0 0.236,-0.108 0.236,-0.248 0,-0.147 -0.092,-0.252 -0.236,-0.252 -0.136,0 -0.236,0.104 -0.236,0.252 0,0.14 0.096,0.248 0.232,0.248 h 0 z m 0.165,-0.808 -0.01,-0.104 c -0.012,-0.204 0.052,-0.38 0.228,-0.588 0.192,-0.224 0.344,-0.424 0.344,-0.692 0,-0.304 -0.208,-0.592 -0.668,-0.592 -0.212,0 -0.436,0.064 -0.572,0.164 l 0.096,0.252 c 0.1,-0.08 0.26,-0.124 0.404,-0.124 0.252,0 0.38,0.141 0.38,0.345 0,0.176 -0.1,0.332 -0.28,0.544 -0.2,0.239 -0.272,0.476 -0.248,0.691 l 0.01,0.104 h 0.316 z"
           id="path68" />
      </g>
      <line
         style="fill:none;stroke:#ec2224"
         x1="2257.251"
         y1="264.466"
         x2="2253.4089"
         y2="273.70599"
         id="line70" />
      <polyline
         style="fill:none;stroke:#ec2224"
         points="2247.188,285.141 2252.767,285.874 2252.767,287.337 2262.557,288.069     2272.803,289.258   "
         id="polyline72" />
      <polyline
         style="fill:none;stroke:#ec2224"
         points="2564.766,330.683 2561.633,333.19 2561.633,335.54 2578.71,333.974     2579.024,339.144 2586.544,338.046 2588.11,346.819   "
         id="polyline74" />
      <polyline
         style="fill:none;stroke:#ec2224"
         points="2591.714,349.954 2601.741,347.29 2614.743,343.374   "
         id="polyline76" />
      <line
         style="fill:none;stroke:#ec2224"
         x1="2905.8259"
         y1="336.79401"
         x2="2905.8259"
         y2="330.37"
         id="line78" />
      <line
         style="fill:none;stroke:#ec2224"
         x1="2598.6509"
         y1="459.03201"
         x2="2589.4851"
         y2="447.698"
         id="line80" />
      <line
         style="fill:none;stroke:#ec2224"
         x1="2508.6531"
         y1="244.19901"
         x2="2531.6531"
         y2="227.866"
         id="line82" />
      <line
         style="fill:none;stroke:#ec2224"
         x1="2573.1499"
         y1="364.03201"
         x2="2612.8191"
         y2="372.698"
         id="line84" />
      <polyline
         style="fill:none;stroke:#ec2224"
         points="3521.445,353.42 3525.015,354.015 3527.594,354.609 3530.966,355.205     3534.733,355.8 3537.311,356.196 3541.873,356.395 3545.642,356.594 3550.996,356.594   "
         id="polyline86" />
      <polyline
         style="fill:none;stroke:#ec2224"
         points="3548.815,356.99 3549.014,359.37 3549.608,362.741 3549.807,363.733     3551.592,363.733   "
         id="polyline88" />
      <polyline
         style="fill:none;stroke:#ec2224"
         points="3549.807,363.733 3546.634,363.932 3542.863,363.932 3538.898,363.336     3537.113,363.336 3537.113,359.767   "
         id="polyline90" />
      <polyline
         style="fill:none;stroke:#ec2224"
         points="3062.437,442.199 3053.535,441.564 3045.429,441.246 3045.269,439.338   "
         id="polyline92" />
      <line
         style="fill:none;stroke:#ec2224"
         x1="2994.3101"
         y1="316.862"
         x2="2994.502"
         y2="321.11301"
         id="line94" />
      <polyline
         style="fill:none;stroke:#ec2224"
         points="3518.297,300.825 3525.832,300.825 3530.469,300.825 3530.854,302.178     3537.039,302.371 3547.666,302.564 3548.824,302.564   "
         id="polyline96" />
      <polyline
         style="fill:none;stroke:#ec2224"
         points="3246.638,337.344 3252.822,337.15 3260.551,335.219   "
         id="polyline98" />
      <polyline
         style="fill:none;stroke:#ec2224"
         points="3258.812,334.639 3261.324,334.639 3259.585,336.377   "
         id="polyline100" />
      <g
         id="g102">
        <path
           inkscape:connector-curvature="0"
           style="fill:none;stroke:#ff0000;stroke-width:0.25"
           d="m 3263.779,335.064 c 0.145,0 0.236,-0.108 0.236,-0.248 0,-0.148 -0.092,-0.252 -0.236,-0.252 -0.136,0 -0.235,0.104 -0.235,0.252 0,0.14 0.096,0.248 0.231,0.248 h 0 z m 0.164,-0.808 -0.01,-0.104 c -0.012,-0.204 0.052,-0.38 0.228,-0.588 0.192,-0.224 0.345,-0.424 0.345,-0.692 0,-0.304 -0.208,-0.592 -0.668,-0.592 -0.212,0 -0.437,0.064 -0.572,0.164 l 0.096,0.252 c 0.101,-0.08 0.26,-0.124 0.404,-0.124 0.252,0 0.38,0.141 0.38,0.344 0,0.177 -0.1,0.332 -0.28,0.545 -0.2,0.239 -0.271,0.476 -0.248,0.691 l 0.01,0.104 h 0.314 z"
           id="path104" />
      </g>
      <line
         style="fill:none;stroke:#ec2224"
         x1="3405.8459"
         y1="302.95099"
         x2="3406.2329"
         y2="309.327"
         id="line106" />
      <polyline
         style="fill:none;stroke:#ec2224"
         points="3287.027,403.312 3292.519,403.312 3297.587,403.102 3300.12,403.102   "
         id="polyline108" />
      <polyline
         style="fill:none;stroke:#ec2224"
         points="3310.256,403.525 3314.69,404.791 3317.857,405.637   "
         id="polyline110" />
      <polyline
         style="fill:none;stroke:#ec2224"
         points="3425.048,267.358 3431.447,267.358 3438.247,266.958 3442.848,266.158     3443.646,267.358 3450.447,266.358 3459.447,265.758 3465.447,264.758 3470.848,263.559 3471.247,266.559 3478.848,266.158     3486.646,266.158 3494.048,266.758 3497.848,266.758 3498.848,268.158 3505.646,268.358 3513.247,268.358 3519.447,268.758     3526.848,269.559 3527.848,269.559   "
         id="polyline112" />
      <polyline
         style="fill:none;stroke:#ec2224"
         points="3195.647,261.559 3203.647,258.559 3213.247,255.559 3220.848,253.559   "
         id="polyline114" />
      <polyline
         style="fill:none;stroke:#ec2224"
         points="3524.729,411.805 3527.645,410.01 3531.681,407.096 3536.837,403.957     3539.977,401.266 3542.22,402.836 3545.358,399.92 3549.169,396.332   "
         id="polyline116" />
      <line
         style="fill:none;stroke:#ec2224"
         x1="3307.397"
         y1="388.20901"
         x2="3305.897"
         y2="397.95901"
         id="line118" />
      <polyline
         style="fill:none;stroke:#ec2224"
         points="3426.646,334.625 3442.646,334.958 3445.146,334.958 3447.314,334.625     3448.646,333.791 3450.646,331.791   "
         id="polyline120" />
      <line
         style="fill:none;stroke:#ec2224"
         x1="3423.146"
         y1="296.45801"
         x2="3434.314"
         y2="302.45801"
         id="line122" />
      <polyline
         style="fill:none;stroke:#ec2224"
         points="3551.229,358.392 3554.463,358.097 3557.536,357.962 3560.935,357.668     3564.009,357.372 3567.569,356.918 3572.426,356.313 3572.912,355.994 3572.772,353.568   "
         id="polyline124" />
      <polyline
         style="fill:none;stroke:#ec2224"
         points="3551.174,364.535 3555.703,364.252 3561.04,364.137 3566.858,364.349     3570.74,364.059 3575.916,363.781   "
         id="polyline126" />
      <polyline
         style="fill:none;stroke:#ec2224"
         points="3550.588,302.736 3555.756,303.521 3559.816,303.926 3565.536,304.715     3570.155,304.939 3570.71,304.944   "
         id="polyline128" />
      <polyline
         style="fill:none;stroke:#ec2224"
         points="3635.163,347.872 3639.039,348.295 3653.389,349.195 3666.58,349.311   "
         id="polyline130" />
      <polyline
         style="fill:none;stroke:#ec2224"
         points="3551.09,395.604 3554.536,393.578 3560.881,389.383 3568.324,384.922     3575.916,379.229 3576.469,378.823   "
         id="polyline132" />
      <line
         style="fill:none;stroke:#ec2224"
         x1="3821.5359"
         y1="303.67999"
         x2="3822.1431"
         y2="308.37399"
         id="line134" />
      <polyline
         style="fill:none;stroke:#ec2224"
         points="4145.722,318.635 4152.036,317.721 4153.975,317.737 4159.143,318.43     4163.819,319.764 4171.721,322.096 4182.203,325.097 4192.367,327.61 4198.975,330.094   "
         id="polyline136" />
      <line
         style="fill:none;stroke:#ec2224"
         x1="4148.9248"
         y1="234.149"
         x2="4170.3101"
         y2="233.688"
         id="line138" />
      <polyline
         style="fill:none;stroke:#ec2224"
         points="3661.15,359.998 3661.469,355.942 3661.746,354.153 3662.498,352.692     3663.717,351.723 3665.42,350.435 3666.256,349.307   "
         id="polyline140" />
      <polyline
         style="fill:none;stroke:#ec2224"
         points="4699.541,447.036 4704.794,445.093 4711.794,442.675   "
         id="polyline142" />
      <polyline
         style="fill:none;stroke:#ec2224"
         points="4853.018,366.611 4856.092,368.427 4855.176,370.31 4886.408,382.745   "
         id="polyline144" />
      <polyline
         style="fill:none;stroke:#ec2224"
         points="4280.959,394.46 4295.346,394.663 4295.98,396.934 4311.57,397.516     4311.802,395.268   "
         id="polyline146" />
      <line
         style="fill:none;stroke:#ec2224"
         x1="4843.938"
         y1="355.797"
         x2="4847.9839"
         y2="360.23801"
         id="line148" />
      <line
         style="fill:none;stroke:#ec2224"
         x1="4758.3262"
         y1="413.72198"
         x2="4756.7852"
         y2="419.578"
         id="line150" />
      <polyline
         style="fill:none;stroke:#ec2224"
         points="4820.077,326.736 4849.201,320.389 4849,321.424 4880.604,319.65     4884.932,319.938   "
         id="polyline152" />
      <polyline
         style="fill:none;stroke:#ec2224"
         points="4856.483,366.703 4872.804,365.916 4874.555,365.27 4875.645,363.391     4875.698,361.311 4875.739,359.751   "
         id="polyline154" />
      <polyline
         style="fill:none;stroke:#ec2224"
         points="4832.161,467.847 4835.453,467.934 4835.924,469.854 4852.963,468.046   "
         id="polyline156" />
      <line
         style="fill:none;stroke:#ec2224"
         x1="4880.0488"
         y1="360.73001"
         x2="4886.7612"
         y2="362.64099"
         id="line158" />
      <line
         style="fill:none;stroke:#ec2224"
         x1="4849.4482"
         y1="330.79901"
         x2="4885.1509"
         y2="331.388"
         id="line160" />
      <line
         style="fill:none;stroke:#ec2224"
         x1="5005.21"
         y1="299.33899"
         x2="5005.436"
         y2="305.03"
         id="line162" />
      <line
         style="fill:none;stroke:#ec2224"
         x1="5011.8418"
         y1="291.815"
         x2="5029.6108"
         y2="288.71201"
         id="line164" />
      <line
         style="fill:none;stroke:#ec2224"
         x1="5211.1709"
         y1="478.272"
         x2="5211.0708"
         y2="470.16901"
         id="line166" />
      <polyline
         style="fill:none;stroke:#ec2224"
         points="5223.392,449.913 5227.655,450.48 5233.559,451.241 5238.975,451.665     5245.219,451.774 5251.803,451.231 5258.556,450.363 5258.536,451.513 5261.013,450.899 5265.47,449.826   "
         id="polyline168" />
      <path
         inkscape:connector-curvature="0"
         style="fill:#ffffff;stroke:#000000"
         d="M 4888.2,382.622"
         id="path170" />
      <polyline
         style="fill:none;stroke:#ec2224"
         points="4888.354,383.112 4892.89,384.003 4893.029,385.306 4923.257,394.771   "
         id="polyline172" />
      <polyline
         style="fill:none;stroke:#ec2224"
         points="4913.886,372.993 4912.702,375.573 4889.151,364.618 4889.046,362.157   "
         id="polyline174" />
      <line
         style="fill:none;stroke:#ec2224"
         x1="5352.2578"
         y1="342.61401"
         x2="5361.7339"
         y2="339.69199"
         id="line176" />
      <line
         style="fill:none;stroke:#ec2224"
         x1="5092.0518"
         y1="398.694"
         x2="5105.3369"
         y2="401.03799"
         id="line178" />
      <line
         style="fill:none;stroke:#ec2224"
         x1="5114.0942"
         y1="402.16699"
         x2="5137.894"
         y2="388.76801"
         id="line180" />
      <line
         style="fill:none;stroke:#ec2224"
         x1="5482.7319"
         y1="409.577"
         x2="5493.7168"
         y2="422.771"
         id="line182" />
      <line
         style="fill:none;stroke:#ec2224"
         x1="5115.6709"
         y1="321.095"
         x2="5161.521"
         y2="301.41699"
         id="line184" />
      <polyline
         style="fill:none;stroke:#ec2224"
         points="5117.532,326.165 5132.29,328.048 5133.735,329.048 5135.169,330.698     5136.278,332.344 5136.729,334.464 5136.7,336.089 5136.669,337.876 5136.15,339.655 5135.136,341.913 5133.479,343.671     5116.2,346.62   "
         id="polyline186" />
      <line
         style="fill:none;stroke:#ec2224"
         x1="5220.3701"
         y1="449.52802"
         x2="5210.6348"
         y2="457.97299"
         id="line188" />
      <polyline
         style="fill:none;stroke:#ec2224"
         points="4887.206,318.569 4901.603,321.908 4901.987,324.515 4928.113,323.911     4934.028,325.425   "
         id="polyline190" />
      <line
         style="fill:none;stroke:#ec2224"
         x1="4888.4868"
         y1="328.99301"
         x2="4899.0542"
         y2="328.853"
         id="line192" />
      <polyline
         style="fill:none;stroke:#ec2224"
         points="4906.199,329.14 4912.009,331.517 4911.456,335.245 4933.39,335.628   "
         id="polyline194" />
      <line
         style="fill:none;stroke:#ec2224"
         x1="5167.5"
         y1="303.47198"
         x2="5176.6118"
         y2="312.08099"
         id="line196" />
      <polyline
         style="fill:none;stroke:#ec2224"
         points="5693.337,419.478 5687.7,423.579 5681.144,426.694   "
         id="polyline198" />
      <polyline
         style="fill:none;stroke:#ec2224"
         points="5713.242,443.155 5716.589,439.87 5718.384,437.21 5719.554,437.761     5723.336,436.702 5725.899,436.282 5729.336,435.38   "
         id="polyline200" />
      <line
         style="fill:none;stroke:#ec2224"
         x1="6069.7529"
         y1="419.82901"
         x2="6072.896"
         y2="422.009"
         id="line202" />
      <polyline
         style="fill:none;stroke:#ec2224"
         points="5676.836,362.138 5678.493,363.92 5679.786,365.306 5680.908,366.111     5684.142,366.8 5688.55,366.762 5693.143,366.923 5700.771,367.955 5708.01,369.166 5716.984,370.054 5725.563,371.312     5732.815,372.14 5739.685,372.954   "
         id="polyline204" />
      <polyline
         style="fill:none;stroke:#ec2224"
         points="5612.771,475.538 5610.597,479.374 5608.221,484.056 5604.095,490.204   "
         id="polyline206" />
      <path
         inkscape:connector-curvature="0"
         style="fill:none;stroke:#ec2224"
         d="M 5544.864,515.522"
         id="path208" />
      <polyline
         style="fill:none;stroke:#ec2224"
         points="6165.464,533.409 6169.884,533.563 6175.518,533.913 6181.303,534.267     6186.175,534.589 6191.361,534.618 6193.358,534.231 6194.739,533.974   "
         id="polyline210" />
      <polyline
         style="fill:#ffffff;stroke:#ec2224"
         points="6028.117,457.382 6037.368,455.493 6039.432,454.886   "
         id="polyline212" />
      <polyline
         style="fill:none;stroke:#ec2224"
         points="6036.028,479.261 6038.378,480.194 6036.765,482.519   "
         id="polyline214" />
      <polyline
         style="fill:none;stroke:#ec2224"
         points="6015.803,430.077 6009.738,433.267 6003.51,436.28 6000.216,438.038   "
         id="polyline216" />
      <polyline
         style="fill:none;stroke:#ec2224"
         points="5754.378,383.099 5764.117,378.858 5764.776,384.907 5785.46,377.125     5831.474,377.274 5939.226,362.763 5945.54,368.335 5966.712,379.371   "
         id="polyline218" />
      <line
         style="fill:none;stroke:#ec2224"
         x1="5887.188"
         y1="328.285"
         x2="5872.9609"
         y2="331.35999"
         id="line220" />
      <line
         style="fill:none;stroke:#ec2224"
         x1="5988.9458"
         y1="390.52399"
         x2="5966.3691"
         y2="428.17899"
         id="line222" />
      <line
         style="fill:none;stroke:#ec2224"
         x1="5897.2178"
         y1="459.95401"
         x2="5848.2778"
         y2="439.02399"
         id="line224" />
      <polyline
         style="fill:none;stroke:#ec2224"
         points="5945.54,368.335 5948.336,389.276 5971.742,386.351 5971.479,384.13   "
         id="polyline226" />
      <line
         style="fill:none;stroke:#ec2224"
         x1="5885.9761"
         y1="445.784"
         x2="5915.1992"
         y2="441.87201"
         id="line228" />
      <polyline
         style="fill:none;stroke:#ec2224"
         points="5544.864,515.522 5555.434,514.87 5555.192,516.903 5569.518,515.872   "
         id="polyline230" />
      <line
         style="fill:none;stroke:#ec2224"
         x1="5895.7549"
         y1="389.82101"
         x2="5900.2681"
         y2="399.42099"
         id="line232" />
      <polyline
         style="fill:none;stroke:#ec2224"
         points="6916.613,301.995 6924.128,299.962 6929.653,298.683 6936.092,301.746     6944.479,305.826 6951.299,309.485 6957.912,313.731 6963.156,317.56 6965.885,318.984   "
         id="polyline234" />
      <polyline
         style="fill:none;stroke:#ec2224"
         points="6369.482,547.798 6377.45,544.237 6386.08,541.19 6392.517,538.612   "
         id="polyline236" />
      <polyline
         style="fill:none;stroke:#ec2224"
         points="6635.982,381.858 6650.738,381.946 6660.586,381.439 6663.643,381.153   "
         id="polyline238" />
      <polyline
         style="fill:none;stroke:#ec2224"
         points="6260.945,351.527 6260.904,353.887 6302.561,356.384   "
         id="polyline240" />
      <polyline
         style="fill:none;stroke:#ec2224"
         points="6857.891,488.423 6872.241,477.657 6874.38,479.071 6884.929,471.978     6889.021,474.214 6900.538,467.923 6903.641,470.534 6916.321,465.249 6921.919,471.442 6942.753,460.989 6941.266,456.046   "
         id="polyline242" />
      <line
         style="fill:none;stroke:#ec2224"
         x1="6820.6729"
         y1="502.13199"
         x2="6855.3359"
         y2="488.37799"
         id="line244" />
      <line
         style="fill:none;stroke:#ec2224"
         x1="6515.4048"
         y1="490.509"
         x2="6566.7021"
         y2="481.569"
         id="line246" />
      <polyline
         style="fill:none;stroke:#ec2224"
         points="6802.725,344.362 6805.277,341.752 6789.587,327.905   "
         id="polyline248" />
      <line
         style="fill:none;stroke:#ec2224"
         x1="6379.896"
         y1="523.54797"
         x2="6381.1719"
         y2="529.276"
         id="line250" />
      <line
         style="fill:none;stroke:#ec2224"
         x1="6615.5488"
         y1="452.47601"
         x2="6630.5879"
         y2="444.47601"
         id="line252" />
      <line
         style="fill:none;stroke:#ec2224"
         x1="6966.0439"
         y1="319.534"
         x2="6973.5679"
         y2="328.892"
         id="line254" />
      <polyline
         style="fill:none;stroke:#ec2224"
         points="7042.099,499.88 7043.621,505.334 7045.524,512.184 7045.762,513.717     7046.55,515.403 7067.117,535.651   "
         id="polyline256" />
    </g>
  </g>
</svg>
