<?xml version="1.0" encoding="UTF-8" standalone="no"?>
<!-- Created with Inkscape (http://www.inkscape.org/) -->

<svg
   xmlns:dc="http://purl.org/dc/elements/1.1/"
   xmlns:cc="http://creativecommons.org/ns#"
   xmlns:rdf="http://www.w3.org/1999/02/22-rdf-syntax-ns#"
   xmlns:svg="http://www.w3.org/2000/svg"
   xmlns="http://www.w3.org/2000/svg"
   xmlns:sodipodi="http://sodipodi.sourceforge.net/DTD/sodipodi-0.dtd"
   xmlns:inkscape="http://www.inkscape.org/namespaces/inkscape"
   version="1.1"
   width="681.13281"
   height="60.163372"
   id="svg4242"
   style="enable-background:new"
   inkscape:version="0.48+devel r9873 custom"
   sodipodi:docname="routenodistance.svg">
  <metadata
     id="metadata1283">
    <rdf:RDF>
      <cc:Work
         rdf:about="">
        <dc:format>image/svg+xml</dc:format>
        <dc:type
           rdf:resource="http://purl.org/dc/dcmitype/StillImage" />
        <dc:title />
      </cc:Work>
    </rdf:RDF>
  </metadata>
  <sodipodi:namedview
     pagecolor="#ffffff"
     bordercolor="#666666"
     borderopacity="1"
     objecttolerance="10"
     gridtolerance="10"
     guidetolerance="10"
     inkscape:pageopacity="0"
     inkscape:pageshadow="2"
     inkscape:window-width="2560"
     inkscape:window-height="1300"
     id="namedview1281"
     showgrid="false"
     inkscape:zoom="2.5841236"
     inkscape:cx="217.64308"
     inkscape:cy="16.275018"
     inkscape:window-x="0"
     inkscape:window-y="0"
     inkscape:window-maximized="0"
     inkscape:current-layer="svg4242" />
  <defs
     id="defs1282" />
  <g
     transform="matrix(0.05786179,0,0,0.05786381,-11.318451,-5.4914967)"
     id="Routes">
    <g
       id="Routes_x2C__no_distance_figure">
      <polyline
         style="fill:none;stroke:#f9a21b"
         points="357.907,479.441 355.044,480.193 354.734,477.587 354.514,475.495     353.912,474.398   "
         id="polyline6" />
      <polyline
         style="fill:none;stroke:#f9a21b"
         points="366.111,479.769 369.3,479.164 369.121,482.865 377.455,482.385     384.351,482.119 391.568,481.843 397.817,481.441 402.955,481.405   "
         id="polyline8" />
      <polyline
         style="fill:none;stroke:#f9a21b"
         points="269.505,490.386 270.461,494.365 272.206,493.816 276.704,493.804     278.77,493.242 282.952,493.403 290.465,492.473 302.463,491.208   "
         id="polyline10" />
      <polyline
         style="fill:none;stroke:#f9a21b"
         points="245.817,505.108 256.026,503.271 270.861,500.614 283.779,498.19     294.024,496.411 296.418,495.962 299.918,495.121 302.165,494.753   "
         id="polyline12" />
      <polyline
         style="fill:none;stroke:#f9a21b"
         points="407.451,506.449 408.549,509.939 418.751,512.118 430.681,513.267     441.025,514.956 441.918,517.332 455.459,518.579 465.28,519.165 482.317,519.475 493.724,519.518 509.945,519.537     521.839,519.723 527.15,520.001   "
         id="polyline14" />
      <polyline
         style="fill:none;stroke:#f9a21b"
         points="589.206,504.768 599.841,501.468 606.188,499.456   "
         id="polyline16" />
      <polyline
         style="fill:none;stroke:#f9a21b"
         points="608.378,497.927 615.343,495.25 626.73,490.637   "
         id="polyline18" />
      <polyline
         style="fill:none;stroke:#f9a21b"
         points="455.755,538.805 464.736,538.46 475.161,538.06 486.709,537.616   "
         id="polyline20" />
      <polyline
         style="fill:none;stroke:#f9a21b"
         points="540.666,533.134 540.751,535.38 544.083,534.288 547.777,534.307     549.838,533.585 551.614,533.838 562.805,532.444 576.721,530.945 582.334,530.73 583.887,533.562   "
         id="polyline22" />
      <polyline
         style="fill:none;stroke:#f9a21b"
         points="870.606,521.423 865.827,522.409 863.229,521.706 856.327,521.811     854.874,521.945 852.967,521.581   "
         id="polyline24" />
      <polyline
         style="fill:none;stroke:#f9a21b"
         points="265.086,275.006 264.135,279.54 283.19,286.357   "
         id="polyline26" />
      <polyline
         style="fill:none;stroke:#f9a21b"
         points="276.576,323.231 277.854,318.846 279.969,315.393 281.505,313.566   "
         id="polyline28" />
      <polyline
         style="fill:none;stroke:#f9a21b"
         points="281.567,302.642 279.877,304.634 279.476,306.738 279.907,309.612     281.153,312.777 282.522,314.973   "
         id="polyline30" />
      <polyline
         style="fill:none;stroke:#f9a21b"
         points="283.898,321.505 283.935,322.468 282.398,324.293 280.221,326.144     279.327,327.945 279.098,330.363 279.53,333.238 280.609,336.248 281.485,338.142 283.188,336.47 284.083,338.846     284.489,341.078 283.367,341.121 282.219,340.523 280.485,341.393 278.438,342.436   "
         id="polyline32" />
      <polyline
         style="fill:none;stroke:#f9a21b"
         points="350.592,309.948 354.274,309.646 359.845,308.308 360.833,308.913     361.498,309.529 362.017,310.474 365.514,309.536 370.937,308.525 379.998,306.088 388.893,303.498 392.212,302.085     392.971,300.932   "
         id="polyline34" />
      <polyline
         style="fill:none;stroke:#f9a21b"
         points="402.452,296.874 410.872,294.462 418.361,292.89 422.011,291.786     426.14,290.502 433.468,288.936   "
         id="polyline36" />
      <polyline
         style="fill:none;stroke:#f9a21b"
         points="541.109,272.915 541.387,275.957 545.6,276.918 556.111,278.764     560.164,279.732   "
         id="polyline38" />
      <polyline
         style="fill:none;stroke:#f9a21b"
         points="630.367,292.615 645.868,290.574 666.988,288.478 667.907,291.494     677.863,291.434 692.217,292.969 706.763,295.302 723.412,298.036 731.32,299.017 738.142,301.003   "
         id="polyline40" />
      <polyline
         style="fill:none;stroke:#f9a21b"
         points="741.387,301.842 741.498,304.729 749.825,304.088   "
         id="polyline42" />
      <polyline
         style="fill:none;stroke:#f9a21b"
         points="811.586,272.804 812.974,275.481 826.982,268.037 831.696,265.286   "
         id="polyline44" />
      <polyline
         style="fill:none;stroke:#f9a21b"
         points="444.095,310.533 443.779,314.881 458.412,315.283 472.877,315.53     489.439,316.019   "
         id="polyline46" />
      <polyline
         style="fill:none;stroke:#f9a21b"
         points="547.868,306.707 547.794,308.958 552.105,308.311 554.838,308.366     560.402,306.868 562.34,307.115 569.982,305.375 578.777,304.395 579.049,307.275 593.034,307.541   "
         id="polyline48" />
      <path
         inkscape:connector-curvature="0"
         style="fill:none;stroke:#f9a21b"
         d="M 680.941,308.822"
         id="path50" />
      <polyline
         style="fill:none;stroke:#f9a21b"
         points="436.827,330.406 449.898,331.993 451.12,334.516 458.466,333.431     463.592,333.073 464.728,333.351 466.491,333.283 467.435,332.766 468.878,332.709 475.941,332.6 484.602,332.266   "
         id="polyline52" />
      <line
         style="fill:none;stroke:#f9a21b"
         x1="495.19299"
         y1="332.01999"
         x2="499.19699"
         y2="331.70499"
         id="line54" />
      <polyline
         style="fill:none;stroke:#f9a21b"
         points="502.392,331.262 512.316,330.398 521.922,329.547 533.438,328.303     543.364,327.439   "
         id="polyline56" />
      <polyline
         style="fill:none;stroke:#f9a21b"
         points="709.5,328.927 709.939,331.962 720.412,332.844 726.377,333.418     729.677,327.349   "
         id="polyline58" />
      <line
         style="fill:none;stroke:#f9a21b"
         x1="730.862"
         y1="324.733"
         x2="730.58502"
         y2="325.86801"
         id="line60" />
      <polyline
         style="fill:none;stroke:#f9a21b"
         points="710.336,375.795 710.781,378.99 718.875,376.432 720.15,380.397   "
         id="polyline62" />
      <path
         inkscape:connector-curvature="0"
         style="fill:none;stroke:#ffffff"
         d="M 702.095,391.21"
         id="path64" />
      <path
         inkscape:connector-curvature="0"
         style="fill:none;stroke:#f9a21b"
         d="M 711.916,391.797"
         id="path66" />
      <polyline
         style="fill:none;stroke:#f9a21b"
         points="721.028,382.291 723.723,389.736 723.26,389.817   "
         id="polyline68" />
      <polyline
         style="fill:none;stroke:#f9a21b"
         points="469.469,356.458 470.055,359.166 472.659,360.03 477.637,360     484.558,360.376 487.142,360.758 491.343,361.4 493.268,361.326 496.154,361.216 499.369,361.253 502.255,361.143     506.271,361.148   "
         id="polyline70" />
      <polyline
         style="fill:none;stroke:#f9a21b"
         points="574.859,340.363 568.283,340.615 559.395,339.19 556.459,338.019     555.897,331.775   "
         id="polyline72" />
      <line
         style="fill:none;stroke:#f9a21b"
         x1="264.20999"
         y1="390.203"
         x2="270.21301"
         y2="387.56299"
         id="line74" />
      <line
         style="fill:none;stroke:#f9a21b"
         x1="328.586"
         y1="376.80899"
         x2="328.82001"
         y2="378.72699"
         id="line76" />
      <line
         style="fill:none;stroke:#f9a21b"
         x1="365.42401"
         y1="378.28299"
         x2="370.15601"
         y2="380.19"
         id="line78" />
      <line
         style="fill:none;stroke:#f9a21b"
         x1="380.82101"
         y1="381.86899"
         x2="388.254"
         y2="383.02899"
         id="line80" />
      <line
         style="fill:none;stroke:#f9a21b"
         x1="391.96799"
         y1="383.52802"
         x2="398.573"
         y2="384.078"
         id="line82" />
      <polyline
         style="fill:none;stroke:#f9a21b"
         points="326.538,382.026 327.814,385.993 330.893,386.678 332.682,387.252     338.356,388.641 342.255,389.775 344.167,389.381 351.452,390.867 360.544,393.409 363.789,394.248   "
         id="polyline84" />
      <path
         inkscape:connector-curvature="0"
         style="fill:none;stroke:#f9a21b"
         d="M 326.538,382.026"
         id="path86" />
      <polyline
         style="fill:none;stroke:#f9a21b"
         points="361.086,399.17 362.9,404.562 376.083,404.858 391.657,404.742     396.956,404.699   "
         id="polyline88" />
      <polyline
         style="fill:none;stroke:#f9a21b"
         points="374.058,410.719 374.787,412.939 379.537,411.15 386.828,408.622     396.049,406.18   "
         id="polyline90" />
      <polyline
         style="fill:none;stroke:#f9a21b"
         points="397.597,421.379 398.609,422.625 417.861,422.046   "
         id="polyline92" />
      <polyline
         style="fill:none;stroke:#f9a21b"
         points="277.04,427.295 282.615,426.117 282.696,428.202 284.306,428.302     286.231,428.228 287.668,428.011 288.951,427.962 289.593,427.937   "
         id="polyline94" />
      <polyline
         style="fill:none;stroke:#f9a21b"
         points="773.803,296.903 774.29,301.221 787.053,298.964   "
         id="polyline96" />
      <polyline
         style="fill:none;stroke:#f9a21b"
         points="788.971,298.729 790.407,298.513 792.653,306.779   "
         id="polyline98" />
      <line
         style="fill:none;stroke:#f9a21b"
         x1="737.922"
         y1="358.21301"
         x2="740.573"
         y2="358.10999"
         id="line100" />
      <polyline
         style="fill:none;stroke:#f9a21b"
         points="542.736,289.864 546.595,290.863 554.341,293.432 560.932,295.854   "
         id="polyline102" />
      <polyline
         style="fill:none;stroke:#f9a21b"
         points="563.442,296.523 571.604,300.032 577.507,299.423 579.768,298.572     581.491,298.696 587.005,297.912 589.097,297.64 593.86,302.235 597.281,301.721 601.473,301.369   "
         id="polyline104" />
      <line
         style="fill:none;stroke:#f9a21b"
         x1="565.54602"
         y1="329.96301"
         x2="565.75598"
         y2="335.42001"
         id="line106" />
      <polyline
         style="fill:none;stroke:#f9a21b"
         points="547.242,374.03 548.82,377.503 550.233,380.822   "
         id="polyline108" />
      <polyline
         style="fill:none;stroke:#f9a21b"
         points="618.201,399.484 624.675,398.422 631.555,397.343 634.197,397.241   "
         id="polyline110" />
      <polyline
         style="fill:none;stroke:#f9a21b"
         points="537.338,521.778 543.329,520.944 545.609,520.737 549.677,519.979     553.17,519.965 557.717,519.188 562.265,518.41 567.076,518.226 570.425,517.615 574.845,516.602 580.702,515.413     591.735,514.146 596.065,513.979 604.573,512.811 610.56,511.857 619.105,511.649 620.23,515.863 625.036,515.518     629.431,514.946 632.798,514.817 636.553,514.272 642.231,513.652   "
         id="polyline112" />
      <polyline
         style="fill:none;stroke:#f9a21b"
         points="1385.247,450.101 1386.77,452.558 1396.132,452.463 1406.311,451.805     1418.241,451.887 1430.544,452.453 1442.518,453.212 1451.27,454.18 1455.576,454.923 1461.705,454.867 1472.617,455.014     1481.504,455.462 1487.261,454.919 1498.447,454.024 1498.032,458.14 1512.709,458.555   "
         id="polyline114" />
      <polyline
         style="fill:none;stroke:#f9a21b"
         points="1445.973,467.128 1461.317,467.328 1473.949,467.704 1485.562,468.145     1498.837,467.969 1510.112,468.433 1518.806,468.55 1525.954,468.43   "
         id="polyline116" />
      <polyline
         style="fill:none;stroke:#f9a21b"
         points="1252.17,473.358 1253.25,476.865 1270.946,476.573 1292.186,475.71     1311.165,474.143   "
         id="polyline118" />
      <polyline
         style="fill:none;stroke:#f9a21b"
         points="1370.198,488.723 1365.438,488.86 1344.4,490.222 1312.021,492.655     1295.894,493.528 1279.903,493.881 1264.602,494.359 1252.015,494.662 1239.653,495.802 1238.983,492.922   "
         id="polyline120" />
      <polyline
         style="fill:none;stroke:#f9a21b"
         points="872.141,521.271 883.551,521.216 897.303,520.495 911.849,518.875     925.158,519.206 939.863,517.403 940.389,520.266 957.736,519.825 979.122,518.613 995.397,517.39 1004.536,516.458     1008.269,516.218 1012.274,514.936 1023.323,514.562 1032.916,512.749 1047.418,510.448 1054.159,509.33 1056.042,512.105     1075.234,511.205 1089.61,509.594 1107.073,508.294 1126.401,506.874 1130.674,507.108 1139.076,507.928 1152.237,508.61     1161.984,509.172   "
         id="polyline122" />
      <polyline
         style="fill:none;stroke:#f9a21b"
         points="1174.318,364.026 1172.525,362.629 1169.993,361.47 1164.999,360.279     1161.032,360.348 1152.169,360.731 1144.273,361.432 1124.271,364.994 1114.176,366.781 1099.044,369.65 1092.772,370.754     1087.548,371.774 1083.163,372.57 1083.509,375.278   "
         id="polyline124" />
      <polyline
         style="fill:none;stroke:#f9a21b"
         points="1441.662,321.412 1447.865,311.983 1450.01,308.266   "
         id="polyline126" />
      <line
         style="fill:none;stroke:#f9a21b"
         x1="1451.542"
         y1="305.612"
         x2="1460.126"
         y2="293.47299"
         id="line128" />
      <line
         style="fill:none;stroke:#f9a21b"
         x1="1461.849"
         y1="291.146"
         x2="1464.969"
         y2="286.686"
         id="line130" />
      <polyline
         style="fill:none;stroke:#f9a21b"
         points="1228.108,409.498 1228.275,412.042 1240.621,408.007 1247.647,406.02   "
         id="polyline132" />
      <polyline
         style="fill:none;stroke:#f9a21b"
         points="1397.4,366.693 1397.926,369.557 1400.652,369.549 1405.146,367.896     1415.213,365.541 1421.934,364.084 1422.312,362.016 1422.497,359.619 1422.851,357.211 1422.957,356.183   "
         id="polyline134" />
      <polyline
         style="fill:none;stroke:#f9a21b"
         points="1443.112,364.93 1425.054,370.187 1423.511,372.671 1421.695,376.196     1419.626,381.1   "
         id="polyline136" />
      <polyline
         style="fill:none;stroke:#f9a21b"
         points="1415.913,389.517 1419.626,381.1 1426.877,379.948 1435.222,374.64     1449.816,365.859 1456.361,361.688 1460.628,359.197 1464.727,356.718 1466.516,355.41   "
         id="polyline138" />
      <polyline
         style="fill:none;stroke:#f9a21b"
         points="1408.985,250.784 1409.384,254.336 1416.105,252.879 1423.586,260.572   "
         id="polyline140" />
      <polyline
         style="fill:none;stroke:#f9a21b"
         points="1217.711,253.954 1218.733,256.613 1234.763,254.214 1253.462,250.961     1266.764,248.567   "
         id="polyline142" />
      <polyline
         style="fill:none;stroke:#f9a21b"
         points="1468.952,353.549 1475.506,349.547 1481.733,345.737 1487.134,342.322     1493.011,338.364 1497.438,335.693 1501.697,333.033 1503.315,331.735 1505.062,329.749 1508.311,327.324 1510.96,326.131     1513.871,323.728 1516.339,322.376 1517.992,321.587   "
         id="polyline144" />
      <polyline
         style="fill:none;stroke:#f9a21b"
         points="1034.39,490.942 1036.761,493.713 1043.128,493.3 1050.212,492.66     1056.022,492.101 1061.468,491.566 1065.858,491.647 1070.624,491.889 1075.001,491.788 1079.573,491.857 1082.244,490.771     1089.703,490.289 1095.854,489.343 1103.47,488.485 1106.915,488.08 1110.918,487.82 1114.544,487.403 1117.978,486.815     1121.798,486.568 1125.448,486.516 1128.905,486.292   "
         id="polyline146" />
      <polyline
         style="fill:none;stroke:#f9a21b"
         points="1528.869,460.339 1532.062,461.172 1533.804,459.555 1535.716,457.581     1539.218,455.581 1544.666,453.729 1550.824,452.043 1557.344,450.88 1563.691,450.073 1572.333,449.055 1578.513,448.78     1582.578,448.894 1585.918,447.781 1593.161,447.667 1600.217,447.026 1606.923,446.391 1612.564,445.595 1614.173,446.807     1622.473,446.5 1630.242,446.201 1638.719,445.891 1648.613,445.912 1657.266,445.6 1665.58,446.175 1668.759,446.125     1675.474,446.197 1681.66,446.277 1687.668,446.358 1693.854,446.438 1699.862,446.521 1705.512,446.255 1710.988,446.169     1716.812,445.725 1721.4,445.298 1726.334,444.515 1732.505,443.711   "
         id="polyline148" />
      <polyline
         style="fill:none;stroke:#f9a21b"
         points="1529.722,469.689 1538.552,469.373 1553.735,468.604 1561.327,468.31     1569.453,468.182 1570.841,466.57   "
         id="polyline150" />
      <polyline
         style="fill:none;stroke:#f9a21b"
         points="2006.306,439.587 2006.147,440.649 2006.686,441.171 2010.553,439.873     2017.425,438.705 2023.778,438.252 2033.667,437.743 2046.738,437.715 2061.757,437.655 2072.712,437.659 2085.083,437.819     2097.813,438.325 2108.953,438.857 2123.103,439.873 2127.877,440.15   "
         id="polyline152" />
      <line
         style="fill:none;stroke:#f9a21b"
         x1="2191.7009"
         y1="453.81201"
         x2="2203.6541"
         y2="449.914"
         id="line154" />
      <polyline
         style="fill:none;stroke:#f9a21b"
         points="2039.942,443.652 2029.909,446.106 2018.979,447.691 2017.213,447.72   "
         id="polyline156" />
      <polyline
         style="fill:none;stroke:#f9a21b"
         points="2080.428,445.137 2081.54,448.476 2090.724,448.155 2100.279,449.065     2110.549,450.494 2119.223,451.595 2125.602,452.73 2130.565,453.713   "
         id="polyline158" />
      <polyline
         style="fill:none;stroke:#f9a21b"
         points="1591.511,500.17 1590.863,503.89 1605.09,498.542 1605.132,501.192     1623.592,495.248   "
         id="polyline160" />
      <polyline
         style="fill:none;stroke:#f9a21b"
         points="2147.815,494.61 2147.865,497.791 2154.933,497.68 2163.058,497.552     2167.637,496.597 2179.825,496.404 2192.01,496.036 2198.549,496.11 2201.386,496.773   "
         id="polyline162" />
      <polyline
         style="fill:none;stroke:#f9a21b"
         points="1602.764,222.784 1604.209,227.197 1623.691,221.078   "
         id="polyline164" />
      <polyline
         style="fill:none;stroke:#f9a21b"
         points="2032.964,207.919 2032.86,211.133 2041.401,209.469   "
         id="polyline166" />
      <polyline
         style="fill:none;stroke:#f9a21b"
         points="1627.87,243.651 1637.905,249.612 1647.974,247.771 1655.752,246.272     1656.253,249.018 1670.434,246.194 1676.833,244.564   "
         id="polyline168" />
      <polyline
         style="fill:none;stroke:#f9a21b"
         points="1723.869,259.121 1712.261,260.222 1690.89,263.004 1674.098,265.104     1662.958,266.808 1663.497,262.211   "
         id="polyline170" />
      <polyline
         style="fill:none;stroke:#f9a21b"
         points="1914.358,277.594 1915.083,278.643 1914.574,280.064 1920.942,280.495     1934.92,281.688 1942.708,282.626 1954.579,284.737 1964.513,287.231 1975.537,291.652 1982.845,295.601 1985.518,297.149   "
         id="polyline172" />
      <line
         style="fill:none;stroke:#f9a21b"
         x1="1662.887"
         y1="297.26999"
         x2="1666.254"
         y2="297.92401"
         id="line174" />
      <polyline
         style="fill:none;stroke:#f9a21b"
         points="1669.439,298.228 1677.933,298.978 1678.004,303.57 1695.845,303.29   "
         id="polyline176" />
      <polyline
         style="fill:none;stroke:#f9a21b"
         points="1654.542,317.19 1654.583,319.841 1671.558,320.634 1686.755,320.748     1696.3,320.952   "
         id="polyline178" />
      <polyline
         style="fill:none;stroke:#f9a21b"
         points="1539.033,387.56 1543.141,390.323 1545.636,391.697   "
         id="polyline180" />
      <polyline
         style="fill:none;stroke:#f9a21b"
         points="1558.258,374.183 1573.044,370.594 1588.533,366.817   "
         id="polyline182" />
      <line
         style="fill:none;stroke:#f9a21b"
         x1="1847.751"
         y1="356.56201"
         x2="1868.7321"
         y2="353.75699"
         id="line184" />
      <polyline
         style="fill:none;stroke:#f9a21b"
         points="1767.573,359.057 1768.509,362.399 1784.396,361.443 1813.007,360.64     1819.013,360.546 1837.009,358.849   "
         id="polyline186" />
      <polyline
         style="fill:none;stroke:#f9a21b"
         points="1925.839,356.041 1947.358,353.76 1955.827,352.919   "
         id="polyline188" />
      <polyline
         style="fill:none;stroke:#f9a21b"
         points="2138.257,358.534 2160.47,355.359 2181.797,352.021 2194.659,349.698     2202.42,348.87   "
         id="polyline190" />
      <polyline
         style="fill:none;stroke:#f9a21b"
         points="1719.827,401.505 1731.602,397.434 1738.098,394.856   "
         id="polyline192" />
      <polyline
         style="fill:none;stroke:#f9a21b"
         points="2217.551,310.997 2218.147,315.228 2220.965,314.653 2226.284,315.807     2231.239,316.259   "
         id="polyline194" />
      <polyline
         style="fill:none;stroke:#f9a21b"
         points="2198.072,365.467 2196.918,368.072 2209.458,368.075 2223.199,368.655     2233.354,368.893 2242.31,368.951 2246.293,369.088   "
         id="polyline196" />
      <polyline
         style="fill:none;stroke:#f9a21b"
         points="2083.689,214.167 2080.255,202.601 2087.985,201.549 2098.035,200.307     2102.833,199.922   "
         id="polyline198" />
      <polyline
         style="fill:none;stroke:#f9a21b"
         points="2165.18,224.042 2179.886,223.346 2194.752,222.802 2205.43,222.015     2204.983,223.106 2204.864,225.432 2212.297,225.161 2225.143,224.338 2227.305,223.841 2231.799,223.925 2239.223,223.188     2239.589,226.746 2242.535,226.855   "
         id="polyline200" />
      <line
         style="fill:none;stroke:#f9a21b"
         x1="2164.45"
         y1="236.757"
         x2="2190.9231"
         y2="235.412"
         id="line202" />
      <polyline
         style="fill:none;stroke:#f9a21b"
         points="2093.686,305.8 2093.729,308.493 2102.229,308.774 2113.646,310.046     2122.783,311.146 2130.465,312.061 2140.429,313.147 2145.825,313.685 2149.775,314.452 2154.974,315.613 2159.961,316.57     2167.227,317.286 2173.862,317.597 2178.845,318.14   "
         id="polyline204" />
      <polyline
         style="fill:none;stroke:#f9a21b"
         points="2184.239,318.47 2193.37,319.362 2205.206,320.833 2213.505,321.532     2220.974,322.036 2227.414,322.972 2234.266,323.899 2239.455,324.44 2243.408,325.414   "
         id="polyline206" />
      <polyline
         style="fill:none;stroke:#f9a21b"
         points="1520.666,320.53 1523.465,318.896 1526.261,316.909 1528.535,315.46   "
         id="polyline208" />
      <polyline
         style="fill:none;stroke:#f9a21b"
         points="1749.884,464.98 1750.065,468.048 1752.469,468.145 1755.133,467.702     1758.731,467.245 1762.465,466.92 1765.53,466.604 1768.736,466.688 1771.81,466.906 1773.941,466.605 1775.677,466.578     1779.678,466.382 1784.752,466.436 1789.29,466.23 1793.689,465.895 1797.023,465.575 1800.621,465.118 1804.218,464.661     1807.284,464.345 1810.749,463.891 1813.945,463.439 1816.079,463.272 1817.939,462.71   "
         id="polyline210" />
      <polyline
         style="fill:none;stroke:#f9a21b"
         points="1682.066,473.79 1681.68,474.73 1681.839,476.33 1681.845,476.73     1682.771,476.182 1685.169,475.878 1687.303,475.711 1691.708,475.642 1693.974,475.338 1698.113,475.407 1701.183,475.358     1704.385,475.175 1705.849,474.885 1710.385,474.68 1717.194,474.707 1721.464,474.506 1726.002,474.435 1728.402,474.263   "
         id="polyline212" />
      <polyline
         style="fill:none;stroke:#f9a21b"
         points="2293.084,432.548 2293.75,434.382 2305.25,435.215 2312.084,436.382     2314.417,436.715   "
         id="polyline214" />
      <polyline
         style="fill:none;stroke:#f9a21b"
         points="2275.584,474.715 2276.25,478.048 2303.584,476.882   "
         id="polyline216" />
      <line
         style="fill:none;stroke:#f9a21b"
         x1="2677.084"
         y1="306.548"
         x2="2679.251"
         y2="306.548"
         id="line218" />
      <line
         style="fill:none;stroke:#f9a21b"
         x1="2681.251"
         y1="305.88101"
         x2="2686.918"
         y2="304.88101"
         id="line220" />
      <polyline
         style="fill:none;stroke:#f9a21b"
         points="2710.251,301.715 2710.417,303.548 2723.251,299.882 2732.417,297.382   "
         id="polyline222" />
      <polyline
         style="fill:none;stroke:#f9a21b"
         points="2716.251,314.715 2719.751,312.215 2729.917,308.715 2735.584,306.715   "
         id="polyline224" />
      <polyline
         style="fill:none;stroke:#f9a21b"
         points="2738.251,305.882 2752.584,302.215 2763.751,299.215 2769.917,298.048     2777.251,297.715 2779.917,297.548   "
         id="polyline226" />
      <polyline
         style="fill:none;stroke:#f9a21b"
         points="2653.917,331.548 2654.584,333.215 2667.917,329.548 2676.751,326.215     2678.084,325.048 2677.251,323.548 2681.251,321.882 2691.251,319.215 2694.751,318.382 2702.084,318.048 2706.417,317.382   "
         id="polyline228" />
      <polyline
         style="fill:none;stroke:#f9a21b"
         points="2714.751,350.715 2707.751,348.882 2702.584,347.882 2691.418,346.882     2678.918,346.882 2665.584,348.049 2653.751,350.215 2641.584,352.882 2628.751,355.382 2620.418,357.049 2619.918,357.048     2619.584,353.882   "
         id="polyline230" />
      <polyline
         style="fill:none;stroke:#f9a21b"
         points="2833.584,330.215 2833.251,331.882 2833.751,333.882 2840.418,334.382     2841.21,337.75 2842.463,341.354 2844.187,346.523   "
         id="polyline232" />
      <polyline
         style="fill:none;stroke:#f9a21b"
         points="2770.917,342.215 2770.917,344.382 2775.917,343.715 2783.584,341.049     2791.251,337.382 2798.084,332.715 2804.751,327.215   "
         id="polyline234" />
      <polyline
         style="fill:none;stroke:#f9a21b"
         points="2416.084,375.715 2416.584,377.715 2425.584,376.549 2445.084,373.715     2461.251,371.382 2478.251,370.049 2491.917,370.382 2503.084,370.382 2514.251,371.382 2525.417,373.382 2535.251,375.882     2541.751,377.882 2544.751,379.049   "
         id="polyline236" />
      <polyline
         style="fill:none;stroke:#f9a21b"
         points="2277.251,387.715 2277.417,390.215 2287.751,391.215 2294.084,391.882     2304.917,392.882 2312.417,393.215 2324.585,393.215   "
         id="polyline238" />
      <polyline
         style="fill:none;stroke:#f9a21b"
         points="2365.585,391.882 2366.585,394.548 2377.251,392.048 2385.751,390.548     2391.085,390.382 2403.917,390.215 2411.417,389.548 2416.751,389.548 2421.085,389.882 2432.585,390.382 2444.751,390.882     2445.585,390.548   "
         id="polyline240" />
      <polyline
         style="fill:none;stroke:#f9a21b"
         points="2505.917,373.882 2504.585,375.715 2512.751,376.048 2528.917,378.548     2538.417,380.548 2547.251,382.882 2552.917,383.548 2563.586,385.215 2579.418,387.215 2584.584,387.215   "
         id="polyline242" />
      <line
         style="fill:none;stroke:#f9a21b"
         x1="2611.751"
         y1="406.88199"
         x2="2625.418"
         y2="404.548"
         id="line244" />
      <polyline
         style="fill:none;stroke:#f9a21b"
         points="2714.751,384.048 2716.418,387.048 2728.251,385.048 2735.918,384.215     2746.251,383.715 2759.084,383.882 2771.751,384.215 2782.251,385.882 2787.918,387.215 2790.751,389.215 2792.084,390.715     2800.084,389.048 2809.418,386.882   "
         id="polyline246" />
      <polyline
         style="fill:none;stroke:#f9a21b"
         points="2392.584,399.215 2391.584,402.882 2406.084,402.215 2416.917,401.548     2425.584,400.882   "
         id="polyline248" />
      <polyline
         style="fill:none;stroke:#f9a21b"
         points="2858.584,287.548 2858.418,290.048 2875.084,290.715 2883.584,291.215   "
         id="polyline250" />
      <polyline
         style="fill:none;stroke:#f9a21b"
         points="2267.095,204.365 2266.93,206.667 2270.055,206.174 2274.824,204.694     2277.29,204.53 2282.223,204.036 2288.965,202.885   "
         id="polyline252" />
      <polyline
         style="fill:none;stroke:#f9a21b"
         points="2244.237,225.907 2260.188,225.907 2282.388,225.907 2286.5,225.743     2292.254,224.756 2292.583,226.565 2302.285,226.729 2312.481,226.729 2321.032,226.729   "
         id="polyline254" />
      <polyline
         style="fill:none;stroke:#f9a21b"
         points="2793.472,236.431 2806.298,235.938 2816.328,234.951 2821.591,235.445     2828.826,234.787 2836.227,234.458 2842.639,233.307 2854.479,232.485 2866.319,232.649 2873.226,233.307 2878.323,233.471     2885.888,233.471   "
         id="polyline256" />
      <polyline
         style="fill:none;stroke:#f9a21b"
         points="2381.545,294.811 2391.577,294.976 2402.594,295.305   "
         id="polyline258" />
      <polyline
         style="fill:none;stroke:#f9a21b"
         points="2878.979,251.066 2879.143,249.586 2879.966,248.106 2871.414,246.133     2865.494,245.311 2853.654,244.16 2844.939,243.996 2836.389,244.653 2831.291,245.64 2831.151,243.215   "
         id="polyline260" />
      <polyline
         style="fill:none;stroke:#f9a21b"
         points="2878.485,252.382 2886.214,253.862 2894.601,255.506 2899.862,256.164     2903.315,256.329 2904.796,256.493 2905.782,256.986   "
         id="polyline262" />
      <polyline
         style="fill:none;stroke:#f9a21b"
         points="2245.917,323.548 2255.584,325.048 2264.751,326.382 2269.417,327.048   "
         id="polyline264" />
      <polyline
         style="fill:none;stroke:#f9a21b"
         points="2271.751,326.882 2279.584,328.048 2288.251,329.215 2297.084,330.548     2303.417,331.548 2310.417,332.549 2313.917,333.215   "
         id="polyline266" />
      <line
         style="fill:none;stroke:#f9a21b"
         x1="2715.918"
         y1="347.715"
         x2="2715.084"
         y2="341.04901"
         id="line268" />
      <line
         style="fill:none;stroke:#ffffff"
         x1="2244.438"
         y1="226.07401"
         x2="2244.9441"
         y2="225.905"
         id="line270" />
      <line
         style="fill:none;stroke:#f9a21b"
         x1="2257"
         y1="264.57401"
         x2="2253.3411"
         y2="273.72198"
         id="line272" />
      <polyline
         style="fill:none;stroke:#f9a21b"
         points="2247.211,285.158 2252.7,286.073 2252.608,287.445 2265.417,288.36     2272.552,289.274   "
         id="polyline274" />
      <polyline
         style="fill:none;stroke:#f9a21b"
         points="2453.995,390.872 2457.981,389.756 2463.244,388.799 2467.23,387.842     2468.346,387.842   "
         id="polyline276" />
      <polyline
         style="fill:none;stroke:#f9a21b"
         points="2444.269,398.367 2450.646,398.207 2455.111,398.048 2459.576,398.048     2465.317,397.889   "
         id="polyline278" />
      <line
         style="fill:none;stroke:#f9a21b"
         x1="2905.7581"
         y1="336.65302"
         x2="2905.7581"
         y2="330.38599"
         id="line280" />
      <line
         style="fill:none;stroke:#f9a21b"
         x1="2766.251"
         y1="357.54901"
         x2="2768.917"
         y2="356.716"
         id="line282" />
      <line
         style="fill:none;stroke:#f9a21b"
         x1="2572.752"
         y1="364.215"
         x2="2612.917"
         y2="372.88101"
         id="line284" />
      <polyline
         style="fill:none;stroke:#f9a21b"
         points="3030.512,457.451 3030.678,460.783 3041.678,461.283 3057.512,462.117     3069.012,462.451 3077.012,461.783   "
         id="polyline286" />
      <polyline
         style="fill:none;stroke:#f9a21b"
         points="3212.512,466.117 3200.844,466.783 3190.512,467.451 3185.678,468.117     3173.012,468.451 3166.678,469.117 3157.844,469.617 3153.012,470.283 3153.344,468.117 3152.517,467.096   "
         id="polyline288" />
      <line
         style="fill:none;stroke:#f9a21b"
         x1="3219.178"
         y1="459.117"
         x2="3224.844"
         y2="449.617"
         id="line290" />
      <path
         inkscape:connector-curvature="0"
         style="fill:none;stroke:#f9a21b"
         d="m 3217.25,492 c -1.681,0 -3.254,0.178 -4.938,0.257 -3.396,0.159 -6.561,-0.278 -9.898,-0.325 -3.573,-0.05 -7.166,0.01 -10.736,-0.148 0,0 -7.5,-0.332 -7.5,-0.332 l 1,-2.334 -7.666,0.166 -13.5,0.168 -11.5,0.332 -2.379,0.162 h -1.947"
         id="path292" />
      <polyline
         style="fill:none;stroke:#f9a21b"
         points="3128.012,453.951 3114.678,453.617 3110.312,453.707 3105.365,453.852     3101.289,453.998 3097.069,454.289 3094.158,454.436 3094.158,452.688   "
         id="polyline294" />
      <polyline
         style="fill:none;stroke:#f9a21b"
         points="3149.678,444.783 3153.178,445.283 3157.012,445.117 3159.012,445.617     3169.845,446.117 3180.845,445.951 3184.845,445.783   "
         id="polyline296" />
      <polyline
         style="fill:none;stroke:#f9a21b"
         points="3192.012,451.783 3198.012,455.451 3205.344,459.283 3212.178,462.117   "
         id="polyline298" />
      <polyline
         style="fill:none;stroke:#f9a21b"
         points="3281.178,452.951 3281.345,456.283 3269.51,458.617 3257.345,461.283     3246.345,463.283 3242.678,463.783 3238.845,464.783 3237.845,462.451   "
         id="polyline300" />
      <line
         style="fill:none;stroke:#f9a21b"
         x1="3291.01"
         y1="455.95099"
         x2="3281.345"
         y2="456.28299"
         id="line302" />
      <polyline
         style="fill:none;stroke:#f9a21b"
         points="3247.178,448.117 3246.51,451.117 3254.345,450.617 3262.845,450.451     3269.345,449.783   "
         id="polyline304" />
      <polyline
         style="fill:none;stroke:#f9a21b"
         points="3030.344,339.285 3038.012,344.451 3044.678,349.117 3049.512,353.285     3053.512,356.951   "
         id="polyline306" />
      <polyline
         style="fill:none;stroke:#f9a21b"
         points="2982.012,317.451 2983.844,321.785 3002.012,321.617   "
         id="polyline308" />
      <polyline
         style="fill:none;stroke:#f9a21b"
         points="3233.678,347.451 3235.51,350.285 3250.178,349.617 3263.345,348.951   "
         id="polyline310" />
      <polyline
         style="fill:none;stroke:#f9a21b"
         points="2973.178,370.451 2966.345,369.951 2957.012,369.117 2947.845,368.117     2935.345,366.785 2925.178,365.117 2918.345,365.117 2917.844,362.951   "
         id="polyline312" />
      <polyline
         style="fill:none;stroke:#f9a21b"
         points="3226.844,375.285 3234.178,371.285 3242.01,364.785 3245.345,361.285   "
         id="polyline314" />
      <polyline
         style="fill:none;stroke:#f9a21b"
         points="3179.344,346.617 3179.344,350.617 3191.512,349.785 3192.678,355.617     3195.678,365.617   "
         id="polyline316" />
      <polyline
         style="fill:none;stroke:#f9a21b"
         points="3184.512,319.117 3184.678,321.285 3193.012,322.117 3200.512,323.617     3195.344,326.285 3195.678,329.117 3196.512,332.451 3198.012,336.951 3199.178,339.117   "
         id="polyline318" />
      <polyline
         style="fill:none;stroke:#f9a21b"
         points="3256.845,326.451 3262.678,326.951 3265.845,327.117   "
         id="polyline320" />
      <polyline
         style="fill:none;stroke:#f9a21b"
         points="3269.678,326.951 3281.845,327.785 3285.845,327.951   "
         id="polyline322" />
      <polyline
         style="fill:none;stroke:#f9a21b"
         points="3382.51,327.617 3383.178,329.785 3389.01,329.451 3394.51,328.617     3400.845,326.285 3404.845,323.117 3407.678,319.617 3408.678,316.617   "
         id="polyline324" />
      <polyline
         style="fill:none;stroke:#f9a21b"
         points="3391.845,302.284 3391.345,305.284 3401.178,303.45 3410.01,302.117     3414.01,301.617 3414.345,303.784 3415.845,303.95   "
         id="polyline326" />
      <polyline
         style="fill:none;stroke:#f9a21b"
         points="3478.678,305.617 3478.345,308.784 3492.178,308.784 3496.51,308.784     3500.845,309.284   "
         id="polyline328" />
      <polyline
         style="fill:none;stroke:#f9a21b"
         points="3516.845,331.285 3516.345,334.117 3525.178,333.285 3532.678,332.951     3532.01,337.285 3524.51,341.451 3519.178,344.785 3513.51,347.617 3509.01,349.951 3505.51,351.285   "
         id="polyline330" />
      <line
         style="fill:none;stroke:#f9a21b"
         x1="3427.178"
         y1="327.617"
         x2="3427.01"
         y2="335.117"
         id="line332" />
      <polyline
         style="fill:none;stroke:#f9a21b"
         points="2940.01,379.951 2940.01,381.951 2949.51,381.785 2958.51,382.117     2964.178,382.951   "
         id="polyline334" />
      <polyline
         style="fill:none;stroke:#f9a21b"
         points="2976.678,384.785 2983.178,385.285 2986.51,385.617 2989.51,386.285   "
         id="polyline336" />
      <line
         style="fill:none;stroke:#f9a21b"
         x1="3066.344"
         y1="397.117"
         x2="3070.844"
         y2="405.785"
         id="line338" />
      <polyline
         style="fill:none;stroke:#f9a21b"
         points="3147.01,407.617 3163.178,396.951 3174.178,389.451 3178.01,387.117     3179.178,388.785 3186.01,385.617 3195.51,381.617 3204.844,378.285 3210.844,376.951 3215.678,376.285 3218.178,375.785   "
         id="polyline340" />
      <polyline
         style="fill:none;stroke:#f9a21b"
         points="3174.51,409.285 3177.844,403.451 3180.51,399.285   "
         id="polyline342" />
      <polyline
         style="fill:none;stroke:#f9a21b"
         points="3288.51,349.617 3288.178,353.951 3297.178,353.451 3297.51,356.285     3298.01,362.117   "
         id="polyline344" />
      <polyline
         style="fill:none;stroke:#f9a21b"
         points="3318.845,350.451 3318.678,352.617 3310.01,352.617 3302.345,353.117     3297.178,353.451   "
         id="polyline346" />
      <polyline
         style="fill:none;stroke:#f9a21b"
         points="3456.178,419.783 3456.844,421.617 3464.01,421.117 3472.178,421.117     3475.51,421.783 3478.178,423.283 3479.178,424.783 3478.844,427.451 3477.344,429.617 3474.344,431.117 3467.844,431.783     3464.178,432.117 3460.344,432.783 3458.678,433.783 3457.178,435.283 3457.01,436.283 3457.01,437.951 3458.678,438.617     3464.344,437.617 3472.01,436.617 3477.678,436.283   "
         id="polyline348" />
      <polyline
         style="fill:none;stroke:#f9a21b"
         points="3097.95,236.171 3104.738,237.042 3112.572,237.216 3119.361,237.564     3128.412,237.39 3133.461,237.042 3139.379,236.694 3144.602,235.823 3148.779,235.127 3155.047,234.605 3165.315,233.734     3170.19,233.212 3174.891,232.69 3179.416,232.69 3184.812,231.82 3188.643,231.297 3197.694,230.949 3201.002,231.124     3201.697,231.124   "
         id="polyline350" />
      <polyline
         style="fill:none;stroke:#f9a21b"
         points="3470.127,234.431 3469.778,236.694 3469.604,237.564 3470.996,238.261     3472.39,237.738 3473.956,238.086 3480.571,237.564 3489.623,236.52 3498.674,235.998 3504.767,235.127 3509.989,234.605     3519.041,234.083 3528.093,233.386 3535.578,232.69 3539.408,231.82 3544.282,230.949 3548.46,230.601 3550.896,230.601   "
         id="polyline352" />
      <polyline
         style="fill:none;stroke:#f9a21b"
         points="3148.5,248.706 3156.859,247.702 3164.55,246.532 3167.727,246.03   "
         id="polyline354" />
      <polyline
         style="fill:none;stroke:#f9a21b"
         points="3217.375,273.783 3222.225,272.445 3227.574,271.442 3231.252,270.94     3232.924,270.94 3232.59,272.445 3238.607,271.275 3244.459,270.439 3249.809,269.603 3253.821,269.102   "
         id="polyline356" />
      <polyline
         style="fill:none;stroke:#f9a21b"
         points="3550.178,363.551 3549.578,358.75 3549.178,356.551   "
         id="polyline358" />
      <polyline
         style="fill:none;stroke:#f9a21b"
         points="3427.01,334.617 3443.01,334.951 3445.51,334.951 3447.678,334.617     3449.01,333.785 3451.01,331.785   "
         id="polyline360" />
      <polyline
         style="fill:none;stroke:#f9a21b"
         points="2906.928,257.2 2912.678,259.2 2920.678,260.7   "
         id="polyline362" />
      <line
         style="fill:none;stroke:#f9a21b"
         x1="3454.844"
         y1="418.78299"
         x2="3459.844"
         y2="412.45099"
         id="line364" />
      <polyline
         style="fill:none;stroke:#f9a21b"
         points="3593.854,502.019 3593.673,504.282 3606.774,503.587 3623.751,503.411     3633.46,502.526 3633.603,504.63 3647.833,504.269 3664.659,502.8 3670.171,501.229 3671.12,503.665 3680.35,501.966     3691.685,499.962 3703.996,496.999   "
         id="polyline366" />
      <line
         style="fill:none;stroke:#f9a21b"
         x1="3706.9099"
         y1="496.70001"
         x2="3709.822"
         y2="496.40302"
         id="line368" />
      <polyline
         style="fill:none;stroke:#f9a21b"
         points="3674.007,376.614 3679.978,377.798 3687.892,378.675 3693.056,379.853     3696.45,380.044 3696.917,381.987 3696.403,385.378 3702.849,387.698 3707.042,389.028 3709.776,390.507   "
         id="polyline370" />
      <polyline
         style="fill:none;stroke:#f9a21b"
         points="3668.998,339.224 3668.505,339.866 3668.817,341.325 3676.585,340.423     3683.389,339.026   "
         id="polyline372" />
      <polyline
         style="fill:none;stroke:#f9a21b"
         points="3707.005,337.616 3706.66,340.038 3712.165,339.116 3718.315,338.362     3723.651,338.247   "
         id="polyline374" />
      <polyline
         style="fill:none;stroke:#f9a21b"
         points="3563.558,416.716 3565.311,419.479 3570.354,415.644 3575.07,412.774     3577.024,411.175   "
         id="polyline376" />
      <polyline
         style="fill:none;stroke:#f9a21b"
         points="3681.527,422.595 3681.51,424.534 3690.076,424.771 3699.287,425.337     3708.336,425.901 3714.8,426.28 3720.45,427.138 3727.226,428.813 3728.837,429.474   "
         id="polyline378" />
      <polyline
         style="fill:none;stroke:#f9a21b"
         points="3584.354,412.065 3591.024,414.112 3596.255,415.423   "
         id="polyline380" />
      <path
         inkscape:connector-curvature="0"
         style="fill:none;stroke:#f9a21b"
         d="m 3596.249,341.362 1.438,-0.396 4.506,0.039 7.373,0.27 2.69,-3.254 3.938,-5.293 c 0,0 2.565,-2.633 2.604,-2.672 -0.062,0.063 5.409,2.704 5.871,2.944"
         id="path382" />
      <polyline
         style="fill:none;stroke:#f9a21b"
         points="3553.708,230.059 3561.071,228.991 3566.087,228.631 3576.275,228.316     3596.727,228.414 3620.157,229.912 3622.501,229.851 3628.157,230.143 3634.533,231.33 3640.593,231.625 3646.964,233.378     3650.683,233.411 3660.769,235.439 3670.935,237.63   "
         id="polyline384" />
      <polyline
         style="fill:none;stroke:#f9a21b"
         points="3638.27,239.657 3652.333,239.986 3655.943,241.052 3669.482,242.204   "
         id="polyline386" />
      <line
         style="fill:none;stroke:#f9a21b"
         x1="3778.167"
         y1="279.065"
         x2="3794.4331"
         y2="286.32001"
         id="line388" />
      <line
         style="fill:none;stroke:#f9a21b"
         x1="3920.7639"
         y1="288.901"
         x2="3945.6499"
         y2="298.504"
         id="line390" />
      <line
         style="fill:none;stroke:#f9a21b"
         x1="4047.5891"
         y1="423.79599"
         x2="4046.9331"
         y2="419.22"
         id="line392" />
      <polyline
         style="fill:none;stroke:#f9a21b"
         points="4170.689,410.938 4170.671,413.122 4181.565,415.157   "
         id="polyline394" />
      <polyline
         style="fill:none;stroke:#f9a21b"
         points="4305.96,473.6 4306.603,475.523 4312.559,479.842 4318.391,482.247     4325.135,482.944 4330.178,482.384 4328.683,486.505 4338.933,485.733   "
         id="polyline396" />
      <polyline
         style="fill:none;stroke:#f9a21b"
         points="4332.122,494.225 4331.653,498.894 4339.788,499.453 4351.269,498.021     4360.215,494.094 4366.407,489.399 4370.519,484.652 4374.704,477.134 4376.008,473.699   "
         id="polyline398" />
      <line
         style="fill:none;stroke:#f9a21b"
         x1="4234.4189"
         y1="278.91299"
         x2="4238.7271"
         y2="279.89301"
         id="line400" />
      <polyline
         style="fill:none;stroke:#f9a21b"
         points="4213.753,425.756 4213.325,428.866 4221.579,431.51 4227.767,433.579     4232.244,434.736 4235.514,435.689   "
         id="polyline402" />
      <polyline
         style="fill:none;stroke:#f9a21b"
         points="4524.706,390.377 4529.394,390.152 4533.37,390.604 4537.679,391.584   "
         id="polyline404" />
      <polyline
         style="fill:none;stroke:#f9a21b"
         points="4846.873,430.023 4846.969,432.974 4850.078,433.402 4852.147,433.803     4853.361,433.835   "
         id="polyline406" />
      <polyline
         style="fill:none;stroke:#f9a21b"
         points="4699.42,446.944 4705.536,444.681 4711.497,442.566   "
         id="polyline408" />
      <line
         style="fill:none;stroke:#f9a21b"
         x1="4820.2788"
         y1="326.50601"
         x2="4849.0571"
         y2="320.14999"
         id="line410" />
      <line
         style="fill:none;stroke:#f9a21b"
         x1="4853.0381"
         y1="366.724"
         x2="4855.7739"
         y2="368.18201"
         id="line412" />
      <polyline
         style="fill:none;stroke:#f9a21b"
         points="5067.581,484.405 5068.191,486.692 5070.161,485.59 5082.874,483.535     5089.079,481.855 5090.379,481.879   "
         id="polyline414" />
      <polyline
         style="fill:none;stroke:#f9a21b"
         points="5273.148,448.664 5272.616,451.255 5275.896,449.524 5279.808,448.942   "
         id="polyline416" />
      <polyline
         style="fill:none;stroke:#f9a21b"
         points="5283.396,448.192 5288.771,447.474 5288.233,450.39 5289.716,449.277     5293.296,449.016   "
         id="polyline418" />
      <line
         style="fill:none;stroke:#f9a21b"
         x1="5297.0322"
         y1="449.08099"
         x2="5301.9121"
         y2="448.841"
         id="line420" />
      <line
         style="fill:none;stroke:#f9a21b"
         x1="5358.2549"
         y1="451.93701"
         x2="5360.228"
         y2="450.67099"
         id="line422" />
      <line
         style="fill:none;stroke:#f9a21b"
         x1="5363.8042"
         y1="450.57001"
         x2="5365.4292"
         y2="450.599"
         id="line424" />
      <polyline
         style="fill:none;stroke:#f9a21b"
         points="5258.128,508.697 5261.85,509.413 5264.926,510.116 5270.48,508.426   "
         id="polyline426" />
      <polyline
         style="fill:none;stroke:#f9a21b"
         points="5152.16,489.946 5152.59,493.203 5158.132,492.325 5163.519,490.956     5167.912,490.708 5173.273,490.802   "
         id="polyline428" />
      <polyline
         style="fill:none;stroke:#f9a21b"
         points="5233.723,500.634 5233.024,503.384 5248.058,508.035 5251.619,508.909   "
         id="polyline430" />
      <polyline
         style="fill:none;stroke:#f9a21b"
         points="5203.553,506.607 5203.699,507.424 5203.49,510.182 5214.348,511.997   "
         id="polyline432" />
      <polyline
         style="fill:none;stroke:#f9a21b"
         points="5325.705,482.41 5333.558,479.46 5333.58,478.159   "
         id="polyline434" />
      <polyline
         style="fill:none;stroke:#f9a21b"
         points="5334.11,475.73 5334.305,473.947 5344.426,471.361 5345.489,466.341   "
         id="polyline436" />
      <polyline
         style="fill:none;stroke:#f9a21b"
         points="5355.979,461.323 5361.368,459.792 5365.176,455.795   "
         id="polyline438" />
      <path
         inkscape:connector-curvature="0"
         style="fill:none;stroke:#f9a21b"
         d="m 5429.595,443.105 -5.709,1.2 c -2.32,0.49 -4.874,0.153 -7.232,0.251 -2.775,0.113 -5.545,0.446 -8.33,0.446"
         id="path440" />
      <line
         style="fill:none;stroke:#f9a21b"
         x1="5317.8569"
         y1="503.72699"
         x2="5319.853"
         y2="501.16101"
         id="line442" />
      <polyline
         style="fill:none;stroke:#f9a21b"
         points="5461.631,507.211 5462.25,509.01 5466.497,507.784 5472.527,506.751   "
         id="polyline444" />
      <polyline
         style="fill:none;stroke:#f9a21b"
         points="5248.743,291.889 5248.689,294.976 5257.817,293.51 5265.641,292.184     5267.1,292.371 5270.207,291.288 5270.81,294.062 5276.846,292.705 5284.024,291.204 5286.794,290.765 5290.378,290.503   "
         id="polyline446" />
      <polyline
         style="fill:none;stroke:#f9a21b"
         points="5312.488,392.305 5322.867,393.624 5330.983,394.253 5336.176,394.668     5341.534,394.924   "
         id="polyline448" />
      <polyline
         style="fill:none;stroke:#f9a21b"
         points="5410.113,386.044 5410.07,388.481 5416.075,388.911 5422.253,388.857     5424.69,388.899 5427.113,389.754 5431.503,389.668 5435.234,390.059 5442.378,390.671 5448.858,391.597 5453.71,392.982     5461.299,395.877 5466.606,399.058 5471.424,402.393 5476.241,405.726 5479.931,408.555 5480.723,409.705   "
         id="polyline450" />
      <polyline
         style="fill:none;stroke:#f9a21b"
         points="5391.805,420.018 5394.76,418.281 5399.003,417.381 5403.419,415.67     5409.135,414.145 5415.336,412.952 5421.04,411.752 5425.271,411.499 5430.321,410.776 5435.367,410.376 5439.435,410.122     5442.844,410.344 5444.622,410.862   "
         id="polyline452" />
      <polyline
         style="fill:none;stroke:#f9a21b"
         points="5062.673,393.145 5067.488,396.641 5074.26,399.686 5081.681,402.903     5089.42,406.451 5095.539,409.646   "
         id="polyline454" />
      <polyline
         style="fill:none;stroke:#f9a21b"
         points="5040.696,367.244 5045.243,367.486 5049.94,368.381 5055.129,369.121     5063.71,371.059 5068.883,372.612 5074.369,374.82 5075.644,376.305 5078.971,381.239 5082.674,383.254 5090.919,385.836     5096.906,387.241 5103.394,388.004 5111.344,388.794 5116.378,389.044 5123.21,388.676 5127.939,387.783 5131.857,386.714   "
         id="polyline456" />
      <polyline
         style="fill:none;stroke:#f9a21b"
         points="5143.378,387.89 5143.679,389.195 5148.887,388.799 5153.767,388.559     5159.15,387.353 5162.577,386.6 5166.152,386.662   "
         id="polyline458" />
      <polyline
         style="fill:none;stroke:#f9a21b"
         points="5028.455,416.764 5027.777,418.377 5027.755,419.678 5030.995,420.222     5038.128,421.32 5042.996,421.73 5048.329,423.449 5050.113,423.643   "
         id="polyline460" />
      <polyline
         style="fill:none;stroke:#f9a21b"
         points="5194.363,427.785 5203.238,422.09 5209.812,417.979 5211.73,419.801     5216.474,418.096 5223.674,415.295 5229.075,413.113 5236.112,410.312 5243.472,407.677 5249.509,406.32 5251.955,405.875   "
         id="polyline462" />
      <polyline
         style="fill:none;stroke:#f9a21b"
         points="5354.592,419.693 5355.21,421.654 5360.088,421.414 5366.1,421.52     5372.596,421.795 5376.82,421.868 5381.855,421.956   "
         id="polyline464" />
      <polyline
         style="fill:none;stroke:#f9a21b"
         points="5452.074,384.338 5451.888,385.636 5451.71,386.608 5454.475,386.493     5456.757,386.045 5464.057,386.823 5467.785,387.376 5481.915,387.947 5488.246,388.383 5492.952,388.79 5497.328,389.517     5503.826,389.63 5510.163,389.741   "
         id="polyline466" />
      <polyline
         style="fill:none;stroke:#f9a21b"
         points="4901.385,321.742 4901.77,324.35 4927.895,323.745 4933.81,325.26   "
         id="polyline468" />
      <polyline
         style="fill:none;stroke:#f9a21b"
         points="5223.496,449.916 5227.76,450.483 5233.663,451.244 5239.079,451.668     5245.323,451.777 5251.907,451.234 5258.66,450.366   "
         id="polyline470" />
      <line
         style="fill:none;stroke:#f9a21b"
         x1="5212.0029"
         y1="309.31299"
         x2="5212.9932"
         y2="317.01199"
         id="line472" />
      <polyline
         style="fill:none;stroke:#f9a21b"
         points="5184.285,362.762 5200.201,363.365 5200,365.637 5221.939,365.694     5230.092,364.212 5248.143,363.552   "
         id="polyline474" />
      <polyline
         style="fill:none;stroke:#f9a21b"
         points="5278.165,505.797 5283.036,506.044 5298.348,504.037   "
         id="polyline476" />
      <polyline
         style="fill:none;stroke:#f9a21b"
         points="5303.938,500.396 5307.392,498.019 5309.342,498.053   "
         id="polyline478" />
      <polyline
         style="fill:none;stroke:#f9a21b"
         points="5564.443,448.217 5564.559,449.752 5569.305,450.259 5576.065,451.516     5581.15,452.032 5586.58,452.394   "
         id="polyline480" />
      <polyline
         style="fill:none;stroke:#f9a21b"
         points="5774.454,518.319 5775.304,518.349 5778.648,519.997 5784.037,521.546     5789.253,523.26 5798.354,525.619 5807.46,527.978   "
         id="polyline482" />
      <polyline
         style="fill:none;stroke:#f9a21b"
         points="5770.003,475.298 5769.785,476.651 5777.965,476.257 5783.062,476.435   "
         id="polyline484" />
      <polyline
         style="fill:none;stroke:#f9a21b"
         points="6017.549,493.469 6011.628,492.581 6007.562,492.1 6001.785,491.898     5989.558,491.3 5969.336,490.765 5954.232,489.727 5940.98,489.264 5939.507,489.064 5938.78,489.039   "
         id="polyline486" />
      <polyline
         style="fill:none;stroke:#f9a21b"
         points="5970.492,481.959 5979.527,481.425 5985.807,481.812 5990.086,481.112     5998.586,481.239   "
         id="polyline488" />
      <polyline
         style="fill:none;stroke:#f9a21b"
         points="5510.715,325.738 5510.795,328.292 5514.199,328.241 5515.378,328.623     5525.236,328.797 5535.454,328.474 5539.034,328.258   "
         id="polyline490" />
      <polyline
         style="fill:none;stroke:#f9a21b"
         points="5540.128,296.997 5541.413,299.083 5544.654,298.856 5550.331,297.014     5555.986,295.851 5559.395,295.629 5564.035,294.261 5564.855,295.14 5565.84,296.194 5569.072,296.137 5572.003,295.048     5576.608,294.699 5583.264,294.081 5587.037,293.192 5588.736,293.251   "
         id="polyline492" />
      <polyline
         style="fill:none;stroke:#f9a21b"
         points="5874.949,339.138 5882.94,339.247 5889.074,338.95 5893.669,338.941     5897.247,338.726 5903.938,337.089 5915.949,334.106 5924.176,332.353 5928.119,331.47   "
         id="polyline494" />
      <polyline
         style="fill:none;stroke:#f9a21b"
         points="5812.213,328.442 5812.744,332.714 5815.773,333.67 5821.871,334.393     5829.003,334.812 5834.438,335.001 5840.871,335.906 5849.846,337.07 5853.919,337.383 5859.846,338.101 5864.602,338.267   "
         id="polyline496" />
      <polyline
         style="fill:none;stroke:#f9a21b"
         points="5596.137,329.741 5596.569,331.968 5602.336,332.51 5608.268,333.058     5615.908,333.494 5621.18,333.509 5626.799,333.364 5627.39,335.937 5633.348,335.804 5641.685,335.755 5648.996,335.841     5653.571,336.341   "
         id="polyline498" />
      <polyline
         style="fill:none;stroke:#f9a21b"
         points="6052.258,327.64 6053.37,329.89 6059.5,329.763 6066.682,328.653     6069.586,328.414 6075.528,328.622 6080.139,328.103 6088.657,327.719 6098.014,327.706 6105.319,327.962 6114.153,328.27     6118.566,328.594 6127.003,330.589 6132.899,332.155 6137.1,333.663 6141.281,335.681 6144.438,337.832 6147.238,340.481     6147.719,341.349 6147.828,343.054   "
         id="polyline500" />
      <polyline
         style="fill:none;stroke:#f9a21b"
         points="5771.784,365.813 5771.736,367.173 5774.842,365.921 5777.409,365.5     5778.779,365.208 5783.537,365.374 5785.236,365.433 5786.109,364.783 5789.854,364.743 5793.094,364.517   "
         id="polyline502" />
      <polyline
         style="fill:none;stroke:#f9a21b"
         points="5714.845,393.764 5719.906,394.961 5729.919,395.651 5737.381,396.252     5744.688,396.507 5752.49,397.12 5763.357,397.669 5765.391,397.91   "
         id="polyline504" />
      <polyline
         style="fill:none;stroke:#f9a21b"
         points="5716.162,395.001 5722.072,396.228 5726.285,397.395 5729.169,397.666   "
         id="polyline506" />
      <polyline
         style="fill:none;stroke:#f9a21b"
         points="6043.066,420.364 6040.817,421.478 6038.221,422.747 6034.96,423.653     6031.688,424.73 6026.53,426.251 6022.922,427.316 6016.177,430.482 6012.362,432.561 6008.378,434.633 6004.569,436.542     6000.766,438.279   "
         id="polyline508" />
      <polyline
         style="fill:none;stroke:#f9a21b"
         points="5738.363,426.564 5742.912,422.98 5746.234,420.375   "
         id="polyline510" />
      <polyline
         style="fill:none;stroke:#f9a21b"
         points="5577.294,406.65 5584.615,406.396 5590.725,406.78 5597.532,406.678   "
         id="polyline512" />
      <polyline
         style="fill:none;stroke:#f9a21b"
         points="5646.383,405.832 5646.469,408.216 5653.112,407.938 5664,407.978     5668.578,408.309 5671.133,408.227 5672.51,407.765   "
         id="polyline514" />
      <polyline
         style="fill:none;stroke:#f9a21b"
         points="5752.422,418.55 5754.548,421.006 5755.824,423.432 5756.725,426.865   "
         id="polyline516" />
      <polyline
         style="fill:none;stroke:#f9a21b"
         points="5772.819,423.856 5777.672,421.303 5781.48,419.395 5785.811,417.165     5788.776,415.057 5790.147,414.765   "
         id="polyline518" />
      <polyline
         style="fill:none;stroke:#f9a21b"
         points="5543.282,406.313 5540.03,406.881 5535.602,407.066 5530.475,407.738     5526.883,408.293 5521.211,409.966 5513.998,411.926 5510.234,413.268   "
         id="polyline520" />
      <polyline
         style="fill:none;stroke:#f9a21b"
         points="6161.228,514.646 6160.108,517.499 6165.08,521.245 6171.746,525.219     6177.253,528.304 6182.101,530.684 6185.306,531.477 6191.55,532.886 6195.077,534.199   "
         id="polyline522" />
      <polyline
         style="fill:none;stroke:#f9a21b"
         points="5677.353,362.427 5678.51,364.302 5680.419,368.038 5682.187,369.935     5684.173,371.431 5685.586,371.888   "
         id="polyline524" />
      <polyline
         style="fill:none;stroke:#f9a21b"
         points="5890.995,459.281 5891.786,461.01 5902.354,460.358 5912.953,458.856     5913.235,455.635 5914.393,451.762 5915.688,448.746   "
         id="polyline526" />
      <line
         style="fill:none;stroke:#f9a21b"
         x1="5917.189"
         y1="444.716"
         x2="5918.4561"
         y2="442.54999"
         id="line528" />
      <polyline
         style="fill:none;stroke:#f9a21b"
         points="6206.8,334.961 6203.551,334.439 6203.657,331.38   "
         id="polyline530" />
      <polyline
         style="fill:none;stroke:#f9a21b"
         points="6046.364,388.763 6047.399,391.027 6052.319,390.53 6059.033,389.65     6066.408,389.018 6071.55,388.528 6079.128,388.569 6088.241,389.11 6096.46,389.845 6105.106,391.036 6113.095,391.983     6121.091,392.709 6128.88,392.981 6134.88,393.413 6139.761,394.03 6144.181,395.075 6147.05,395.844 6151.048,396.206     6154.808,397.006 6161.199,399.011 6167.184,399.89 6172.057,400.728 6179.569,402.55 6183.544,403.579 6187.979,404.18     6190.864,404.504 6194.394,405.519 6197.954,405.643 6201.483,406.657 6203.67,407.848   "
         id="polyline532" />
      <line
         style="fill:none;stroke:#f9a21b"
         x1="6202.6318"
         y1="459.10699"
         x2="6186.4941"
         y2="446.29599"
         id="line534" />
      <polyline
         style="fill:none;stroke:#f9a21b"
         points="6207.868,335.361 6212.79,335.053 6215.95,334.322 6219.1,334.18     6225.419,332.717 6231.143,331.637 6234.892,330.915 6238.435,330.779   "
         id="polyline536" />
      <polyline
         style="fill:none;stroke:#f9a21b"
         points="6830.503,352.72 6830.628,356.853 6841.215,358.808 6843.573,358.849     6846.693,360.477   "
         id="polyline538" />
      <polyline
         style="fill:none;stroke:#f9a21b"
         points="6451.181,470.607 6461.651,468.037 6474.297,464.717 6490.311,460.078     6499.419,456.697 6512.682,451.814 6523.771,447.484 6533.866,443.922 6541.189,441.297 6547.526,438.852 6550.903,436.943     6552.687,436.188 6554.653,436.223   "
         id="polyline540" />
      <polyline
         style="fill:none;stroke:#f9a21b"
         points="6788.645,406.867 6787.613,409.604 6797.591,412.729 6803.455,414.797     6807.357,416.635   "
         id="polyline542" />
      <line
         style="fill:none;stroke:#f9a21b"
         x1="6563.062"
         y1="450.33401"
         x2="6563.3369"
         y2="445.81201"
         id="line544" />
      <line
         style="fill:none;stroke:#f9a21b"
         x1="6563.1782"
         y1="443.646"
         x2="6563.1982"
         y2="442.46701"
         id="line546" />
      <line
         style="fill:none;stroke:#f5ea14"
         x1="6564.022"
         y1="440.31799"
         x2="6563.8501"
         y2="438.939"
         id="line548" />
      <polyline
         style="fill:none;stroke:#f9a21b"
         points="6771.88,498.859 6772.021,500.787 6775.003,500.488 6778.684,500.377     6781.132,500.596 6783.044,501.506   "
         id="polyline550" />
      <polyline
         style="fill:none;stroke:#f9a21b"
         points="6739.434,471.498 6739.843,478.16 6743.894,476.828 6749.88,475.008     6756.216,473.191 6760.438,472.039 6768.517,470.779 6775.366,469.674 6777.299,469.357   "
         id="polyline552" />
      <polyline
         style="fill:none;stroke:#f9a21b"
         points="6855.913,500.854 6856.58,502.789 6862.75,500.447 6875.266,495.762     6885.656,492.439   "
         id="polyline554" />
      <polyline
         style="fill:none;stroke:#f9a21b"
         points="6943.771,455.799 6949.984,460.432 6952.604,462.443   "
         id="polyline556" />
      <polyline
         style="fill:none;stroke:#f9a21b"
         points="6947.743,318.377 6946.925,320.133 6945.715,321.882 6950.21,323.73     6956.428,327.97 6961.092,331.199 6963.836,331.836   "
         id="polyline558" />
      <polyline
         style="fill:none;stroke:#f9a21b"
         points="6205.063,407.73 6209.413,407.807 6213.984,408.344 6219.003,409.578     6221.736,410.312 6226.086,410.617 6232.022,411.408 6236.818,412.178 6242.753,413.428 6246.86,414.186 6250.282,414.934     6253.7,415.908 6257.798,417.354   "
         id="polyline560" />
      <polyline
         style="fill:none;stroke:#f9a21b"
         points="6705.567,478.816 6705.328,481.182 6708.284,481.43 6711.05,481.281     6715.199,480.959   "
         id="polyline562" />
      <line
         style="fill:none;stroke:#f9a21b"
         x1="6871.521"
         y1="414.215"
         x2="6860.4829"
         y2="415.59601"
         id="line564" />
      <polyline
         style="fill:none;stroke:#f9a21b"
         points="6371.798,547.154 6379.765,543.594 6388.396,540.549 6394.836,537.969   "
         id="polyline566" />
      <polyline
         style="fill:none;stroke:#f9a21b"
         points="6918.729,301.544 6926.238,299.512 6931.77,298.232   "
         id="polyline568" />
      <polyline
         style="fill:none;stroke:#f9a21b"
         points="6238.764,469.752 6228.766,467.807 6217.324,464.066 6203.836,459.406   "
         id="polyline570" />
      <line
         style="fill:none;stroke:#f9a21b"
         x1="6420.0439"
         y1="428.95499"
         x2="6424.4868"
         y2="427.85199"
         id="line572" />
      <line
         style="fill:none;stroke:#f9a21b"
         x1="6635.73"
         y1="442.26401"
         x2="6653.3462"
         y2="435.64499"
         id="line574" />
      <polyline
         style="fill:none;stroke:#f9a21b"
         points="6677.269,364.404 6675.671,371.457 6680.369,372.719 6679.051,380.662   "
         id="polyline576" />
      <polyline
         style="fill:none;stroke:#f9a21b"
         points="7284.497,431.752 7284.106,438.185 7290.071,439.452 7289.773,442.332   "
         id="polyline578" />
      <line
         style="fill:none;stroke:#f9a21b"
         x1="7289.0322"
         y1="445.20001"
         x2="7288.438"
         y2="450.961"
         id="line580" />
      <polyline
         style="fill:none;stroke:#f9a21b"
         points="6987.776,334.271 6997.177,335.106 7006.571,336.138 7015.573,337.158     7021.46,337.312 7024.597,337.395 7034.368,339.025 7045.694,341.285 7045.25,343.235 7050.536,343.767 7056.214,344.309     7061.503,344.84 7061.074,361.119 7053.031,360.909 7045.784,360.326 7045.46,357.767 7041.53,357.859 7034.438,358.852     7024.378,360.748 7025.069,364.299 7019.743,365.338 7014.023,366.365 7004.949,368.09   "
         id="polyline582" />
      <polyline
         style="fill:none;stroke:#f9a21b"
         points="7071.446,534.717 7071.59,529.224 7073.003,520.232 7075.186,511.85     7078.163,503.093 7080.474,497.266 7082.72,493.987   "
         id="polyline584" />
      <polyline
         style="fill:none;stroke:#f9a21b"
         points="6951.784,462.737 6958.821,466.749 6964.865,469.712 6968.368,472.354   "
         id="polyline586" />
      <polyline
         style="fill:none;stroke:#f9a21b"
         points="6952.022,474.023 6953.128,476.383 6957.804,475.924 6963.368,474.902     6967.493,473.261 6970.753,471.306   "
         id="polyline588" />
      <line
         style="fill:none;stroke:#f9a21b"
         x1="6964.9741"
         y1="332.57599"
         x2="6970.4419"
         y2="335.772"
         id="line590" />
      <path
         inkscape:connector-curvature="0"
         style="fill:none;stroke:#f9a21b"
         d="m 714,312.125 c -0.847,-0.312 -1.717,-0.83 -2.595,-1.156 -2.078,-0.771 -4.747,-1.081 -6.962,-1.569 -1.88,-0.414 -3.819,-0.817 -5.697,-1.185 -1.184,-0.232 -2.587,-0.745 -3.726,-0.825 -0.072,0.804 -0.338,1.545 -0.413,2.34 -1.642,0.076 -6.569,-0.349 -4.918,-0.259 0.428,0.023 -8.916,-1.007 -8.783,-0.851 0.337,0.393 -0.441,-0.94 -0.778,-1.368 -0.548,-0.696 -2.685,-1.982 -2.008,-1.475 0.465,0.348 -2.381,-3.989 -2.294,-3.696 0.31,1.045 -0.093,-2.085 -1.448,-1.808 -1.036,0.211 -1.844,0.476 -3.009,0.476 -1.917,0 -3.73,0.335 -5.619,0.375"
         id="path592" />
      <path
         inkscape:connector-curvature="0"
         style="fill:none;stroke:#f9a21b"
         d="m 4414.161,297.667 c 2.326,0.435 5.069,0.076 7.467,0.202 2.899,0.152 5.797,0.362 8.7,0.465"
         id="path594" />
    </g>
  </g>
</svg>
