<?xml version="1.0" encoding="UTF-8" standalone="no"?>
<!-- Created with Inkscape (http://www.inkscape.org/) -->

<svg
   xmlns:dc="http://purl.org/dc/elements/1.1/"
   xmlns:cc="http://creativecommons.org/ns#"
   xmlns:rdf="http://www.w3.org/1999/02/22-rdf-syntax-ns#"
   xmlns:svg="http://www.w3.org/2000/svg"
   xmlns="http://www.w3.org/2000/svg"
   xmlns:sodipodi="http://sodipodi.sourceforge.net/DTD/sodipodi-0.dtd"
   xmlns:inkscape="http://www.inkscape.org/namespaces/inkscape"
   version="1.1"
   width="681.13281"
   height="60.163372"
   id="svg4242"
   style="enable-background:new"
   inkscape:version="0.48+devel r9873 custom"
   sodipodi:docname="route2.svg">
  <metadata
     id="metadata1283">
    <rdf:RDF>
      <cc:Work
         rdf:about="">
        <dc:format>image/svg+xml</dc:format>
        <dc:type
           rdf:resource="http://purl.org/dc/dcmitype/StillImage" />
        <dc:title />
      </cc:Work>
    </rdf:RDF>
  </metadata>
  <sodipodi:namedview
     pagecolor="#ffffff"
     bordercolor="#666666"
     borderopacity="1"
     objecttolerance="10"
     gridtolerance="10"
     guidetolerance="10"
     inkscape:pageopacity="0"
     inkscape:pageshadow="2"
     inkscape:window-width="2560"
     inkscape:window-height="1300"
     id="namedview1281"
     showgrid="false"
     inkscape:zoom="2.5841236"
     inkscape:cx="217.64308"
     inkscape:cy="16.275018"
     inkscape:window-x="0"
     inkscape:window-y="0"
     inkscape:window-maximized="0"
     inkscape:current-layer="svg4242" />
  <defs
     id="defs1282" />
  <g
     transform="matrix(0.05786179,0,0,0.05786381,-11.318451,-5.4914967)"
     id="Routes">
    <g
       id="routes_x2C__two_stretches_meant_as_one">
      <polyline
         style="fill:none;stroke:#000000"
         points="302.968,491.219 303.11,494.921 306.944,494.488 312.772,493.979     313.566,496.088 321.245,495.508 330.634,494.861 334.463,494.286 340.444,494.057 346.442,494.254 348.009,494.194   "
         id="polyline6" />
      <polyline
         style="fill:none;stroke:#000000"
         points="821.064,496.986 822.719,499.206 823.194,500.471 829.022,499.962     837.699,499.343 843.095,498.708 845.79,498.319 846.376,498.726 847.043,501.267 852.247,499.354 859.708,496.786     865.766,494.842 868.581,493.878   "
         id="polyline8" />
      <polyline
         style="fill:none;stroke:#000000"
         points="654.176,523.528 656.113,527.059 661.514,526.852 667.042,526.361     676.589,525.855 685.153,524.972 691.661,524.722 698.014,524.062 704.234,523.547 708.925,522.95 709.581,525.559     715.827,525.735 718.597,525.629 723.98,525.006 732.816,523.974 739.445,523.303 744.281,522.84 748.004,522.28 751.301,521.46     753.632,520.816   "
         id="polyline10" />
      <polyline
         style="fill:none;stroke:#000000"
         points="628.747,251.083 628.896,254.932 629.531,254.746 633.404,255.24     638.098,256.184 643.736,256.61 648.4,256.752 648.812,259.146 656.092,260.472 663.672,261.305 669.478,261.885   "
         id="polyline12" />
      <polyline
         style="fill:none;stroke:#000000"
         points="564.68,259.969 565.568,262.183 572.934,261.579 582.39,261.055     589.28,260.629 590.495,262.992 602.018,261.907   "
         id="polyline14" />
      <polyline
         style="fill:none;stroke:#000000"
         points="609.26,262.271 620.202,262.814 629.209,263.111 637.553,262.951     647.03,262.909 654.747,263.094 661.489,262.995 666.96,263.267 669.371,263.335   "
         id="polyline16" />
      <polyline
         style="fill:none;stroke:#000000"
         points="692.887,260.825 693.806,263.842 704.761,260.529 713.299,256.99     714.199,259.525 720.658,256.225   "
         id="polyline18" />
      <polyline
         style="fill:none;stroke:#000000"
         points="496.925,268.996 497.757,273.943 503.821,272.907 506.689,272.315     511.79,271.315 520.414,270.021 521.272,271.433 528.322,271.002 534.565,270.441 540.166,269.905 547.877,269.929     549.646,270.022 556.845,269.264 564.051,268.666 569.646,267.969   "
         id="polyline20" />
      <polyline
         style="fill:none;stroke:#000000"
         points="456.835,283.225 463.373,282.01 470.868,280.598 478.536,279.5     486.197,278.242 486.29,276.472 492.335,274.955 496.961,274.134   "
         id="polyline22" />
      <polyline
         style="fill:none;stroke:#000000"
         points="541.425,273.39 533.885,273.679 521.697,274.147 512.882,274.647     504.381,274.973 498.614,275.355 493.31,275.238 491.854,274.973   "
         id="polyline24" />
      <polyline
         style="fill:none;stroke:#000000"
         points="391.226,306.304 393.064,308.161 399.448,307.113 403.285,306.644     409.009,305.139 413.667,305.121 414.9,307.965 422.568,306.867   "
         id="polyline26" />
      <polyline
         style="fill:none;stroke:#000000"
         points="501.117,302.886 507.243,303.454 514.33,303.984 518.679,304.299     526.223,304.17   "
         id="polyline28" />
      <polyline
         style="fill:none;stroke:#000000"
         points="528.981,304.867 529.61,308.698 531.83,307.97 538.56,307.551     544.809,307.15 548.166,306.7   "
         id="polyline30" />
      <polyline
         style="fill:none;stroke:#000000"
         points="350.247,326.671 357.416,325.11 358.76,326.665 364.416,323.396   "
         id="polyline32" />
      <polyline
         style="fill:none;stroke:#000000"
         points="402.187,315.681 403.414,318.364 415.375,316.138 417.515,321.677     419.328,327.069 426.551,326.952   "
         id="polyline34" />
      <polyline
         style="fill:none;stroke:#000000"
         points="767.35,338.595 766.232,342.975 772.407,344.825 778.261,346.688     782.968,347.954 786.706,349.095 786.774,350.858 785.046,356.065 788.606,356.731 794.106,357.806   "
         id="polyline36" />
      <polyline
         style="fill:none;stroke:#000000"
         points="388.794,330.812 390.194,333.81 393.662,332.07 398.133,331.417     400.71,331.639 403.5,333.138 404.881,335.655 405.628,338.356 404.949,341.595 409.748,345.267 412.702,346.919   "
         id="polyline38" />
      <polyline
         style="fill:none;stroke:#000000"
         points="436.648,343.108 437.679,344.835 444.717,344.083 448.862,343.281     452.86,342.806   "
         id="polyline40" />
      <line
         style="fill:none;stroke:#000000"
         x1="452.927"
         y1="340.39401"
         x2="456.87601"
         y2="342.81299"
         id="line42" />
      <polyline
         style="fill:none;stroke:#000000"
         points="458.683,343.868 463.253,345.78 467.195,348.038   "
         id="polyline44" />
      <polyline
         style="fill:none;stroke:#000000"
         points="350.518,350.433 359.153,349.458 365.865,348.558 366.297,351.433     367.389,350.587 369.61,349.859 373.125,349.403 374.705,348.7   "
         id="polyline46" />
      <polyline
         style="fill:none;stroke:#000000"
         points="586.792,346.335 588.29,351.899 600.126,350.641 601.242,354.613     611.162,353.59   "
         id="polyline48" />
      <polyline
         style="fill:none;stroke:#000000"
         points="373.039,359.687 372.989,362.579 379.726,362.32 388.855,361.648     388.954,364.214 391.982,363.616 398.688,362.556 403.634,361.723   "
         id="polyline50" />
      <polyline
         style="fill:none;stroke:#000000"
         points="580.064,388.675 581.341,392.642 585.173,392.013 589.182,391.858     589.953,395.202 599.637,396.437 608.995,397.522   "
         id="polyline52" />
      <polyline
         style="fill:none;stroke:#000000"
         points="666.141,392.436 666.646,397.234 674.159,396.304 678.306,395.501     680.376,395.101 688.841,393.812 689.679,394.744 689.901,396.341 694.96,394.22 701.448,391.722 702.88,391.346   "
         id="polyline54" />
      <polyline
         style="fill:none;stroke:#000000"
         points="508.052,412.322 509.298,415.486 516.034,415.228 522.122,414.833     529.488,414.229 532.998,413.612 534.274,417.578 539.592,418.017 543.602,417.862   "
         id="polyline56" />
      <polyline
         style="fill:none;stroke:#000000"
         points="820.222,303.817 821.771,308.393 831.424,304.932 837.706,303.146     839.031,306.356 840.898,305.77 844.247,303.581 849.245,299.612 853.702,294.978 857.409,288.654   "
         id="polyline58" />
      <line
         style="fill:none;stroke:#000000"
         x1="858.40399"
         y1="301.14801"
         x2="847.93402"
         y2="301.20801"
         id="line60" />
      <polyline
         style="fill:none;stroke:#000000"
         points="354.676,474.535 355.299,476.19 355.465,480.524 358.508,479.567   "
         id="polyline62" />
      <polyline
         style="fill:none;stroke:#000000"
         points="366.917,479.804 369.981,479.407 369.702,483.057 378.083,482.595     388.281,482.063 399.039,481.51 403.378,481.483   "
         id="polyline64" />
      <polyline
         style="fill:none;stroke:#000000"
         points="338.054,379.19 338.403,383.331 345.626,384.564 351.29,384.536     355.816,384.362 355.562,387.581 359.391,388.945 364.737,390.44   "
         id="polyline66" />
      <polyline
         style="fill:none;stroke:#000000"
         points="334.752,421.05 332.497,421.326 328.516,420.913 323.555,419.593     319.007,419.201 315.04,419.164 315.156,417.271 311.776,417.778 305.974,419.135 302.391,419.272 302.274,416.255     298.606,416.637 294,417.2 290.726,417.325 288.415,417.414 288.667,413.933   "
         id="polyline68" />
      <polyline
         style="fill:none;stroke:#000000"
         points="820.462,483.835 821.345,486.038 823.42,485.958 825.801,485.548     831.177,484.062 835.75,482.449 840.812,481.137 844.61,480.191 847.618,479.437 849.482,482.241 853.104,480.824     858.787,479.008 862.726,477.577 867.655,476.909   "
         id="polyline70" />
      <polyline
         style="fill:none;stroke:#000000"
         points="812.465,418.209 816.823,416.338 823.013,413.374 828.188,410.62     831.341,408.454 833.998,411.078 838.179,409.044 843.354,406.29   "
         id="polyline72" />
      <polyline
         style="fill:none;stroke:#000000"
         points="604.508,477.328 604.593,479.563 606.814,479.071 612.881,478.023     618.558,477.399 624.85,476.953 629.721,476.562 637.836,475.844 644.936,475.164 650.62,474.742 655.506,474.758     657.538,474.681 662.595,473.875 668.264,473.047 672.697,471.858 674.314,471.593 674.611,474.024 681.312,473.562     686.996,473.141 689.841,473.031   "
         id="polyline74" />
      <polyline
         style="fill:none;stroke:#000000"
         points="902.251,470.396 909.32,469.224 917.071,467.58 924.794,465.509     925.199,467.34 926.323,469.268 934.112,468.192 943.456,466.874 950.23,465.578 951.482,465.068   "
         id="polyline76" />
      <polyline
         style="fill:none;stroke:#000000"
         points="869.004,493.119 877.19,491.589 885.938,489.881 893.728,488.805   "
         id="polyline78" />
      <polyline
         style="fill:none;stroke:#000000"
         points="1262.737,405.231 1263.292,408.131 1272.038,407.198 1282.589,405.782     1286.562,404.791 1287.374,406.023   "
         id="polyline80" />
      <polyline
         style="fill:none;stroke:#000000"
         points="1288.967,407.938 1296.058,406.93 1301.334,406.222   "
         id="polyline82" />
      <polyline
         style="fill:none;stroke:#000000"
         points="1311.53,405.013 1325.653,402.08 1326.437,394.322   "
         id="polyline84" />
      <polyline
         style="fill:none;stroke:#000000"
         points="991.479,270.846 992.799,274.247 999.372,270.886 1005.761,267.537     1011.613,264.406 1013.198,263.386 1014.52,266.787 1021.286,263.597   "
         id="polyline86" />
      <polyline
         style="fill:none;stroke:#000000"
         points="948.19,302.27 953.844,301.72 962.02,300.458 973.642,298.605     983.073,296.895 992.274,294.465 1003.621,291.162 1012.763,287.818 1017.053,286.073 1018.35,289.108 1026.418,286.202   "
         id="polyline88" />
      <polyline
         style="fill:none;stroke:#000000"
         points="891.212,314.945 899.865,312.551 910.746,310.563 922.37,308.71     923.595,310.649 932.172,309.911 944.962,309.084 960.3,307.909 961.354,310.042 967.613,310.371 976.555,309.609     985.461,308.299 996.684,305.922 1004.629,303.94 1016.341,300.614 1017.991,303.443   "
         id="polyline90" />
      <polyline
         style="fill:none;stroke:#000000"
         points="1019.147,304.286 1029.068,301.626 1040.985,298.653 1051.989,295.74     1064.81,292.526 1072.744,290.361   "
         id="polyline92" />
      <polyline
         style="fill:none;stroke:#000000"
         points="944.102,318.497 944.244,320.69 952.272,319.987 952.768,321.973     960.708,322.744 973.398,323.209 985.847,322.77 993.35,322.469 1003.743,321.43 1011.417,320.933 1018.773,321.191     1028.894,321.638 1040.683,322.344 1048.223,322.59 1056.233,324.457 1061.114,326.16 1062.452,326.99 1062.913,328.43   "
         id="polyline94" />
      <polyline
         style="fill:none;stroke:#000000"
         points="1490.806,283.144 1490.871,286.993 1501.081,285.966 1511.46,284.744     1518.345,283.382   "
         id="polyline96" />
      <polyline
         style="fill:none;stroke:#000000"
         points="1498.223,454.587 1497.741,458.473 1506.752,458.807 1512.258,458.818   "
         id="polyline98" />
      <polyline
         style="fill:none;stroke:#000000"
         points="868.447,475.189 876.264,474.683 880.139,473.921 883.197,473.723     885.724,473.218 889.237,472.138 891.244,471.496   "
         id="polyline100" />
      <polyline
         style="fill:none;stroke:#000000"
         points="945.688,396.727 946.498,397.954 946.979,399.749 949.491,399.039     953.469,398.416 956.89,397.647 960.858,396.842 965.189,396.015 966.081,398.514 970.583,397.492 973.106,396.964   "
         id="polyline102" />
      <polyline
         style="fill:none;stroke:#000000"
         points="1301.321,305.403 1301.656,307.756 1304.567,307.568 1310.425,307.737     1315.736,307.942 1322.32,308.064 1328.722,308.198 1337.72,308.895 1342.315,309.329 1347.104,309.933 1347.122,313.037     1352.24,313.071 1355.354,313.258 1358.495,313.764 1360.885,313.974 1361.818,314.279 1364.23,314.854   "
         id="polyline104" />
      <polyline
         style="fill:none;stroke:#000000"
         points="1574.232,457.285 1585.172,456.406 1589.406,455.986 1598.222,454.788     1605.978,453.606 1607.054,454.649 1607.435,456.41 1614.487,455.415 1626.659,454.164 1635.127,453.325 1641.822,452.159     1646.053,451.563   "
         id="polyline106" />
      <polyline
         style="fill:none;stroke:#000000"
         points="2203.95,449.81 2206.161,452.945 2212.877,449.382 2219.021,446.116     2219.215,449.282 2224.809,447.609 2229.567,447.967 2233.172,448.198 2240.372,447.797 2245.269,447.721   "
         id="polyline108" />
      <polyline
         style="fill:none;stroke:#000000"
         points="1561.105,484.545 1561.148,487.316 1568.221,486.59 1576.676,485.687     1580.981,485.312 1581.023,487.929 1582.404,487.599 1592.874,487.435 1605.648,487.079 1614.419,486.634 1622.573,486.197     1633.031,485.264 1644.568,484.466 1651.024,483.748 1659.792,483.149 1667.173,482.417   "
         id="polyline110" />
      <polyline
         style="fill:none;stroke:#000000"
         points="1821.639,492.311 1821.985,494.77 1829.673,494.032 1838.127,492.976     1846.277,492.231 1853.356,491.967 1860.437,491.701 1860.313,493.704 1865.562,494.547 1871.39,493.068 1876.31,492.529     1882.934,492.732 1890.945,492.915 1895.876,493.146 1901.104,492.602   "
         id="polyline112" />
      <polyline
         style="fill:none;stroke:#000000"
         points="1623.864,220.549 1625.305,224.657 1637.62,219.875 1638.578,222.459     1649.414,220.913   "
         id="polyline114" />
      <polyline
         style="fill:none;stroke:#000000"
         points="1567.058,246.068 1567.401,248.511 1573.654,247.342 1578.388,246.809   "
         id="polyline116" />
      <polyline
         style="fill:none;stroke:#000000"
         points="1586.185,246.533 1594.576,245.177 1594.914,247.16 1603.305,245.805     1612.154,244.442 1616.118,243.615   "
         id="polyline118" />
      <polyline
         style="fill:none;stroke:#000000"
         points="1837.089,375.061 1837.14,378.239 1847.158,374.902 1857.884,371.553     1857.216,374.037 1862.137,372.369 1868.647,370.677 1873.409,370.072 1876.95,370.546 1878.73,371.401 1879.81,372.621     1879.834,374.212 1885.492,374.476 1890.62,374.75   "
         id="polyline120" />
      <polyline
         style="fill:none;stroke:#000000"
         points="1817.25,281.903 1817.626,283.311 1817.844,285.957 1826.491,285.291     1830.551,285.051 1830.749,286.285 1829.897,288.418 1837.83,287.233 1841.354,286.648   "
         id="polyline122" />
      <polyline
         style="fill:none;stroke:#000000"
         points="1844.357,286.602 1855.287,285.016 1868.688,283.215 1880.147,281.622     1894.604,279.628 1905.717,278.393 1914.529,277.018   "
         id="polyline124" />
      <polyline
         style="fill:none;stroke:#000000"
         points="1519.552,283.223 1522.331,291.483 1528.017,293.514 1536.179,295.683     1541.504,297.189 1545.939,298.357   "
         id="polyline126" />
      <polyline
         style="fill:none;stroke:#000000"
         points="1529.02,460.203 1532.053,460.912 1534.153,459.15 1536.419,457.172     1540.449,454.988 1546.073,453.133 1551.354,451.813 1557.874,450.65 1564.044,449.847 1571.805,449.019 1579.572,448.543     1582.754,448.67 1585.92,447.736 1594.222,447.605 1601.101,446.791 1609.569,445.951 1612.386,445.377 1614.349,446.583     1621.414,446.473 1629.004,446 1639.424,445.659 1647.732,445.882 1653.911,445.608 1658.327,445.539 1664.696,445.968     1670.172,445.882 1683.072,446.034 1695.089,446.198 1701.981,446.268 1707.984,445.995 1717.167,445.674 1723.515,444.868     1729.33,443.894 1732.502,443.312   "
         id="polyline128" />
      <polyline
         style="fill:none;stroke:#000000"
         points="2101.374,484.872 2102.138,488.57 2106.364,487.62 2111.298,486.835     2116.236,486.229 2122.049,485.076 2126.805,484.119 2129.626,483.721 2130.401,488.126 2133.211,487.021 2137.423,485.188     2141.628,483.002   "
         id="polyline130" />
      <polyline
         style="fill:none;stroke:#000000"
         points="1847.465,400.397 1847.729,403.406 1849.877,403.158 1855.681,402.636     1861.062,402.552 1867.307,402.668 1871.614,402.816 1874.634,403.199 1878.085,403.576 1879.121,400.977 1881.02,398.578     1884.013,397.24 1887.458,397.186 1890.049,397.79 1892.434,398.829 1894.825,400.299 1895.929,402.004   "
         id="polyline132" />
      <polyline
         style="fill:none;stroke:#000000"
         points="1569.469,476.272 1570.154,477.33 1570.302,478.262 1573.365,477.812     1578.032,477.34 1583.633,476.984 1587.903,476.783 1589.896,476.218 1592.424,475.645 1594.153,475.217 1595.881,474.789     1597.596,473.428 1599.045,472.203 1600.234,471.383 1603.946,469.724 1606.336,468.884 1608.998,468.308 1611.666,468.133     1614.462,467.688 1616.194,467.527 1618.071,467.898 1619.81,468.138 1620.391,471.199 1623.994,471.01 1628.928,470.665     1634.134,470.583 1635.87,470.556 1636.27,470.55   "
         id="polyline134" />
      <polyline
         style="fill:none;stroke:#000000"
         points="2324.901,440.208 2327.079,439.118 2332.521,438.304 2335.106,437.759     2336.602,437.214 2343.405,436.397 2351.296,435.446 2356.603,435.173 2360.141,434.63 2363.133,433.948 2363.406,435.989     2372.114,435.446 2380.413,435.173 2390.345,434.63 2399.053,433.813 2407.625,432.724 2415.244,431.907 2419.87,430.956   "
         id="polyline136" />
      <polyline
         style="fill:none;stroke:#000000"
         points="2247.35,447.69 2256.331,447.69 2264.358,447.556   "
         id="polyline138" />
      <polyline
         style="fill:none;stroke:#000000"
         points="2293.745,449.46 2293.745,451.909 2302.454,451.909 2313.202,452.044     2320.276,452.044 2320.821,454.901 2330.073,453.134 2342.318,450.956 2350.345,449.595   "
         id="polyline140" />
      <polyline
         style="fill:none;stroke:#000000"
         points="2294.969,464.153 2295.65,466.739 2298.917,466.603 2303.133,465.923     2305.719,465.651 2305.991,468.507 2308.032,468.507 2315.787,466.874 2323.27,464.698 2331.297,462.521 2339.325,460.616     2346.265,459.663 2354.154,458.712 2358.646,458.304 2367.081,458.03 2375.517,457.896 2377.694,457.896 2382.319,457.351     2389.53,456.263 2392.796,455.718 2393.337,457.079 2398.78,455.31 2407.351,453.269 2414.29,451.636 2417.964,450.956     2418.645,452.997 2425.447,452.317 2432.251,451.636 2437.692,451.364 2443.135,450.956   "
         id="polyline142" />
      <polyline
         style="fill:none;stroke:#000000"
         points="2872.655,346.059 2879.05,337.079 2882.18,336.534 2881.771,334.222     2890.615,334.63 2899.73,335.038   "
         id="polyline144" />
      <polyline
         style="fill:none;stroke:#000000"
         points="2337.772,367.737 2352.272,368.069 2364.772,368.237 2365.272,370.403     2380.272,367.737 2387.938,366.403 2395.938,364.403   "
         id="polyline146" />
      <polyline
         style="fill:none;stroke:#000000"
         points="2761.271,364.569 2762.271,367.403 2774.105,364.737 2784.605,362.903     2785.771,365.069 2792.771,363.237 2802.605,360.403 2809.105,358.569 2813.271,356.903 2816.271,354.069   "
         id="polyline148" />
      <polyline
         style="fill:none;stroke:#000000"
         points="2293.485,212.936 2292.823,215.92 2293.485,216.916 2298.626,217.413     2301.776,217.91 2307.58,218.242 2308.575,216.916 2311.726,216.75 2317.694,217.91 2323.167,218.905   "
         id="polyline150" />
      <polyline
         style="fill:none;stroke:#000000"
         points="2654.126,331.673 2654.685,333.163 2664.189,330.554 2671.645,328.317     2677.049,325.895 2678.354,324.776 2677.235,323.473 2681.149,321.608 2687.858,319.931 2695.127,318.067 2699.041,318.067     2702.582,317.881 2706.495,317.135   "
         id="polyline152" />
      <polyline
         style="fill:none;stroke:#000000"
         points="2482.293,343.228 2482.667,347.514 2490.866,348.073 2499.067,348.632     2499.812,353.663 2500.93,360.56   "
         id="polyline154" />
      <polyline
         style="fill:none;stroke:#000000"
         points="2344.31,260.287 2343.991,263.476 2347.021,264.433 2350.849,264.273     2354.517,264.593 2356.429,265.071 2362.171,265.39 2366.954,265.39 2373.013,265.23 2377.637,265.23 2380.668,264.114     2380.827,268.739 2383.379,268.898 2387.045,269.855 2391.032,270.333 2395.499,271.29   "
         id="polyline156" />
      <polyline
         style="fill:none;stroke:#000000"
         points="2707.271,483.737 2707.938,485.403 2709.899,485.71 2715.358,485.509     2731.937,484.296 2760.644,482.274 2778.637,481.464 2791.777,481.464 2804.109,481.06 2816.038,481.06 2840.298,480.05     2844.744,480.858 2857.886,480.655 2880.529,481.464 2881.188,483.319 2899.938,482.319 2905.688,481.819   "
         id="polyline158" />
      <polyline
         style="fill:none;stroke:#000000"
         points="3019.641,469.238 3019.641,472.049 3024.483,471.424 3034.013,470.643     3042.137,469.863 3048.854,469.863 3049.791,472.83 3056.353,472.518 3064.633,472.674 3068.536,472.361   "
         id="polyline160" />
      <path
         inkscape:connector-curvature="0"
         style="fill:none;stroke:#000000"
         d="m 3148.242,489.695 7.479,-0.146 7.478,-0.293 10.411,-0.146 7.771,-0.148 4.252,-0.146 -1.467,2.641 4.985,0.146 c 0,0 9.754,0.142 10.106,0.146 5.876,0.085 11.742,0.127 17.617,0.127"
         id="path162" />
      <polyline
         style="fill:none;stroke:#000000"
         points="3256.014,490.135 3252.2,490.721 3248.096,490.135 3238.712,489.109     3231.381,488.961 3224.634,488.375 3218.036,488.229 3210.119,488.082 3204.253,488.668 3196.482,489.549 3190.911,490.428     3187.979,491.162 3186.072,491.602   "
         id="polyline164" />
      <polyline
         style="fill:none;stroke:#000000"
         points="3021.097,444.572 3028.709,444.434 3028.293,445.816 3027.049,447.893     3033.277,448.031   "
         id="polyline166" />
      <polyline
         style="fill:none;stroke:#000000"
         points="3398.682,453.332 3397.655,455.678 3397.362,457.145 3403.96,457.145     3410.559,457.438 3415.104,457.438 3413.491,459.49 3418.916,459.637 3422.875,459.49   "
         id="polyline168" />
      <polyline
         style="fill:none;stroke:#000000"
         points="3432.26,464.035 3431.233,467.262 3439.151,469.9 3447.509,472.539     3454.693,474.885 3454.253,476.352 3459.093,477.672 3461.731,478.697   "
         id="polyline170" />
      <polyline
         style="fill:none;stroke:#000000"
         points="3372.354,294.462 3372.354,296.295 3383.689,295.128 3383.689,297.462     3397.354,297.128 3404.689,296.295 3409.354,296.295   "
         id="polyline172" />
      <polyline
         style="fill:none;stroke:#000000"
         points="3023.355,324.629 3023.856,326.795 3026.689,326.129 3029.689,326.629     3033.856,324.795 3036.023,325.129 3036.689,327.129 3042.355,326.629 3042.856,330.295 3049.856,329.629   "
         id="polyline174" />
      <polyline
         style="fill:none;stroke:#000000"
         points="3179.689,346.629 3179.856,350.295 3188.023,349.961 3195.523,349.795     3195.689,352.461 3201.689,352.129 3207.023,352.129 3209.023,352.295 3210.856,352.461   "
         id="polyline176" />
      <polyline
         style="fill:none;stroke:#000000"
         points="3185.189,319.295 3185.023,321.295 3193.523,321.795 3203.689,324.295   "
         id="polyline178" />
      <polyline
         style="fill:none;stroke:#000000"
         points="3011.475,385.971 3016.506,385.598 3016.319,387.463 3023.217,387.275     3031.416,388.395 3036.634,388.766 3040.176,388.953 3046.699,390.443 3050.984,390.816   "
         id="polyline180" />
      <polyline
         style="fill:none;stroke:#000000"
         points="3181.023,398.961 3182.523,401.795 3189.357,399.295 3198.689,395.961     3210.189,391.961 3211.023,395.127 3215.523,394.795 3221.689,394.461   "
         id="polyline182" />
      <polyline
         style="fill:none;stroke:#000000"
         points="3268.689,390.461 3269.189,392.295 3276.023,390.461 3286.689,387.961     3287.354,390.627 3292.354,389.961 3299.023,389.961 3305.023,389.295 3308.023,388.127   "
         id="polyline184" />
      <polyline
         style="fill:none;stroke:#000000"
         points="3327.69,393.627 3326.69,395.295 3332.856,397.795 3336.523,399.127     3337.19,401.461 3339.023,405.295 3341.19,407.627 3342.523,408.627   "
         id="polyline186" />
      <polyline
         style="fill:none;stroke:#000000"
         points="3248.023,416.961 3250.354,412.127 3253.856,407.295 3256.189,404.795     3254.354,403.627 3259.189,401.961 3264.856,399.461 3266.689,398.795 3267.189,400.627 3270.856,399.795 3276.856,399.961   "
         id="polyline188" />
      <polyline
         style="fill:none;stroke:#000000"
         points="3336.448,209.529 3336,212.218 3341.229,211.77 3347.949,210.575     3354.819,209.529 3356.314,209.081 3362.737,209.081 3363.036,212.218 3369.31,211.77 3377.973,211.321 3384.992,210.724     3386.784,210.575   "
         id="polyline190" />
      <polyline
         style="fill:none;stroke:#000000"
         points="3499.417,213.861 3498.521,216.25 3507.333,215.803 3521.075,215.056     3530.634,214.607 3533.473,214.16 3532.576,216.25 3536.759,215.653 3541.986,215.504 3547.213,215.504 3549.604,215.653     3551.247,216.25   "
         id="polyline192" />
      <polyline
         style="fill:none;stroke:#000000"
         points="3271.172,221.18 3271.022,223.42 3274.607,222.823 3282.523,222.076     3287.752,221.628 3291.784,221.479 3295.668,221.479 3294.175,223.122 3297.76,223.122 3304.182,223.271 3311.501,223.57     3317.476,224.167 3324.197,225.213 3328.828,225.81 3337.79,227.603 3343.315,228.797 3349.739,229.993 3352.278,230.44     3352.876,230.889   "
         id="polyline194" />
      <polyline
         style="fill:none;stroke:#000000"
         points="3067.43,255.405 3067.596,258.08 3070.438,258.247 3076.791,257.745     3082.643,256.575 3087.156,255.739 3087.658,257.077 3093.844,256.241 3096.854,255.572   "
         id="polyline196" />
      <polyline
         style="fill:none;stroke:#000000"
         points="2906.447,481.693 2925.301,481.025 2947.824,478.689 3026.406,478.021   "
         id="polyline198" />
      <polyline
         style="fill:none;stroke:#000000"
         points="3611.209,359.746 3611.575,361.865 3621.015,360.408 3621.569,363.107     3633.516,360.902   "
         id="polyline200" />
      <polyline
         style="fill:none;stroke:#000000"
         points="3733.97,375.965 3736.693,378.736 3748.92,367.203 3750.525,368.512     3764.493,361.195 3775.859,355.637   "
         id="polyline202" />
      <polyline
         style="fill:none;stroke:#000000"
         points="3554.09,216.264 3560.1,216.624 3563.487,217.117 3566.25,218.683   "
         id="polyline204" />
      <polyline
         style="fill:none;stroke:#000000"
         points="3677.606,385.895 3677.765,388.627 3685.963,388.334 3692.519,388.209     3692.5,390.395 3694.323,390.229 3698.503,391.176 3702.328,391.027 3705.967,391.422 3709.784,392.184   "
         id="polyline206" />
      <polyline
         style="fill:none;stroke:#000000"
         points="3596.396,341.493 3600.085,341.137 3606.098,341.383 3609.59,341.414     3612.333,338.334 3614.494,335.249 3616.651,332.552 3618.609,330.435 3619.197,329.857   "
         id="polyline208" />
      <polyline
         style="fill:none;stroke:#000000"
         points="3920.625,243.939 3920.614,245.112 3928.145,246.519 3928.455,249.37     3934.483,249.926   "
         id="polyline210" />
      <polyline
         style="fill:none;stroke:#000000"
         points="3912.584,262.639 3913.238,264.488 3925.3,265.098 3925.611,267.781     3942.027,268.762   "
         id="polyline212" />
      <polyline
         style="fill:none;stroke:#000000"
         points="3945.183,406.383 3960.479,401.32 3971.744,397.061 3985.024,392.484     4011.265,381.484 4036.669,370.309 4055.673,362.766 4056.498,363.947 4064.559,362.006 4075.149,358.41 4086.757,353.484     4099.532,349.072 4113.313,344.666 4124.93,338.566   "
         id="polyline214" />
      <polyline
         style="fill:none;stroke:#000000"
         points="3854.398,322.533 3854.367,326.09 3866.959,328.139 3867.543,335.258     3876.265,336.305   "
         id="polyline216" />
      <polyline
         style="fill:none;stroke:#000000"
         points="3884.266,345.752 3883.893,351.568 3890.018,353.561 3890.938,359.066     3896.742,361.057 3897.005,368.172 3902.816,369.193 3903.411,375.02 3909.22,376.363 3910.16,379.605 3916.979,376.43     3921.143,380.994 3912.678,387.709 3919.437,391.326 3919.414,393.912 3927.493,394.307 3929.074,398.523 3932.591,403.082     3937.103,404.736   "
         id="polyline218" />
      <polyline
         style="fill:none;stroke:#000000"
         points="4011.475,396.299 4011.463,397.609 4037.614,387.432 4037.868,388.307     4059.634,379.838   "
         id="polyline220" />
      <polyline
         style="fill:none;stroke:#000000"
         points="4163.523,330.97 4163.51,332.425 4179.262,333.775 4179.249,335.23     4194.986,338.277   "
         id="polyline222" />
      <polyline
         style="fill:none;stroke:#000000"
         points="4209.292,462.501 4208.793,464.153 4213.034,464.113 4219.106,463.516     4225.023,463.064 4224.956,465.638 4231.013,465.645   "
         id="polyline224" />
      <polyline
         style="fill:none;stroke:#000000"
         points="4590.169,441.737 4590.55,444.473 4598.782,442.266 4606.857,440.357     4614.629,438.441 4623.62,436.255 4623.409,438.52 4631.922,437.229 4639.821,436.224   "
         id="polyline226" />
      <polyline
         style="fill:none;stroke:#000000"
         points="4206.638,414.505 4212.202,413.956 4216.045,412.844 4216.337,414.932     4221.877,415.25 4228.106,415.761 4230.532,415.824   "
         id="polyline228" />
      <polyline
         style="fill:none;stroke:#000000"
         points="4300.915,250.863 4301.027,253.119 4306.601,252.225 4311.644,251.664     4316.532,250.404 4316.828,252.32 4321.384,250.531 4326.111,248.748 4331.556,246.116 4334.019,244.794   "
         id="polyline230" />
      <polyline
         style="fill:none;stroke:#000000"
         points="4241.562,233.01 4241.858,234.924 4246.892,234.71 4252.296,233.637     4257.521,232.733 4264.821,232.058 4268.292,231.975 4268.05,234.57 4276.892,234.628 4284.155,235.338 4290.744,235.338     4299.239,235.387 4301.665,235.45 4303.58,235.154   "
         id="polyline232" />
      <polyline
         style="fill:none;stroke:#000000"
         points="4415.294,246.575 4415.562,249.53 4417.481,249.061 4424.942,248.908     4434.991,249.172 4439.15,249.281 4439.063,252.572 4445.809,253.27 4448.923,253.525 4449.61,253.716 4454.462,253.843   "
         id="polyline234" />
      <polyline
         style="fill:none;stroke:#000000"
         points="4437.079,348.234 4436.819,351.521 4445.897,349.158 4455.132,347.492     4461.579,346.274 4461.488,349.74 4464.634,348.781 4471.063,348.256 4480.447,347.461 4488.614,346.809 4496.265,345.969     4502.694,345.443 4510.173,344.6 4516.446,343.376   "
         id="polyline236" />
      <polyline
         style="fill:none;stroke:#000000"
         points="4602.802,356.388 4603.091,358.649 4612.406,360.454 4621.913,361.57     4631.954,362.18 4631.904,364.086 4637.969,364.244 4647.144,364.831 4656.5,365.076 4667.248,365.185 4678.67,366.004     4685.605,366.012   "
         id="polyline238" />
      <polyline
         style="fill:none;stroke:#000000"
         points="4628.766,453.646 4629.147,450.628 4629.568,446.097 4629.986,441.718     4630.392,437.791   "
         id="polyline240" />
      <polyline
         style="fill:none;stroke:#000000"
         points="4324.919,483.438 4327.886,483.202 4330.545,482.804 4328.879,486.97     4331.846,486.735 4335.753,486.37 4339.031,486.145   "
         id="polyline242" />
      <polyline
         style="fill:none;stroke:#000000"
         points="5116.635,479.385 5116.915,481.629 5126.544,480.197 5131.514,479.484     5134.555,479.378 5138.136,475.919 5139.385,477.701 5145.879,472.374 5149.119,470.031   "
         id="polyline244" />
      <polyline
         style="fill:none;stroke:#000000"
         points="5174.604,458.314 5175.221,459.606 5175.979,462.02 5182.77,457.977     5188.753,454.402 5192.631,452.229 5193.071,454.478 5196.629,452.299   "
         id="polyline246" />
      <polyline
         style="fill:none;stroke:#000000"
         points="5278.128,504.125 5283.406,504.217 5287.469,500.606 5290.494,501.459     5292.467,498.454 5295.836,498.033 5301.927,497.34   "
         id="polyline248" />
      <polyline
         style="fill:none;stroke:#000000"
         points="5306.902,496.467 5307.544,496.478 5312.927,490.49   "
         id="polyline250" />
      <polyline
         style="fill:none;stroke:#000000"
         points="5319.69,488.049 5323.205,488.271 5325.863,482.717 5325.871,482.235     5330.218,480.871 5333.759,479.653 5333.941,478.376   "
         id="polyline252" />
      <polyline
         style="fill:none;stroke:#000000"
         points="5429.929,443.409 5429.901,445.009 5437.739,445.146 5447.326,445.952     5452.771,445.729 5455.019,445.287 5454.985,447.206 5461.068,446.992 5469.229,446.976 5472.428,447.031 5472.231,449.108     5476.073,449.016 5479.898,449.882 5488.843,450.838 5488.795,453.558 5496.313,453.688 5502.544,454.276 5507.81,455.009     5508.247,457.575   "
         id="polyline254" />
      <polyline
         style="fill:none;stroke:#000000"
         points="5441.411,509.854 5441.863,511.462 5447.321,510.437 5451.16,510.504     5451.993,508.6 5455.998,508.348 5459.695,507.452 5461.622,507.006   "
         id="polyline256" />
      <polyline
         style="fill:none;stroke:#000000"
         points="5334.312,475.502 5334.659,473.908 5344.782,471.525 5345.669,466.58   "
         id="polyline258" />
      <polyline
         style="fill:none;stroke:#000000"
         points="5356.806,461.014 5361.629,459.979 5365.544,455.727 5361.629,459.979     5356.165,461.324   "
         id="polyline260" />
      <polyline
         style="fill:none;stroke:#000000"
         points="5495.925,506.941 5496.535,510.292 5504.76,507.764   "
         id="polyline262" />
      <polyline
         style="fill:none;stroke:#000000"
         points="4909.977,422.223 4919.032,424.818 4930.035,427.611 4940.227,430.389     4943.311,430.605 4945.901,431.138 4944.9,432.583 4949.434,433.637 4957.041,435.396 4962.545,436.629 4968.699,437.874   "
         id="polyline264" />
      <polyline
         style="fill:none;stroke:#000000"
         points="5184.211,363.138 5189.237,363.875 5196.066,363.669 5200.616,363.749     5200.105,365.039 5200.414,366.021 5203.672,365.589 5209.361,365.526 5216.514,365.489 5223.178,365.442 5227.898,365.037     5230.019,364.587 5236.684,364.54 5241.072,364.454 5244.49,364.188 5248.238,363.604 5248.531,365.397 5251.468,364.798     5254.894,364.046 5261.091,362.854 5268.75,361.687 5274.287,360.971 5283.409,359.83 5283.859,361.95 5286.616,362.323     5290.521,362.067 5293.942,361.64 5300.278,361.75 5307.914,361.884 5310.198,361.435 5313.29,361.165   "
         id="polyline266" />
      <polyline
         style="fill:none;stroke:#000000"
         points="5479.073,379.335 5479.202,381.288 5483.097,381.681 5490.399,382.296     5498.686,382.44 5505.188,382.392 5508.776,381.642   "
         id="polyline268" />
      <polyline
         style="fill:none;stroke:#000000"
         points="5467.269,394.569 5466.604,395.37 5466.912,396.351 5476.336,396.678     5482.986,397.281 5486.07,397.498 5496.923,399.639 5503.567,400.729 5507.617,401.449 5508.951,399.521   "
         id="polyline270" />
      <polyline
         style="fill:none;stroke:#000000"
         points="5314.938,415.802 5323.594,413.352 5332.086,411.062 5339.265,409.399     5345.142,407.877 5344.93,410.799 5350.294,410.893 5359.218,411.535 5365.21,412.941 5371.997,415.01 5377.324,417.054     5380.862,419.227 5382.633,420.233   "
         id="polyline272" />
      <polyline
         style="fill:none;stroke:#000000"
         points="5194.455,428.001 5198.238,425.467 5203.5,421.982 5208.759,418.661     5210.072,417.872 5211.988,419.856 5217.221,417.997 5223.932,415.351 5230.807,412.546 5236.21,410.364 5242.094,408.354     5244.055,407.738 5248.137,406.671 5252.05,405.928   "
         id="polyline274" />
      <polyline
         style="fill:none;stroke:#000000"
         points="5195.266,428.177 5198.515,428.233 5202.426,427.653 5205.369,426.565     5205.508,428.031 5209.762,426.318   "
         id="polyline276" />
      <polyline
         style="fill:none;stroke:#000000"
         points="5216.298,424.318 5220.559,422.28 5226.277,420.593   "
         id="polyline278" />
      <polyline
         style="fill:none;stroke:#000000"
         points="5143.263,409.229 5144.024,412.168 5146.795,411.729 5150.053,411.298     5154.938,410.734 5161.617,409.876 5165.197,409.612 5170.08,409.21 5175.129,408.648 5180.997,407.613 5183.611,406.846   "
         id="polyline280" />
      <polyline
         style="fill:none;stroke:#000000"
         points="5186.547,406.247 5189.307,406.458 5189.106,408.566 5192.367,407.975     5198.721,407.109 5205.402,406.089 5209.473,405.672 5212.4,405.561 5214.516,405.435 5217.133,404.506 5222.656,404.603     5233.217,404.787 5240.371,404.585 5245.728,405.005 5249.462,405.232 5251.896,405.437   "
         id="polyline282" />
      <polyline
         style="fill:none;stroke:#000000"
         points="5348.796,502.246 5355.199,501.151 5354.474,503.209 5358.619,502.937     5364.323,502.346 5368.991,501.737   "
         id="polyline284" />
      <polyline
         style="fill:none;stroke:#000000"
         points="5498.726,342.024 5498.677,344.801 5500.312,344.665   "
         id="polyline286" />
      <line
         style="fill:none;stroke:#000000"
         x1="5507.6519"
         y1="345.12"
         x2="5509.6128"
         y2="344.991"
         id="line288" />
      <polyline
         style="fill:none;stroke:#000000"
         points="5122.352,425.673 5123.58,426.865 5136.49,420.998 5137.547,423.127     5146.93,422.431   "
         id="polyline290" />
      <polyline
         style="fill:none;stroke:#000000"
         points="5302.492,449.063 5302.296,451.011 5303.434,451.031   "
         id="polyline292" />
      <line
         style="fill:none;stroke:#000000"
         x1="5308.1372"
         y1="451.60101"
         x2="5323.5859"
         y2="451.22"
         id="line294" />
      <polyline
         style="fill:none;stroke:#000000"
         points="5327.643,451.453 5335.769,451.433 5335.746,452.731 5342.253,452.521   "
         id="polyline296" />
      <polyline
         style="fill:none;stroke:#000000"
         points="5481.495,315.75 5481.798,317.63 5499.028,313.03 5499.899,315.447     5503.272,314.882 5507.662,313.806   "
         id="polyline298" />
      <polyline
         style="fill:none;stroke:#000000"
         points="5499.253,368.636 5499.931,371.573 5509.437,371.739   "
         id="polyline300" />
      <polyline
         style="fill:none;stroke:#000000"
         points="5570.087,516.073 5570.946,520.612 5576.036,520.644 5582.604,520.001     5588.722,519.777 5591.929,519.599 5592.413,522.38 5597.378,521.825 5604.419,520.18 5607.322,520.281 5609.802,520.077     5614.942,518.657 5620.649,517.693 5625.313,517.419   "
         id="polyline302" />
      <polyline
         style="fill:none;stroke:#000000"
         points="5757.849,504.302 5757.913,506.631 5765.307,507.325 5768.644,507.587     5772.83,508.462 5779.067,508.971 5783.421,509.269 5786.616,509.38 5790.524,509.952 5790.548,513.444 5792.952,515.419     5796.062,518 5801.024,521.664 5804.866,524.126 5807.847,526.267   "
         id="polyline304" />
      <polyline
         style="fill:none;stroke:#000000"
         points="5744.606,471.111 5751.851,471.946 5755.633,471.933 5755.987,474.272     5759.294,475.406 5764.539,475.153 5769.639,474.896   "
         id="polyline306" />
      <polyline
         style="fill:none;stroke:#000000"
         points="5744.039,474.874 5745.235,478.115 5755.354,479.924 5762.011,480.884     5764.336,480.965 5767.346,482.233 5767.25,484.994 5771.628,484.71 5776.843,485.184 5783.802,485.863 5788.575,486.611     5792.187,487.318 5798.669,489.146 5801.243,490.399 5802.952,491.478 5802.865,493.947 5804.75,494.157   "
         id="polyline308" />
      <polyline
         style="fill:none;stroke:#000000"
         points="5830.735,483.138 5830.519,485.167 5837.097,484.232 5843.239,483.283     5846.731,483.261 5847.552,484.743 5850.778,483.983 5854.142,483.52 5860.528,483.887 5860.772,485.205 5864.425,484.75     5868.948,484.327 5874.479,484.229 5874.434,485.536 5878.964,484.968 5884.805,484.299 5888.591,484.14 5892.095,483.825   "
         id="polyline310" />
      <polyline
         style="fill:none;stroke:#000000"
         points="5930.563,502.915 5936.059,503.834 5943.448,504.674 5949.358,506.189     5954.257,507.524 5954.532,507.971 5954.767,509.578 5958.113,509.55 5961.346,508.646 5966.746,508.105   "
         id="polyline312" />
      <polyline
         style="fill:none;stroke:#000000"
         points="5506.604,507.844 5508.979,506.529 5514.776,505.024 5520.552,504.14     5521.063,507.263 5526.122,504.645 5529.36,500.876 5532.601,496.952 5535.19,493.938   "
         id="polyline314" />
      <polyline
         style="fill:none;stroke:#000000"
         points="5511.397,382.465 5521.128,381.613 5530.854,380.592 5536.321,379.933     5535.57,381.947 5537.439,382.013 5541.037,381.287 5546.321,380.963 5556.017,380.961 5558.919,380.722 5567.073,381.006   "
         id="polyline316" />
      <polyline
         style="fill:none;stroke:#000000"
         points="5510.604,400.297 5515.028,400.282 5523.23,399.207 5533.606,399.23     5540.414,399.127 5547.222,399.024 5554.866,399.291 5560.294,399.822 5564.527,400.31 5566.214,400.709 5567.866,402.128   "
         id="polyline318" />
      <polyline
         style="fill:none;stroke:#000000"
         points="5511.854,345.057 5514.93,344.654 5522.235,344.909 5529.364,345.328     5533.103,345.459 5532.885,346.812 5532.638,349.016 5537.372,349.861 5544.653,350.795 5551.431,351.543 5559.574,352.167     5566.347,353.084 5569.404,353.191   "
         id="polyline320" />
      <polyline
         style="fill:none;stroke:#000000"
         points="5645.109,299.36 5645.858,302.278 5652.144,302.498 5659.294,302.407     5667.593,303.377 5670.985,303.666 5671.218,306.736 5676.321,306.744 5685.507,306.725 5691.277,307.096 5694.857,306.881   "
         id="polyline322" />
      <polyline
         style="fill:none;stroke:#000000"
         points="6059.902,316.566 6060.5,318.969 6065.284,318.285 6070.419,317.444     6081.631,317.836 6091.303,318.514 6096.2,319.535 6103.628,321.155 6107.693,321.638 6111.586,322.284 6119.187,323.74     6126.287,325.009 6126.028,327.551 6131.618,328.257 6139.555,329.895 6145.267,331.965 6150.151,333.327 6153.842,334.816     6159.699,337.572 6161.86,339.009   "
         id="polyline324" />
      <polyline
         style="fill:none;stroke:#000000"
         points="5525.522,314.066 5525.381,318.144 5528.316,316.885 5531.586,315.809     5535.171,315.424 5536.878,315.312 5538.446,314.177 5538.739,315.548 5541.487,314.793 5546.995,312.944 5552.157,311.254     5555.433,310.007   "
         id="polyline326" />
      <polyline
         style="fill:none;stroke:#000000"
         points="5595.743,329.615 5596.352,331.678 5605.169,332.496 5612.802,333.104     5619.433,333.165 5626.587,332.904 5627.172,335.646 5632.62,335.496 5639.258,335.388 5644.19,335.391 5648.269,335.533     5653.185,336.045   "
         id="polyline328" />
      <polyline
         style="fill:none;stroke:#000000"
         points="5918.07,359.413 5918.361,360.783 5922.353,358.542 5927.702,356.348     5933.044,354.492 5938.536,352.983 5943.171,351.784 5944.21,351.311 5947.946,351.441 5949.192,354.717 5953.452,354.525     5959.204,355.406 5964.096,356.598 5970.656,358.697 5974.692,360.029 5977.393,360.635 5979.227,361.719   "
         id="polyline330" />
      <polyline
         style="fill:none;stroke:#000000"
         points="5728.943,397.546 5728.901,398.734 5736.712,399.178 5744.181,399.609     5748.089,399.746 5748.927,400.115 5749.353,402.511 5756.836,402.603 5761.094,402.41 5764.825,402.712   "
         id="polyline332" />
      <polyline
         style="fill:none;stroke:#000000"
         points="5885.306,406.237 5893.965,406.71 5894.421,408.257 5905.797,408.825     5906.406,410.887 5911.673,411.071 5915.744,411.383 5915.551,412.058 5919.107,412.521 5923.003,412.998   "
         id="polyline334" />
      <polyline
         style="fill:none;stroke:#000000"
         points="5578.468,420.018 5580.009,419.731 5582.187,420.658 5584.378,421.245   "
         id="polyline336" />
      <polyline
         style="fill:none;stroke:#000000"
         points="5591.654,422.35 5599.118,422.95 5599.336,421.598 5601.86,422.365     5607.946,423.429 5613.882,423.977 5616.945,423.913 5617.977,423.609 5617.326,422.736 5620.899,422.69 5626.519,422.547   "
         id="polyline338" />
      <polyline
         style="fill:none;stroke:#000000"
         points="5673.11,437.611 5673.028,439.99 5677.234,441.327 5685.378,441.953     5690.966,442.658 5691.034,445.552 5697.831,445.789 5701.398,445.914 5702.266,445.435 5705.154,445.535   "
         id="polyline340" />
      <polyline
         style="fill:none;stroke:#000000"
         points="5919.18,259.431 5919.964,261.33 5925.753,261.191 5932.062,260.731     5940.773,259.675 5948.272,259.256 5957.478,258.728 5957.236,260.761 5960.46,261.042 5968.754,262.183 5974.676,263.07   "
         id="polyline342" />
      <polyline
         style="fill:none;stroke:#000000"
         points="5768.759,450.817 5771.741,448.2 5774.367,446.081 5777.297,444.992     5778.802,445.726 5782.969,443.319 5788.032,439.583 5792.211,436.838 5798.451,433.484 5802.086,431.739   "
         id="polyline344" />
      <polyline
         style="fill:none;stroke:#000000"
         points="5890.941,459.167 5891.568,460.72 5898.722,460.46 5902.985,460.098     5912.735,458.566 5912.789,457.037 5913.048,454.495 5913.992,451.807 5915.471,448.456   "
         id="polyline346" />
      <line
         style="fill:none;stroke:#000000"
         x1="5916.9829"
         y1="444.086"
         x2="5918.062"
         y2="442.423"
         id="line348" />
      <line
         style="fill:none;stroke:#000000"
         x1="5508.27"
         y1="313.71899"
         x2="5513.229"
         y2="312.95599"
         id="line350" />
      <polyline
         style="fill:none;stroke:#000000"
         points="5511.577,372.435 5517.677,373.158 5520.935,372.421 5532.147,372.812     5541.169,372.617 5545.288,371.57 5545.388,373.615 5576.278,375.545 5586.952,376.768 5596.577,378.805 5598.464,378.36   "
         id="polyline352" />
      <polyline
         style="fill:none;stroke:#000000"
         points="5586.327,451.787 5586.253,453.974 5602.72,456.009 5602.687,456.979     5609.479,457.461 5620.386,458.572   "
         id="polyline354" />
      <polyline
         style="fill:none;stroke:#000000"
         points="5831.642,386.674 5831.851,387.956 5850,387.059 5878.357,386.008     5878.532,388.311 5895.554,390.436   "
         id="polyline356" />
      <polyline
         style="fill:none;stroke:#000000"
         points="6371.02,389.15 6368.781,393.439 6376.588,396.92 6374.742,401.214     6378.438,403.639 6382.535,405.48   "
         id="polyline358" />
      <polyline
         style="fill:none;stroke:#000000"
         points="6579.986,497.441 6579.569,498.81 6580.443,505.12 6584.586,504.603     6588.336,503.881 6587.826,510.363 6594.519,510.086 6597.864,509.947 6602.003,509.627   "
         id="polyline360" />
      <polyline
         style="fill:none;stroke:#000000"
         points="6783.296,500.942 6783.271,502.342 6788.692,502.787 6797.437,503.466     6802.867,503.386 6801.946,505.996 6804.044,506.207 6805.786,506.763 6810.688,506.849   "
         id="polyline362" />
      <polyline
         style="fill:none;stroke:#000000"
         points="6652.136,364.455 6651.205,367.094 6665.301,370.881 6665.239,374.42     6667.283,375.636   "
         id="polyline364" />
      <polyline
         style="fill:none;stroke:#000000"
         points="6754.586,512.88 6753.608,517.88 6759.487,519.162 6775.128,519.14     6779.504,521.871 6778.577,524.216 6786.821,525.244   "
         id="polyline366" />
      <polyline
         style="fill:none;stroke:#000000"
         points="7565.914,452.828 7565.149,456.585 7570.022,457.156 7578.218,458.037     7586.882,458.042 7595.324,458.041 7602.423,458.448 7607.282,459.466 7607.406,463.246 7616.952,463.496 7625.389,463.717     7632.721,463.686 7636.489,464.007   "
         id="polyline368" />
      <polyline
         style="fill:none;stroke:#000000"
         points="7076.567,536.916 7085.931,531.666 7086.468,533.643 7092.104,528.295     7097.337,523.328 7102.111,520.901   "
         id="polyline370" />
      <polyline
         style="fill:none;stroke:#231f20;stroke-linecap:round;stroke-linejoin:round"
         points="2848.178,319.601     2848.178,323.607 2860.984,325.046 2871.275,326.2 2877.639,325.964 2886.123,327.143 2886.123,329.971 2896.491,329.971     2900.499,329.264   "
         id="polyline372" />
      <path
         inkscape:connector-curvature="0"
         style="fill:none;stroke:#000000"
         d="m 4193.003,416.333 c 4.077,-0.647 8.25,-0.787 12.333,-1.333"
         id="path374" />
    </g>
  </g>
</svg>
