<?xml version="1.0" encoding="UTF-8" standalone="no"?>
<!-- Created with Inkscape (http://www.inkscape.org/) -->

<svg
   xmlns:dc="http://purl.org/dc/elements/1.1/"
   xmlns:cc="http://creativecommons.org/ns#"
   xmlns:rdf="http://www.w3.org/1999/02/22-rdf-syntax-ns#"
   xmlns:svg="http://www.w3.org/2000/svg"
   xmlns="http://www.w3.org/2000/svg"
   xmlns:sodipodi="http://sodipodi.sourceforge.net/DTD/sodipodi-0.dtd"
   xmlns:inkscape="http://www.inkscape.org/namespaces/inkscape"
   version="1.1"
   width="681.13281"
   height="60.163372"
   id="svg4242"
   style="enable-background:new"
   inkscape:version="0.48+devel r9873 custom"
   sodipodi:docname="unnamedroutesoutline.svg">
  <metadata
     id="metadata1283">
    <rdf:RDF>
      <cc:Work
         rdf:about="">
        <dc:format>image/svg+xml</dc:format>
        <dc:type
           rdf:resource="http://purl.org/dc/dcmitype/StillImage" />
        <dc:title></dc:title>
      </cc:Work>
    </rdf:RDF>
  </metadata>
  <sodipodi:namedview
     pagecolor="#ffffff"
     bordercolor="#666666"
     borderopacity="1"
     objecttolerance="10"
     gridtolerance="10"
     guidetolerance="10"
     inkscape:pageopacity="0"
     inkscape:pageshadow="2"
     inkscape:window-width="2560"
     inkscape:window-height="1300"
     id="namedview1281"
     showgrid="false"
     inkscape:zoom="7.9562552"
     inkscape:cx="116.06718"
     inkscape:cy="7.9253449"
     inkscape:window-x="248"
     inkscape:window-y="497"
     inkscape:window-maximized="1"
     inkscape:current-layer="svg4242" />
  <defs
     id="defs1282" />
  <g
     transform="matrix(0.05786179,0,0,0.05786381,-11.318451,-5.4914967)"
     id="Unnamed_Routes">
    <line
       style="fill:none;stroke:#652d90;stroke-width:0.5"
       x1="240.666"
       y1="397.07901"
       x2="254.64799"
       y2="391.75101"
       id="line5" />
    <polyline
       style="fill:none;stroke:#652d90;stroke-width:0.5"
       points="454.772,538.916 467.578,538.424 474.286,538.167    479.774,537.956 486.482,537.698  "
       id="polyline7" />
    <polyline
       style="fill:none;stroke:#652d90;stroke-width:0.5"
       points="326.437,381.898 327.744,386.139 331.198,386.721    336.405,388.237 342.182,389.731 344.17,389.369 348.498,390.347 351.81,390.935 357.017,392.451 361.498,393.709 363.805,394.191     "
       id="polyline9" />
    <polyline
       style="fill:none;stroke:#652d90;stroke-width:0.5"
       points="360.998,399.305 363.063,404.66 372.225,404.881    377.941,404.804 385.806,404.787 391.666,404.705 397.092,404.497  "
       id="polyline11" />
    <polyline
       style="fill:none;stroke:#652d90;stroke-width:0.5"
       points="449.942,332.107 450.897,334.645 457.576,333.529    461.86,333.365 463.854,333.146 464.864,333.393 466.435,333.332 467.413,332.723 472.702,332.662 478.989,332.564    484.839,332.195  "
       id="polyline13" />
    <polyline
       style="fill:none;stroke:#652d90;stroke-width:0.5"
       points="694.969,307.393 702.339,309.396 706.816,310.512    713.741,312.104  "
       id="polyline15" />
    <polyline
       style="fill:none;stroke:#652d90;stroke-width:0.5"
       points="666.933,288.592 667.756,291.42 674.336,291.453    678.197,291.447 689.11,292.602 692.702,293.035 700.04,294.184 709.106,295.694 717.021,296.963 722.633,297.892 728.241,298.678    731.546,299.122 738.049,300.875  "
       id="polyline17" />
    <polyline
       style="fill:none;stroke:#652d90;stroke-width:0.5"
       points="350.128,309.914 354.413,309.749 358.229,308.602    359.932,308.25  "
       id="polyline19" />
    <polyline
       style="fill:none;stroke:#652d90;stroke-width:0.5"
       points="247.047,515.375 253.451,514.557 259.432,513.897    264.71,513.552 269.978,512.921 276.799,511.801 283.208,511.125 289.189,510.467 295.878,509.637 301.706,508.698    312.081,507.013 319.039,505.744 327.838,503.977 330.54,503.587  "
       id="polyline21" />
    <polyline
       style="fill:none;stroke:#652d90;stroke-width:0.5"
       points="540.62,533.413 540.702,535.556 544.232,534.418    548.088,534.27 550.06,533.479 551.648,533.847 560.897,532.635 567.164,531.965 575,531.234 582.277,530.812 583.814,533.613  "
       id="polyline23" />
    <polyline
       style="fill:none;stroke:#652d90;stroke-width:0.5"
       points="245.79,504.982 254.742,503.495 268.237,501.117    277.036,499.35 288.255,497.345 296.923,495.869 302.024,494.671  "
       id="polyline25" />
    <polyline
       style="fill:none;stroke:#652d90;stroke-width:0.5"
       points="365.668,479.928 369.232,479.648 369.068,482.801    375.208,482.564 382.776,482.273 392.344,481.906 398.479,481.528 403.768,481.468  "
       id="polyline27" />
    <polyline
       style="fill:none;stroke:#652d90;stroke-width:0.5"
       points="354.025,474.655 354.509,476.066 354.953,480.197    357.655,479.807 358.089,479.933  "
       id="polyline29" />
    <polyline
       style="fill:none;stroke:#652d90;stroke-width:0.5"
       points="1384.649,450.309 1386.405,452.751 1395.658,452.632    1401.999,451.902 1407.585,451.86 1415.565,451.822 1422.137,452.196 1430.944,452.585 1437.992,452.928 1446.673,453.804    1450.698,454.342 1455.053,455.018 1461.117,454.944 1468.778,454.929 1475.977,455.102 1480.799,455.589 1487.456,454.839    1497.951,454.159  "
       id="polyline31" />
    <polyline
       style="fill:none;stroke:#652d90;stroke-width:0.5"
       points="1125.141,474.276 1126.567,476.579 1134.348,475.916    1144.812,474.761 1157.183,473.481 1166.694,472.388 1174.593,471.079 1179.81,470.263  "
       id="polyline33" />
    <polyline
       style="fill:none;stroke:#652d90;stroke-width:0.5"
       points="973.922,506.251 974.732,508.913 980.647,509.01    997.312,507.452 1014.604,505.695 1028.068,504.026 1040.271,502.599 1056.321,501.401 1066.179,500.764 1079.04,499.613    1091.131,498.991 1107.053,498.279 1117.697,497.433 1127.884,496.933 1139.354,496.511 1144.313,496.669 1153.535,496.072    1163.872,495.404 1173.9,494.915 1179.307,494.565 1187.298,494.688 1193.998,494.574 1200.358,494.163 1205.456,493.992    1209.312,494.382 1216.308,493.93 1228.869,493.117 1238.441,492.978  "
       id="polyline35" />
    <polyline
       style="fill:none;stroke:#652d90;stroke-width:0.5"
       points="1082.956,375.164 1082.45,372.638 1086.325,371.874    1095.254,370.103 1104.875,368.456 1112.296,367.124 1119.548,365.802 1125.609,364.557 1134.051,363.157 1143.489,361.353    1152.655,360.589 1160.312,360.265 1164.583,360.33 1168.386,361.107 1171.362,362.28 1173.534,364.188  "
       id="polyline37" />
    <polyline
       style="fill:none;stroke:#652d90;stroke-width:0.5"
       points="874.378,258.154 880.282,257.772 883.54,257.562    884.735,257.076  "
       id="polyline39" />
    <polyline
       style="fill:none;stroke:#652d90;stroke-width:0.5"
       points="2006.45,439.513 2006.472,440.854 2006.929,441.442    2010.484,440.046 2015.087,439.08 2020.593,438.546 2029.229,438.112 2038.312,437.671 2050.088,437.934 2058.281,437.805    2069.009,437.785 2078.996,437.927 2087.34,437.945 2096.732,438.244 2105.981,438.844 2111.798,439.199 2118.958,439.683    2125.073,440.033 2128.356,440.28  "
       id="polyline41" />
    <polyline
       style="fill:none;stroke:#652d90;stroke-width:0.5"
       points="2080.751,445.2 2081.849,448.61 2090.934,448.318    2098.545,449.094 2106.906,450.153 2114.67,451.076 2120.044,451.735 2125.126,452.699 2130.958,453.948  "
       id="polyline43" />
    <polyline
       style="fill:none;stroke:#652d90;stroke-width:0.5"
       points="1591.653,499.971 1590.825,504.157 1601.789,500.11    1605.34,498.564 1605.386,501.545 1613.688,498.732 1621.101,496.38 1623.915,495.293  "
       id="polyline45" />
    <polyline
       style="fill:none;stroke:#652d90;stroke-width:0.5"
       points="2024.527,433.119 2033.161,432.536 2045.072,431.903    2054.598,431.306 2065.617,430.835 2074.547,430.099 2082.737,429.821 2090.33,429.403 2097.333,429.294  "
       id="polyline47" />
    <polyline
       style="fill:none;stroke:#652d90;stroke-width:0.5"
       points="2206.108,222.015 2205.457,222.687 2205.107,225.741    2210.801,225.519 2219.67,224.85 2225.628,224.491 2227.608,224.062 2232.116,224.124 2236.479,223.525 2239.522,223.212    2239.84,226.653 2239.717,227.185 2243.161,227.13  "
       id="polyline49" />
    <polyline
       style="fill:none;stroke:#652d90;stroke-width:0.5"
       points="2293.563,433.036 2294.304,434.96 2299.483,435.107    2304.96,435.552 2305.699,435.552 2309.842,436.292 2314.876,437.031  "
       id="polyline51" />
    <polyline
       style="fill:none;stroke:#652d90;stroke-width:0.5"
       points="2620.084,354.472 2620.584,357.472 2625.918,356.306    2638.084,353.972 2650.918,351.305 2662.084,348.973 2669.918,348.139 2677.418,347.639 2685.918,347.305 2694.918,347.639    2700.751,348.139 2707.084,348.973 2715.251,351.305  "
       id="polyline53" />
    <polyline
       style="fill:none;stroke:#652d90;stroke-width:0.5"
       points="2716.584,348.473 2716.084,344.305 2715.751,341.639  "
       id="polyline55" />
    <polyline
       style="fill:none;stroke:#652d90;stroke-width:0.5"
       points="2244.77,226.329 2253.366,226.329 2268.535,226.329    2278.985,226.329 2286.57,226.329 2290.616,225.486 2292.638,225.486 2292.975,227.003 2298.706,227.003 2305.954,227.341    2314.719,227.341 2321.46,227.172  "
       id="polyline57" />
    <polyline
       style="fill:none;stroke:#652d90;stroke-width:0.5"
       points="2831.663,243.69 2831.663,246.219 2837.395,244.87    2846.496,244.533 2856.271,244.87 2865.036,245.544 2872.284,246.556 2880.712,248.578 2879.7,249.589 2879.532,251.106  "
       id="polyline59" />
    <polyline
       style="fill:none;stroke:#652d90;stroke-width:0.5"
       points="2879.195,252.792 2888.634,254.646 2895.207,255.994    2901.106,256.837 2903.804,256.837 2905.826,257.343  "
       id="polyline61" />
    <polyline
       style="fill:none;stroke:#652d90;stroke-width:0.5"
       points="2336.341,402.985 2336.738,403.983 2336.54,405.781    2338.737,405.781 2343.132,405.382 2348.925,404.782 2353.919,403.784 2358.513,403.185 2364.505,402.785 2370.298,402.186    2375.892,401.387 2381.485,400.987 2387.478,400.188 2392.671,399.988  "
       id="polyline63" />
    <polyline
       style="fill:none;stroke:#652d90;stroke-width:0.5"
       points="2308.804,290.014 2307.438,286.699 2306.464,283.385    2304.709,277.925 2304.709,273.44 2305.293,269.736 2305.879,265.836 2306.659,262.716  "
       id="polyline65" />
    <polyline
       style="fill:none;stroke:#652d90;stroke-width:0.5"
       points="2839.084,404.472 2829.251,402.972 2820.917,402.139    2810.417,400.972 2800.584,399.972 2795.584,399.972 2785.084,399.472 2781.084,399.472 2774.084,398.972 2766.917,398.972    2762.417,398.972  "
       id="polyline67" />
    <polyline
       style="fill:none;stroke:#652d90;stroke-width:0.5"
       points="3820.792,462.602 3827.469,458.863 3832.243,455.584    3839.553,451.693 3845.585,449.214 3849.24,447.348  "
       id="polyline69" />
    <polyline
       style="fill:none;stroke:#652d90;stroke-width:0.5"
       points="3773.103,391.774 3772.097,396.035 3771.079,401.458  "
       id="polyline71" />
    <polyline
       style="fill:none;stroke:#652d90;stroke-width:0.5"
       points="3956.421,383.545 3959.76,383.992 3959.048,385.797    3958.053,388.155 3956.501,390.369 3954.668,392.999 3952.412,396.044 3950.58,398.675 3949.031,400.61 3948.045,401.854    3946.503,403.233 3945.38,404.198  "
       id="polyline73" />
    <polyline
       style="fill:none;stroke:#652d90;stroke-width:0.5"
       points="3993.452,307.638 3997.543,307.271 4001.632,306.902    4004.857,306.931  "
       id="polyline75" />
    <polyline
       style="fill:none;stroke:#652d90;stroke-width:0.5"
       points="4846.873,429.851 4846.961,433.146 4853.353,434.008  "
       id="polyline77" />
    <polyline
       style="fill:none;stroke:#652d90;stroke-width:0.5"
       points="5067.731,484.102 5068.656,486.705 5070.456,485.442    5075.972,484.407 5082.781,483.393 5087.979,482.028 5089.28,481.566 5090.571,481.751  "
       id="polyline79" />
    <polyline
       style="fill:none;stroke:#652d90;stroke-width:0.5"
       points="5342.51,452.679 5335.559,452.558 5335.581,451.264  "
       id="polyline81" />
    <polyline
       style="fill:none;stroke:#652d90;stroke-width:0.5"
       points="5380.369,335.211 5388.199,333.561 5398.953,331.959    5404.175,330.752 5408.403,330.662  "
       id="polyline83" />
    <polyline
       style="fill:none;stroke:#652d90;stroke-width:0.5"
       points="5380.347,336.511 5384.396,337.232 5389.601,336.998    5400.008,336.691 5405.378,336.623  "
       id="polyline85" />
    <polyline
       style="fill:none;stroke:#652d90;stroke-width:0.5"
       points="5352.314,396.807 5362.044,398.113 5371.133,398.759    5375.674,399.326 5381.521,399.591 5388.169,400.52 5396.271,401.799 5403.898,402.42  "
       id="polyline87" />
    <line
       style="fill:none;stroke:#652d90;stroke-width:0.5"
       x1="5211.27"
       y1="469.75601"
       x2="5211.5249"
       y2="478.198"
       id="line89" />
    <polyline
       style="fill:none;stroke:#652d90;stroke-width:0.5"
       points="5218.586,319.251 5220.812,318.485 5222.433,317.909    5225.669,316.959 5228.693,316.61  "
       id="polyline91" />
    <polyline
       style="fill:none;stroke:#652d90;stroke-width:0.5"
       points="5288.868,446.894 5288.32,450.297 5290.137,448.703    5302.169,448.856 5301.963,451.138 5308.408,451.333 5314.039,451.513 5319.586,451.855 5323.593,451.354 5328.977,451.609    5333.39,451.36 5335.842,451.158  "
       id="polyline93" />
    <polyline
       style="fill:none;stroke:#652d90;stroke-width:0.5"
       points="5577.745,355.938 5582.497,356.273 5585.555,356.38  "
       id="polyline95" />
    <polyline
       style="fill:none;stroke:#652d90;stroke-width:0.5"
       points="5774.155,518.441 5775.344,518.482 5778.688,520.131    5783.907,521.673 5788.787,523.204 5793.169,524.378 5800.245,526.326 5805.641,527.706 5807.503,527.94  "
       id="polyline97" />
    <polyline
       style="fill:none;stroke:#652d90;stroke-width:0.5"
       points="6203.323,331.499 6203.217,334.559 6206.67,335.088  "
       id="polyline99" />
    <polyline
       style="fill:none;stroke:#652d90;stroke-width:0.5"
       points="6046.466,388.675 6047.263,391.376 6050.848,390.833    6058.229,389.977 6066.503,389.152 6073.869,388.741 6081.443,388.782 6087.889,389.229 6094.104,389.894 6102.315,390.849    6111.853,392.072 6116.964,392.474 6122.734,393.121 6127.185,393.276 6133.862,393.51 6137.192,393.849 6143.169,394.948    6146.698,395.963 6150.25,396.31 6153.795,396.879 6157.984,398.14 6161.068,399.138 6165.496,399.962 6168.159,400.277    6173.469,401.354 6179.878,402.915 6184.51,404.19 6188.953,404.568 6191.394,404.876 6194.044,405.638 6196.71,405.73    6198.261,406.008 6201.346,407.006 6203.754,408.205  "
       id="polyline101" />
    <polyline
       style="fill:none;stroke:#652d90;stroke-width:0.5"
       points="6059.199,420.123 6064.862,418.686 6069.573,417.68  "
       id="polyline103" />
    <polyline
       style="fill:none;stroke:#652d90;stroke-width:0.5"
       points="6207.844,335.195 6212.767,334.887 6216.32,334.162    6219.275,333.82 6227.172,332.188 6231.71,331.48 6234.865,330.945 6238.412,330.613  "
       id="polyline105" />
    <polyline
       style="fill:none;stroke:#652d90;stroke-width:0.5"
       points="6375.926,475.816 6384.184,475.96 6391.264,476.084    6398.148,476.007 6401.098,476.059 6405.432,475.741  "
       id="polyline107" />
    <polyline
       style="fill:none;stroke:#652d90;stroke-width:0.5"
       points="6493.43,493.997 6500.557,491.367 6507.68,488.934  "
       id="polyline109" />
    <polyline
       style="fill:none;stroke:#652d90;stroke-width:0.5"
       points="6384.9,547.569 6391.38,548.272 6399.241,548.607    6408.086,549.154 6419.686,549.356 6416.807,547.037  "
       id="polyline111" />
    <polyline
       style="fill:none;stroke:#652d90;stroke-width:0.5"
       points="6739.433,471.332 6739.839,478.169 6743.539,476.832    6750.229,474.848 6756.391,473.028 6760.794,471.705 6769.745,470.46 6777.298,469.191  "
       id="polyline113" />
    <polyline
       style="fill:none;stroke:#652d90;stroke-width:0.5"
       points="6771.88,498.693 6772.017,500.797 6775.179,500.326    6779.21,500.222 6781.306,500.433 6783.044,501.339  "
       id="polyline115" />
    <polyline
       style="fill:none;stroke:#652d90;stroke-width:0.5"
       points="6205.236,407.568 6210.044,407.652 6215.297,408.432    6221.455,409.912 6228.312,410.719 6234.253,411.511 6239.73,412.521 6244.522,413.521 6251.367,415.014 6258.195,417.425  "
       id="polyline117" />
    <polyline
       style="fill:none;stroke:#652d90;stroke-width:0.5"
       points="6638.244,381.244 6652.919,381.33 6665.735,380.452  "
       id="polyline119" />
    <line
       style="fill:none;stroke:#652d90;stroke-width:0.5"
       x1="6419.686"
       y1="549.35602"
       x2="6417.145"
       y2="551.64203"
       id="line121" />
    <polyline
       style="fill:none;stroke:#652d90;stroke-width:0.5"
       points="6987.956,334.049 7000.484,335.359 7011.836,336.637    7018.102,337.193 7025.359,337.384 7037.867,339.479 7046.266,341.072 7045.628,343.018 7061.68,344.617 7061.254,360.897    7046.16,360.109 7045.633,357.74 7041.906,357.643 7034.814,358.635 7024.754,360.531 7025.557,364.507  "
       id="polyline123" />
    <polyline
       style="fill:none;stroke:#652d90;stroke-width:0.5"
       points="6952.689,473.814 6953.787,476.465 6958.18,475.707    6963.744,474.686 6967.57,473.328 6971.717,470.814  "
       id="polyline125" />
  </g>
</svg>
